InterAlia-BlackItalic.ufo
<glyph name="exclam" format="2">
  <advance height="2479" width="727"/>
  <unicode hex="0021"/>
  <outline>
    <contour>
      <point x="719" y="1489" type="line"/>
      <point x="314" y="1489" type="line"/>
      <point x="183" y="465" type="line"/>
      <point x="512" y="465" type="line"/>
    </contour>
    <component base="period" xOffset="47"/>
  </outline>
</glyph>
<glyph name="numbersign" format="2">
  <advance height="2479" width="1356"/>
  <unicode hex="0023"/>
  <outline>
    <contour>
      <point x="689" y="0" type="line"/>
      <point x="980" y="0" type="line"/>
      <point x="1251" y="1489" type="line"/>
      <point x="960" y="1489" type="line"/>
    </contour>
    <contour>
      <point x="35" y="340" type="line"/>
      <point x="1233" y="340" type="line"/>
      <point x="1289" y="631" type="line"/>
      <point x="90" y="631" type="line"/>
    </contour>
    <contour>
      <point x="166" y="0" type="line"/>
      <point x="457" y="0" type="line"/>
      <point x="727" y="1489" type="line"/>
      <point x="436" y="1489" type="line"/>
    </contour>
    <contour>
      <point x="129" y="858" type="line"/>
      <point x="1328" y="858" type="line"/>
      <point x="1382" y="1149" type="line"/>
      <point x="183" y="1149" type="line"/>
    </contour>
  </outline>
</glyph>
<glyph name="asterisk" format="2">
  <advance height="2479" width="1245"/>
  <unicode hex="002A"/>
  <outline>
    <contour>
      <point x="521" y="652" type="line"/>
      <point x="753" y="652" type="line"/>
      <point x="774" y="908" type="line"/>
      <point x="960" y="759" type="line"/>
      <point x="1111" y="963" type="line"/>
      <point x="896" y="1071" type="line"/>
      <point x="1146" y="1178" type="line"/>
      <point x="1065" y="1382" type="line"/>
      <point x="826" y="1233" type="line"/>
      <point x="893" y="1489" type="line"/>
      <point x="660" y="1489" type="line"/>
      <point x="640" y="1233" type="line"/>
      <point x="454" y="1382" type="line"/>
      <point x="303" y="1178" type="line"/>
      <point x="518" y="1071" type="line"/>
      <point x="268" y="963" type="line"/>
      <point x="349" y="759" type="line"/>
      <point x="588" y="908" type="line"/>
    </contour>
  </outline>
</glyph>
<glyph name="comma" format="2">
  <advance height="2479" width="652"/>
  <unicode hex="002C"/>
  <outline>
    <contour>
      <point x="433" y="204" type="line"/>
      <point x="131" y="204" type="line"/>
      <point x="116" y="122" type="line" smooth="yes"/>
      <point x="85" y="-76"/>
      <point x="-20" y="-288"/>
      <point x="-52" y="-364" type="curve"/>
      <point x="195" y="-364" type="line"/>
      <point x="242" y="-282"/>
      <point x="364" y="-87"/>
      <point x="413" y="122" type="curve" smooth="yes"/>
    </contour>
  </outline>
</glyph>
<glyph name="period" format="2">
  <advance height="2479" width="640"/>
  <unicode hex="002E"/>
  <outline>
    <contour>
      <point x="236" y="-23" type="curve" smooth="yes"/>
      <point x="340" y="-23"/>
      <point x="448" y="67"/>
      <point x="460" y="180" type="curve" smooth="yes"/>
      <point x="471" y="291"/>
      <point x="387" y="381"/>
      <point x="279" y="381" type="curve" smooth="yes"/>
      <point x="166" y="381"/>
      <point x="64" y="291"/>
      <point x="52" y="180" type="curve" smooth="yes"/>
      <point x="41" y="67"/>
      <point x="122" y="-23"/>
    </contour>
  </outline>
</glyph>
<glyph name="slash" format="2">
  <advance height="2479" width="844"/>
  <unicode hex="002F"/>
  <outline>
    <contour>
      <point x="998" y="1559" type="line"/>
      <point x="657" y="1559" type="line"/>
      <point x="-116" y="-224" type="line"/>
      <point x="224" y="-224" type="line"/>
    </contour>
  </outline>
</glyph>
<glyph name="three" format="2">
  <advance height="2479" width="1382"/>
  <unicode hex="0033"/>
  <outline>
    <contour>
      <point x="605" y="-20" type="curve" smooth="yes"/>
      <point x="957" y="-20"/>
      <point x="1237" y="163"/>
      <point x="1277" y="407" type="curve" smooth="yes"/>
      <point x="1308" y="598"/>
      <point x="1180" y="740"/>
      <point x="969" y="765" type="curve"/>
      <point x="969" y="777" type="line"/>
      <point x="1162" y="793"/>
      <point x="1300" y="881"/>
      <point x="1329" y="1056" type="curve" smooth="yes"/>
      <point x="1369" y="1300"/>
      <point x="1169" y="1510"/>
      <point x="829" y="1510" type="curve" smooth="yes"/>
      <point x="503" y="1510"/>
      <point x="234" y="1317"/>
      <point x="189" y="1044" type="curve"/>
      <point x="573" y="1044" type="line"/>
      <point x="586" y="1135"/>
      <point x="697" y="1199"/>
      <point x="809" y="1199" type="curve" smooth="yes"/>
      <point x="911" y="1199"/>
      <point x="956" y="1148"/>
      <point x="943" y="1071" type="curve" smooth="yes"/>
      <point x="926" y="970"/>
      <point x="825" y="896"/>
      <point x="701" y="896" type="curve" smooth="yes"/>
      <point x="559" y="896" type="line"/>
      <point x="512" y="617" type="line"/>
      <point x="672" y="617" type="line" smooth="yes"/>
      <point x="795" y="617"/>
      <point x="879" y="575"/>
      <point x="864" y="483" type="curve" smooth="yes"/>
      <point x="849" y="393"/>
      <point x="753" y="305"/>
      <point x="628" y="305" type="curve" smooth="yes"/>
      <point x="523" y="305"/>
      <point x="449" y="367"/>
      <point x="465" y="454" type="curve"/>
      <point x="64" y="454" type="line"/>
      <point x="16" y="176"/>
      <point x="241" y="-20"/>
    </contour>
  </outline>
</glyph>
<glyph name="four" format="2">
  <advance height="2479" width="1437"/>
  <unicode hex="0034"/>
  <outline>
    <contour>
      <point x="29" y="233" type="line"/>
      <point x="1312" y="233" type="line"/>
      <point x="1364" y="547" type="line"/>
      <point x="480" y="547" type="line"/>
      <point x="483" y="559" type="line"/>
      <point x="890" y="1071" type="line"/>
      <point x="1053" y="1071" type="line"/>
      <point x="1123" y="1489" type="line"/>
      <point x="838" y="1489" type="line"/>
      <point x="81" y="547" type="line"/>
    </contour>
    <contour>
      <point x="716" y="0" type="line"/>
      <point x="1103" y="0" type="line"/>
      <point x="1350" y="1489" type="line"/>
      <point x="972" y="1489" type="line"/>
      <point x="803" y="465" type="line"/>
      <point x="771" y="329" type="line"/>
    </contour>
  </outline>
</glyph>
<glyph name="five" format="2">
  <advance height="2479" width="1370"/>
  <unicode hex="0035"/>
  <outline>
    <contour>
      <point x="599" y="-20" type="curve" smooth="yes"/>
      <point x="964" y="-20"/>
      <point x="1237" y="201"/>
      <point x="1286" y="512" type="curve" smooth="yes"/>
      <point x="1333" y="794"/>
      <point x="1170" y="995"/>
      <point x="905" y="995" type="curve" smooth="yes"/>
      <point x="754" y="995"/>
      <point x="620" y="928"/>
      <point x="559" y="838" type="curve"/>
      <point x="550" y="838" type="line"/>
      <point x="634" y="1167" type="line"/>
      <point x="1303" y="1167" type="line"/>
      <point x="1356" y="1489" type="line"/>
      <point x="355" y="1489" type="line"/>
      <point x="160" y="669" type="line"/>
      <point x="503" y="599" type="line"/>
      <point x="551" y="672"/>
      <point x="635" y="716"/>
      <point x="721" y="716" type="curve" smooth="yes"/>
      <point x="844" y="716"/>
      <point x="917" y="631"/>
      <point x="896" y="500" type="curve" smooth="yes"/>
      <point x="873" y="369"/>
      <point x="775" y="285"/>
      <point x="649" y="285" type="curve" smooth="yes"/>
      <point x="542" y="285"/>
      <point x="466" y="352"/>
      <point x="480" y="454" type="curve"/>
      <point x="87" y="454" type="line"/>
      <point x="44" y="177"/>
      <point x="257" y="-20"/>
    </contour>
  </outline>
</glyph>
<glyph name="six" format="2">
  <advance height="2479" width="1402"/>
  <unicode hex="0036"/>
  <outline>
    <contour>
      <point x="643" y="-20" type="curve" smooth="yes"/>
      <point x="985" y="-20"/>
      <point x="1255" y="180"/>
      <point x="1306" y="492" type="curve" smooth="yes"/>
      <point x="1354" y="774"/>
      <point x="1200" y="983"/>
      <point x="922" y="983" type="curve" smooth="yes"/>
      <point x="758" y="983"/>
      <point x="598" y="911"/>
      <point x="518" y="774" type="curve"/>
      <point x="506" y="753" type="line"/>
      <point x="551" y="995"/>
      <point x="665" y="1167"/>
      <point x="841" y="1167" type="curve" smooth="yes"/>
      <point x="920" y="1167"/>
      <point x="986" y="1134"/>
      <point x="986" y="1047" type="curve"/>
      <point x="1379" y="1047" type="line"/>
      <point x="1395" y="1303"/>
      <point x="1199" y="1510"/>
      <point x="867" y="1510" type="curve" smooth="yes"/>
      <point x="484" y="1510"/>
      <point x="188" y="1222"/>
      <point x="108" y="748" type="curve" smooth="yes"/>
      <point x="15" y="198"/>
      <point x="287" y="-20"/>
    </contour>
    <contour>
      <point x="657" y="285" type="curve" smooth="yes"/>
      <point x="546" y="285"/>
      <point x="481" y="359"/>
      <point x="497" y="477" type="curve" smooth="yes"/>
      <point x="519" y="612"/>
      <point x="633" y="710"/>
      <point x="759" y="710" type="curve" smooth="yes"/>
      <point x="873" y="710"/>
      <point x="937" y="631"/>
      <point x="919" y="518" type="curve" smooth="yes"/>
      <point x="902" y="384"/>
      <point x="787" y="285"/>
    </contour>
  </outline>
</glyph>
<glyph name="seven" format="2">
  <advance height="2479" width="1251"/>
  <unicode hex="0037"/>
  <outline>
    <contour>
      <point x="73" y="0" type="line"/>
      <point x="489" y="0" type="line"/>
      <point x="1271" y="1167" type="line"/>
      <point x="1324" y="1489" type="line"/>
      <point x="218" y="1489" type="line"/>
      <point x="166" y="1167" type="line"/>
      <point x="852" y="1167" type="line"/>
      <point x="849" y="1158" type="line"/>
    </contour>
  </outline>
</glyph>
<glyph name="nine" format="2">
  <advance height="2479" width="1402"/>
  <unicode hex="0039"/>
  <outline>
    <contour>
      <point x="823" y="1510" type="curve" smooth="yes"/>
      <point x="482" y="1510"/>
      <point x="212" y="1309"/>
      <point x="160" y="1001" type="curve" smooth="yes"/>
      <point x="113" y="721"/>
      <point x="267" y="512"/>
      <point x="544" y="512" type="curve" smooth="yes"/>
      <point x="709" y="512"/>
      <point x="869" y="585"/>
      <point x="948" y="721" type="curve"/>
      <point x="960" y="742" type="line"/>
      <point x="916" y="495"/>
      <point x="802" y="323"/>
      <point x="625" y="323" type="curve" smooth="yes"/>
      <point x="546" y="323"/>
      <point x="479" y="355"/>
      <point x="480" y="448" type="curve"/>
      <point x="87" y="448" type="line"/>
      <point x="72" y="186"/>
      <point x="267" y="-20"/>
      <point x="599" y="-20" type="curve" smooth="yes"/>
      <point x="983" y="-20"/>
      <point x="1278" y="268"/>
      <point x="1359" y="748" type="curve" smooth="yes"/>
      <point x="1451" y="1292"/>
      <point x="1180" y="1510"/>
    </contour>
    <contour>
      <point x="809" y="1204" type="curve" smooth="yes"/>
      <point x="921" y="1204"/>
      <point x="985" y="1129"/>
      <point x="969" y="1015" type="curve" smooth="yes"/>
      <point x="949" y="884"/>
      <point x="834" y="785"/>
      <point x="707" y="785" type="curve" smooth="yes"/>
      <point x="593" y="785"/>
      <point x="532" y="863"/>
      <point x="547" y="975" type="curve" smooth="yes"/>
      <point x="564" y="1105"/>
      <point x="680" y="1204"/>
    </contour>
  </outline>
</glyph>
<glyph name="equal" format="2">
  <advance height="2479" width="1420"/>
  <unicode hex="003D"/>
  <outline>
    <contour>
      <point x="195" y="701" type="line"/>
      <point x="1271" y="701" type="line"/>
      <point x="1327" y="1027" type="line"/>
      <point x="250" y="1027" type="line"/>
    </contour>
    <contour>
      <point x="111" y="183" type="line"/>
      <point x="1187" y="183" type="line"/>
      <point x="1239" y="509" type="line"/>
      <point x="163" y="509" type="line"/>
    </contour>
  </outline>
</glyph>
<glyph name="A" format="2">
  <advance height="2479" width="1629"/>
  <unicode hex="0041"/>
  <anchor x="721" y="0" name="bottom"/>
  <anchor x="1489" y="0" name="ogonek"/>
  <anchor x="614" y="1489" name="tonos"/>
  <anchor x="1001" y="1676" name="top"/>
  <outline>
    <contour>
      <point x="390" y="0" type="line"/>
      <point x="896" y="1079" type="line"/>
      <point x="908" y="1079" type="line"/>
      <point x="1053" y="0" type="line"/>
      <point x="1489" y="0" type="line"/>
      <point x="1245" y="1489" type="line"/>
      <point x="692" y="1489" type="line"/>
      <point x="-47" y="0" type="line"/>
    </contour>
    <contour>
      <point x="407" y="588" type="line"/>
      <point x="355" y="285" type="line"/>
      <point x="1175" y="285" type="line"/>
      <point x="1228" y="588" type="line"/>
    </contour>
  </outline>
</glyph>
<glyph name="E" format="2">
  <advance height="2479" width="1274"/>
  <unicode hex="0045"/>
  <anchor x="544" y="0" name="bottom"/>
  <anchor x="547" y="0" name="cedilla"/>
  <anchor x="1073" y="0" name="ogonek"/>
  <anchor x="209" y="1489" name="tonos"/>
  <anchor x="823" y="1676" name="top"/>
  <outline>
    <contour>
      <point x="3" y="0" type="line"/>
      <point x="1073" y="0" type="line"/>
      <point x="1129" y="326" type="line"/>
      <point x="463" y="326" type="line"/>
      <point x="503" y="582" type="line"/>
      <point x="1117" y="582" type="line"/>
      <point x="1172" y="908" type="line"/>
      <point x="559" y="908" type="line"/>
      <point x="599" y="1164" type="line"/>
      <point x="1268" y="1164" type="line"/>
      <point x="1324" y="1489" type="line"/>
      <point x="250" y="1489" type="line"/>
    </contour>
  </outline>
</glyph>
<glyph name="H" format="2">
  <advance height="2479" width="1536"/>
  <unicode hex="0048"/>
  <anchor x="675" y="0" name="bottom"/>
  <anchor x="195" y="0" name="cedilla"/>
  <anchor x="1565" y="163" name="cyrtic"/>
  <anchor x="1347" y="0" name="right"/>
  <anchor x="215" y="1489" name="tonos"/>
  <anchor x="954" y="1676" name="top"/>
  <outline>
    <contour>
      <point x="3" y="0" type="line"/>
      <point x="407" y="0" type="line"/>
      <point x="503" y="582" type="line"/>
      <point x="1039" y="582" type="line"/>
      <point x="943" y="0" type="line"/>
      <point x="1347" y="0" type="line"/>
      <point x="1594" y="1489" type="line"/>
      <point x="1190" y="1489" type="line"/>
      <point x="1094" y="908" type="line"/>
      <point x="559" y="908" type="line"/>
      <point x="655" y="1489" type="line"/>
      <point x="250" y="1489" type="line"/>
    </contour>
  </outline>
</glyph>
<glyph name="I" format="2">
  <advance height="2479" width="597"/>
  <unicode hex="0049"/>
  <anchor x="207" y="0" name="bottom"/>
  <anchor x="335" y="788" name="cross"/>
  <anchor x="407" y="0" name="ogonek"/>
  <anchor x="433" y="0" name="right"/>
  <anchor x="250" y="1489" name="tonos"/>
  <anchor x="486" y="1676" name="top"/>
  <outline>
    <contour>
      <point x="655" y="1489" type="line"/>
      <point x="250" y="1489" type="line"/>
      <point x="3" y="0" type="line"/>
      <point x="407" y="0" type="line"/>
    </contour>
  </outline>
</glyph>
<glyph name="J" format="2">
  <advance height="2479" width="1205"/>
  <unicode hex="004A"/>
  <anchor x="960" y="884" name="cross"/>
  <anchor x="1094" y="1676" name="top"/>
  <outline>
    <contour>
      <point x="864" y="1489" type="line"/>
      <point x="695" y="468" type="line"/>
      <point x="675" y="355"/>
      <point x="617" y="294"/>
      <point x="527" y="294" type="curve" smooth="yes"/>
      <point x="436" y="294"/>
      <point x="399" y="352"/>
      <point x="413" y="465" type="curve"/>
      <point x="9" y="465" type="line"/>
      <point x="-49" y="122"/>
      <point x="163" y="-20"/>
      <point x="448" y="-20" type="curve" smooth="yes"/>
      <point x="780" y="-20"/>
      <point x="1044" y="177"/>
      <point x="1094" y="468" type="curve"/>
      <point x="1263" y="1489" type="line"/>
    </contour>
  </outline>
</glyph>
<glyph name="K" format="2">
  <advance height="2479" width="1463"/>
  <unicode hex="004B"/>
  <anchor x="631" y="3" name="bottom"/>
  <anchor x="911" y="1676" name="top"/>
  <outline>
    <contour>
      <point x="3" y="0" type="line"/>
      <point x="407" y="0" type="line"/>
      <point x="471" y="381" type="line"/>
      <point x="637" y="559" type="line"/>
      <point x="876" y="0" type="line"/>
      <point x="1359" y="0" type="line"/>
      <point x="983" y="826" type="line"/>
      <point x="1594" y="1489" type="line"/>
      <point x="1123" y="1489" type="line"/>
      <point x="576" y="887" type="line"/>
      <point x="556" y="887" type="line"/>
      <point x="655" y="1489" type="line"/>
      <point x="250" y="1489" type="line"/>
    </contour>
  </outline>
</glyph>
<glyph name="Q" format="2">
  <advance height="2479" width="1630"/>
  <unicode hex="0051"/>
  <anchor x="721" y="0" name="bottom"/>
  <anchor x="931" y="6" name="ogonek"/>
  <anchor x="326" y="1489" name="tonos"/>
  <anchor x="1001" y="1676" name="top"/>
  <outline>
    <contour>
      <point x="669" y="553" type="line"/>
      <point x="835" y="268" type="line"/>
      <point x="928" y="96" type="line"/>
      <point x="1071" y="-111" type="line"/>
      <point x="1428" y="-111" type="line"/>
      <point x="1228" y="192" type="line"/>
      <point x="1073" y="410" type="line"/>
      <point x="983" y="553" type="line"/>
    </contour>
    <component base="O"/>
  </outline>
</glyph>
<glyph name="R" format="2">
  <advance height="2479" width="1388"/>
  <unicode hex="0052"/>
  <anchor x="605" y="0" name="bottom"/>
  <anchor x="861" y="1676" name="top"/>
  <outline>
    <contour>
      <point x="3" y="0" type="line"/>
      <point x="407" y="0" type="line"/>
      <point x="602" y="1167" type="line"/>
      <point x="745" y="1167" type="line" smooth="yes"/>
      <point x="884" y="1167"/>
      <point x="960" y="1111"/>
      <point x="940" y="983" type="curve" smooth="yes"/>
      <point x="919" y="855"/>
      <point x="826" y="806"/>
      <point x="684" y="806" type="curve" smooth="yes"/>
      <point x="381" y="806" type="line"/>
      <point x="329" y="492" type="line"/>
      <point x="713" y="492" type="line" smooth="yes"/>
      <point x="1053" y="492"/>
      <point x="1309" y="663"/>
      <point x="1361" y="983" type="curve" smooth="yes"/>
      <point x="1414" y="1300"/>
      <point x="1225" y="1489"/>
      <point x="893" y="1489" type="curve" smooth="yes"/>
      <point x="250" y="1489" type="line"/>
    </contour>
    <contour>
      <point x="989" y="684" type="line"/>
      <point x="559" y="684" type="line"/>
      <point x="809" y="0" type="line"/>
      <point x="1248" y="0" type="line"/>
    </contour>
  </outline>
</glyph>
<glyph name="S" format="2">
  <advance height="2479" width="1364"/>
  <unicode hex="0053"/>
  <anchor x="596" y="0" name="bottom"/>
  <anchor x="593" y="0" name="cedilla"/>
  <anchor x="870" y="1676" name="top"/>
  <outline>
    <contour>
      <point x="975" y="1024" type="curve"/>
      <point x="1361" y="1024" type="line"/>
      <point x="1411" y="1318"/>
      <point x="1216" y="1510"/>
      <point x="855" y="1510" type="curve" smooth="yes"/>
      <point x="500" y="1510"/>
      <point x="221" y="1321"/>
      <point x="175" y="1036" type="curve" smooth="yes"/>
      <point x="137" y="803"/>
      <point x="276" y="675"/>
      <point x="529" y="617" type="curve" smooth="yes"/>
      <point x="672" y="585" type="line" smooth="yes"/>
      <point x="832" y="550"/>
      <point x="884" y="506"/>
      <point x="873" y="439" type="curve" smooth="yes" name="hr00"/>
      <point x="861" y="367"/>
      <point x="785" y="314"/>
      <point x="655" y="314" type="curve" smooth="yes"/>
      <point x="500" y="314"/>
      <point x="419" y="387"/>
      <point x="436" y="524" type="curve"/>
      <point x="52" y="524" type="line"/>
      <point x="-9" y="151"/>
      <point x="218" y="-17"/>
      <point x="605" y="-17" type="curve" smooth="yes"/>
      <point x="983" y="-17"/>
      <point x="1236" y="145"/>
      <point x="1286" y="439" type="curve" smooth="yes"/>
      <point x="1324" y="666"/>
      <point x="1213" y="826"/>
      <point x="896" y="896" type="curve" smooth="yes"/>
      <point x="780" y="922" type="line" smooth="yes"/>
      <point x="643" y="951"/>
      <point x="585" y="995"/>
      <point x="602" y="1065" type="curve" smooth="yes"/>
      <point x="614" y="1132"/>
      <point x="675" y="1178"/>
      <point x="800" y="1178" type="curve" smooth="yes"/>
      <point x="931" y="1178"/>
      <point x="983" y="1120"/>
    </contour>
  </outline>
</glyph>
<glyph name="T" format="2">
  <advance height="2479" width="1405"/>
  <unicode hex="0054"/>
  <anchor x="608" y="0" name="bottom"/>
  <anchor x="602" y="0" name="cedilla"/>
  <anchor x="719" y="666" name="cross"/>
  <anchor x="1009" y="163" name="cyrtic"/>
  <anchor x="762" y="0" name="right"/>
  <anchor x="890" y="1676" name="top"/>
  <outline>
    <contour>
      <point x="154" y="1164" type="line"/>
      <point x="602" y="1164" type="line"/>
      <point x="410" y="0" type="line"/>
      <point x="809" y="0" type="line"/>
      <point x="1001" y="1164" type="line"/>
      <point x="1449" y="1164" type="line"/>
      <point x="1504" y="1489" type="line"/>
      <point x="209" y="1489" type="line"/>
    </contour>
  </outline>
</glyph>
<glyph name="U" format="2">
  <advance height="2479" width="1477"/>
  <unicode hex="0055"/>
  <anchor x="646" y="9" name="bottom"/>
  <anchor x="866" y="10" name="ogonek"/>
  <anchor x="773" y="0" name="right"/>
  <anchor x="923" y="1676" name="top"/>
  <outline>
    <contour>
      <point x="1131" y="1489" type="line"/>
      <point x="978" y="570" type="line" smooth="yes"/>
      <point x="955" y="432"/>
      <point x="840" y="332"/>
      <point x="700" y="332" type="curve" smooth="yes"/>
      <point x="562" y="332"/>
      <point x="478" y="432"/>
      <point x="501" y="570" type="curve" smooth="yes"/>
      <point x="654" y="1489" type="line"/>
      <point x="249" y="1489" type="line"/>
      <point x="91" y="535" type="line" smooth="yes"/>
      <point x="34" y="195"/>
      <point x="256" y="-17"/>
      <point x="642" y="-17" type="curve" smooth="yes"/>
      <point x="1024" y="-17"/>
      <point x="1320" y="195"/>
      <point x="1376" y="535" type="curve" smooth="yes"/>
      <point x="1535" y="1489" type="line"/>
    </contour>
  </outline>
</glyph>
<glyph name="V" format="2">
  <advance height="2479" width="1629"/>
  <unicode hex="0056"/>
  <anchor x="720" y="0" name="bottom"/>
  <anchor x="999" y="1676" name="top"/>
  <outline>
    <contour>
      <point x="656" y="1489" type="line"/>
      <point x="199" y="1489" type="line"/>
      <point x="443" y="0" type="line"/>
      <point x="996" y="0" type="line"/>
      <point x="1735" y="1489" type="line"/>
      <point x="1278" y="1489" type="line"/>
      <point x="798" y="439" type="line"/>
      <point x="787" y="439" type="line"/>
    </contour>
  </outline>
</glyph>
<glyph name="X" format="2">
  <advance height="2479" width="1562"/>
  <unicode hex="0058"/>
  <anchor x="687" y="-6" name="bottom"/>
  <anchor x="812" y="745" name="cross"/>
  <anchor x="1359" y="163" name="cyrtic"/>
  <anchor x="1199" y="0" name="right"/>
  <anchor x="966" y="1676" name="top"/>
  <outline>
    <contour>
      <point x="666" y="1489" type="line"/>
      <point x="230" y="1489" type="line"/>
      <point x="550" y="745" type="line"/>
      <point x="-32" y="0" type="line"/>
      <point x="439" y="0" type="line"/>
      <point x="765" y="442" type="line"/>
      <point x="777" y="442" type="line"/>
      <point x="957" y="0" type="line"/>
      <point x="1408" y="0" type="line"/>
      <point x="1071" y="745" type="line"/>
      <point x="1638" y="1489" type="line"/>
      <point x="1169" y="1489" type="line"/>
      <point x="849" y="1056" type="line"/>
      <point x="838" y="1056" type="line"/>
    </contour>
  </outline>
</glyph>
<glyph name="Z" format="2">
  <advance height="2479" width="1423"/>
  <unicode hex="005A"/>
  <anchor x="620" y="0" name="bottom"/>
  <anchor x="780" y="788" name="cross"/>
  <anchor x="902" y="1676" name="top"/>
  <outline>
    <contour>
      <point x="9" y="0" type="line"/>
      <point x="1225" y="0" type="line"/>
      <point x="1280" y="326" type="line"/>
      <point x="576" y="326" type="line"/>
      <point x="1437" y="1265" type="line"/>
      <point x="1475" y="1489" type="line"/>
      <point x="259" y="1489" type="line"/>
      <point x="204" y="1164" type="line"/>
      <point x="908" y="1164" type="line"/>
      <point x="47" y="224" type="line"/>
    </contour>
  </outline>
</glyph>
<glyph name="a" format="2">
  <advance height="2479" width="1210"/>
  <unicode hex="0061"/>
  <anchor x="509" y="0" name="bottom"/>
  <anchor x="1027" y="0" name="ogonek"/>
  <anchor x="748" y="1303" name="rhalfring"/>
  <anchor x="739" y="1303" name="top"/>
  <outline>
    <contour>
      <point x="317" y="-23" type="curve" smooth="yes"/>
      <point x="463" y="-23"/>
      <point x="582" y="32"/>
      <point x="669" y="157" type="curve"/>
      <point x="678" y="157" type="line"/>
      <point x="652" y="0" type="line"/>
      <point x="1027" y="0" type="line"/>
      <point x="1155" y="765" type="line" smooth="yes"/>
      <point x="1190" y="972"/>
      <point x="1018" y="1132"/>
      <point x="701" y="1132" type="curve" smooth="yes"/>
      <point x="367" y="1132"/>
      <point x="172" y="957"/>
      <point x="125" y="753" type="curve"/>
      <point x="495" y="753" type="line"/>
      <point x="515" y="823"/>
      <point x="573" y="855"/>
      <point x="649" y="855" type="curve" smooth="yes"/>
      <point x="719" y="855"/>
      <point x="753" y="824"/>
      <point x="753" y="765" type="curve" smooth="yes"/>
      <point x="753" y="762" type="line" smooth="yes"/>
      <point x="753" y="697"/>
      <point x="666" y="678"/>
      <point x="477" y="663" type="curve" smooth="yes"/>
      <point x="244" y="646"/>
      <point x="49" y="553"/>
      <point x="9" y="308" type="curve" smooth="yes"/>
      <point x="-29" y="87"/>
      <point x="105" y="-23"/>
    </contour>
    <contour>
      <point x="492" y="230" type="curve" smooth="yes"/>
      <point x="422" y="230"/>
      <point x="381" y="271"/>
      <point x="390" y="332" type="curve" smooth="yes"/>
      <point x="399" y="390"/>
      <point x="448" y="433"/>
      <point x="544" y="448" type="curve" smooth="yes"/>
      <point x="608" y="460"/>
      <point x="666" y="471"/>
      <point x="710" y="489" type="curve"/>
      <point x="695" y="396" type="line" smooth="yes"/>
      <point x="679" y="294"/>
      <point x="582" y="230"/>
    </contour>
  </outline>
</glyph>
<glyph name="c" format="2">
  <advance height="2479" width="1242"/>
  <unicode hex="0063"/>
  <anchor x="550" y="0" name="cedilla"/>
  <anchor x="765" y="1303" name="top"/>
  <outline>
    <contour>
      <point x="544" y="-20" type="curve" smooth="yes"/>
      <point x="876" y="-20"/>
      <point x="1108" y="169"/>
      <point x="1164" y="465" type="curve"/>
      <point x="791" y="465" type="line"/>
      <point x="762" y="349"/>
      <point x="689" y="285"/>
      <point x="599" y="285" type="curve" smooth="yes"/>
      <point x="495" y="285"/>
      <point x="442" y="375"/>
      <point x="471" y="559" type="curve" smooth="yes"/>
      <point x="500" y="742"/>
      <point x="585" y="832"/>
      <point x="692" y="832" type="curve" smooth="yes"/>
      <point x="780" y="832"/>
      <point x="829" y="768"/>
      <point x="820" y="652" type="curve"/>
      <point x="1193" y="652" type="line"/>
      <point x="1239" y="943"/>
      <point x="1065" y="1132"/>
      <point x="736" y="1132" type="curve" smooth="yes"/>
      <point x="372" y="1132"/>
      <point x="116" y="899"/>
      <point x="61" y="556" type="curve" smooth="yes"/>
      <point x="3" y="212"/>
      <point x="180" y="-20"/>
    </contour>
  </outline>
</glyph>
<glyph name="d" format="2">
  <advance height="2479" width="1321"/>
  <unicode hex="0064"/>
  <anchor x="569" y="0" name="bottom"/>
  <anchor x="1143" y="1280" name="cross"/>
  <anchor x="1495" y="1489" name="raccent"/>
  <anchor x="710" y="1489" name="top"/>
  <outline>
    <contour>
      <point x="412" y="-15" type="curve" smooth="yes"/>
      <point x="568" y="-15"/>
      <point x="689" y="70"/>
      <point x="755" y="183" type="curve"/>
      <point x="764" y="183" type="line"/>
      <point x="733" y="0" type="line"/>
      <point x="1132" y="0" type="line"/>
      <point x="1379" y="1489" type="line"/>
      <point x="977" y="1489" type="line"/>
      <point x="883" y="922" type="line"/>
      <point x="877" y="922" type="line"/>
      <point x="852" y="1036"/>
      <point x="764" y="1132"/>
      <point x="598" y="1132" type="curve" smooth="yes"/>
      <point x="377" y="1132"/>
      <point x="134" y="963"/>
      <point x="67" y="559" type="curve"/>
      <point x="3" y="172"/>
      <point x="172" y="-15"/>
    </contour>
    <contour>
      <point x="611" y="294" type="curve" smooth="yes"/>
      <point x="500" y="294"/>
      <point x="452" y="393"/>
      <point x="480" y="559" type="curve" smooth="yes"/>
      <point x="507" y="724"/>
      <point x="588" y="823"/>
      <point x="698" y="823" type="curve" smooth="yes"/>
      <point x="809" y="823"/>
      <point x="859" y="724"/>
      <point x="832" y="559" type="curve"/>
      <point x="805" y="396"/>
      <point x="721" y="294"/>
    </contour>
  </outline>
</glyph>
<glyph name="e" format="2">
  <advance height="2479" width="1245"/>
  <unicode hex="0065"/>
  <anchor x="529" y="0" name="bottom"/>
  <anchor x="535" y="0" name="cedilla"/>
  <anchor x="873" y="49" name="ogonek"/>
  <anchor x="745" y="1303" name="top"/>
  <outline>
    <contour>
      <point x="541" y="-20" type="curve"/>
      <point x="852" y="-20"/>
      <point x="1073" y="128"/>
      <point x="1152" y="361" type="curve"/>
      <point x="785" y="361" type="line"/>
      <point x="751" y="297"/>
      <point x="678" y="262"/>
      <point x="596" y="262" type="curve" smooth="yes"/>
      <point x="477" y="262"/>
      <point x="422" y="340"/>
      <point x="439" y="448" type="curve"/>
      <point x="483" y="681" type="line"/>
      <point x="503" y="783"/>
      <point x="591" y="849"/>
      <point x="689" y="849" type="curve" smooth="yes"/>
      <point x="788" y="849"/>
      <point x="849" y="783"/>
      <point x="835" y="687" type="curve"/>
      <point x="207" y="687" type="line"/>
      <point x="172" y="465" type="line"/>
      <point x="1169" y="465" type="line"/>
      <point x="1184" y="559" type="line" smooth="yes"/>
      <point x="1242" y="913"/>
      <point x="1062" y="1132"/>
      <point x="724" y="1132" type="curve" smooth="yes"/>
      <point x="378" y="1132"/>
      <point x="119" y="902"/>
      <point x="61" y="556" type="curve"/>
      <point x="0" y="195"/>
      <point x="183" y="-20"/>
    </contour>
  </outline>
</glyph>
<glyph name="h" format="2">
  <advance height="2479" width="1324"/>
  <unicode hex="0068"/>
  <anchor x="573" y="0" name="bottom"/>
  <anchor x="209" y="0" name="cedilla"/>
  <anchor x="416" y="1271" name="cross"/>
  <anchor x="483" y="1676" name="top"/>
  <outline>
    <contour>
      <point x="518" y="628" type="line" smooth="yes"/>
      <point x="535" y="739"/>
      <point x="611" y="806"/>
      <point x="710" y="806" type="curve" smooth="yes"/>
      <point x="812" y="806"/>
      <point x="858" y="739"/>
      <point x="841" y="628" type="curve" smooth="yes"/>
      <point x="736" y="0" type="line"/>
      <point x="1137" y="0" type="line"/>
      <point x="1257" y="713" type="line" smooth="yes"/>
      <point x="1297" y="957"/>
      <point x="1172" y="1132"/>
      <point x="937" y="1132" type="curve" smooth="yes"/>
      <point x="771" y="1132"/>
      <point x="634" y="1047"/>
      <point x="561" y="905" type="curve"/>
      <point x="550" y="905" type="line"/>
      <point x="646" y="1489" type="line"/>
      <point x="259" y="1489" type="line"/>
      <point x="12" y="0" type="line"/>
      <point x="413" y="0" type="line"/>
    </contour>
  </outline>
</glyph>
<glyph name="k" format="2">
  <advance height="2479" width="1245"/>
  <unicode hex="006B"/>
  <anchor x="538" y="0" name="bottom"/>
  <anchor x="492" y="1676" name="top"/>
  <outline>
    <contour>
      <point x="416" y="265" type="line"/>
      <point x="672" y="532" type="line"/>
      <point x="785" y="532" type="line"/>
      <point x="1335" y="1117" type="line"/>
      <point x="884" y="1117" type="line"/>
      <point x="550" y="742" type="line"/>
      <point x="497" y="742" type="line"/>
    </contour>
    <contour>
      <point x="12" y="0" type="line"/>
      <point x="413" y="0" type="line"/>
      <point x="660" y="1489" type="line"/>
      <point x="259" y="1489" type="line"/>
    </contour>
    <contour>
      <point x="701" y="0" type="line"/>
      <point x="1161" y="0" type="line"/>
      <point x="829" y="727" type="line"/>
      <point x="518" y="442" type="line"/>
    </contour>
  </outline>
</glyph>
<glyph name="s" format="2">
  <advance height="2479" width="1204"/>
  <unicode hex="0073"/>
  <anchor x="512" y="0" name="bottom"/>
  <anchor x="521" y="0" name="cedilla"/>
  <anchor x="730" y="1303" name="top"/>
  <outline>
    <contour>
      <point x="1152" y="753" type="line"/>
      <point x="1183" y="989"/>
      <point x="1001" y="1132"/>
      <point x="666" y="1132" type="curve" smooth="yes"/>
      <point x="359" y="1132"/>
      <point x="153" y="1014"/>
      <point x="116" y="791" type="curve" smooth="yes"/>
      <point x="85" y="605"/>
      <point x="189" y="481"/>
      <point x="410" y="442" type="curve" smooth="yes"/>
      <point x="602" y="407" type="line" smooth="yes"/>
      <point x="687" y="391"/>
      <point x="713" y="378"/>
      <point x="710" y="346" type="curve" smooth="yes"/>
      <point x="702" y="289"/>
      <point x="629" y="247"/>
      <point x="544" y="250" type="curve" smooth="yes"/>
      <point x="465" y="252"/>
      <point x="415" y="288"/>
      <point x="413" y="361" type="curve"/>
      <point x="23" y="361" type="line"/>
      <point x="8" y="134"/>
      <point x="186" y="-20"/>
      <point x="538" y="-20" type="curve" smooth="yes"/>
      <point x="838" y="-20"/>
      <point x="1078" y="117"/>
      <point x="1117" y="346" type="curve" smooth="yes"/>
      <point x="1145" y="521"/>
      <point x="1041" y="628"/>
      <point x="820" y="669" type="curve" smooth="yes"/>
      <point x="599" y="710" type="line" smooth="yes"/>
      <point x="517" y="726"/>
      <point x="507" y="745"/>
      <point x="512" y="768" type="curve" smooth="yes"/>
      <point x="520" y="825"/>
      <point x="595" y="864"/>
      <point x="675" y="864" type="curve" smooth="yes"/>
      <point x="743" y="864"/>
      <point x="796" y="823"/>
      <point x="791" y="753" type="curve"/>
    </contour>
  </outline>
</glyph>
<glyph name="v" format="2">
  <advance height="2479" width="1239"/>
  <unicode hex="0076"/>
  <anchor x="527" y="0" name="bottom"/>
  <anchor x="742" y="1303" name="top"/>
  <outline>
    <contour>
      <point x="1321" y="1117" type="line"/>
      <point x="884" y="1117" type="line"/>
      <point x="582" y="378" type="line"/>
      <point x="570" y="378" type="line"/>
      <point x="512" y="1117" type="line"/>
      <point x="105" y="1117" type="line"/>
      <point x="294" y="0" type="line"/>
      <point x="759" y="0" type="line"/>
    </contour>
  </outline>
</glyph>
<glyph name="x" format="2">
  <advance height="2479" width="1222"/>
  <unicode hex="0078"/>
  <anchor x="518" y="0" name="bottom"/>
  <anchor x="611" y="559" name="cross"/>
  <anchor x="1076" y="163" name="cyrtic"/>
  <anchor x="884" y="0" name="right"/>
  <anchor x="733" y="1303" name="top"/>
  <outline>
    <contour>
      <point x="541" y="1117" type="line"/>
      <point x="140" y="1117" type="line"/>
      <point x="343" y="559" type="line"/>
      <point x="-67" y="0" type="line"/>
      <point x="335" y="0" type="line"/>
      <point x="576" y="355" type="line"/>
      <point x="707" y="0" type="line"/>
      <point x="1103" y="0" type="line"/>
      <point x="881" y="559" type="line"/>
      <point x="1274" y="1117" type="line"/>
      <point x="876" y="1117" type="line"/>
      <point x="646" y="771" type="line"/>
    </contour>
  </outline>
</glyph>
<glyph name="z" format="2">
  <advance height="2479" width="1219"/>
  <unicode hex="007A"/>
  <anchor x="518" y="0" name="bottom"/>
  <anchor x="605" y="559" name="cross"/>
  <anchor x="730" y="1303" name="top"/>
  <outline>
    <contour>
      <point x="23" y="0" type="line"/>
      <point x="1007" y="0" type="line"/>
      <point x="1056" y="305" type="line"/>
      <point x="593" y="305" type="line"/>
      <point x="596" y="311" type="line"/>
      <point x="1135" y="873" type="line"/>
      <point x="1172" y="1117" type="line"/>
      <point x="227" y="1117" type="line"/>
      <point x="175" y="812" type="line"/>
      <point x="646" y="812" type="line"/>
      <point x="643" y="806" type="line"/>
      <point x="58" y="221" type="line"/>
    </contour>
  </outline>
</glyph>
<glyph name="braceleft" format="2">
  <advance height="2479" width="902"/>
  <unicode hex="007B"/>
  <outline>
    <contour>
      <point x="52" y="567" type="line"/>
      <point x="570" y="567"/>
      <point x="695" y="713"/>
      <point x="719" y="858" type="curve" smooth="yes"/>
      <point x="745" y="1018" type="line" smooth="yes"/>
      <point x="765" y="1140"/>
      <point x="797" y="1199"/>
      <point x="972" y="1199" type="curve"/>
      <point x="1021" y="1489" type="line"/>
      <point x="721" y="1489"/>
      <point x="428" y="1490"/>
      <point x="364" y="1071" type="curve" smooth="yes"/>
      <point x="346" y="957" type="line" smooth="yes"/>
      <point x="324" y="815"/>
      <point x="253" y="751"/>
      <point x="84" y="751" type="curve"/>
    </contour>
    <contour>
      <point x="719" y="-337" type="curve"/>
      <point x="768" y="-47" type="line"/>
      <point x="593" y="-47"/>
      <point x="579" y="12"/>
      <point x="599" y="134" type="curve" smooth="yes"/>
      <point x="625" y="294" type="line" smooth="yes"/>
      <point x="649" y="439"/>
      <point x="573" y="585"/>
      <point x="55" y="585" type="curve"/>
      <point x="26" y="401" type="line"/>
      <point x="198" y="401"/>
      <point x="240" y="337"/>
      <point x="218" y="195" type="curve" smooth="yes"/>
      <point x="201" y="81" type="line" smooth="yes"/>
      <point x="136" y="-338"/>
      <point x="419" y="-337"/>
    </contour>
    <contour>
      <point x="23" y="401" type="line"/>
      <point x="343" y="401" type="line"/>
      <point x="401" y="751" type="line"/>
      <point x="81" y="751" type="line"/>
    </contour>
  </outline>
</glyph>
<glyph name="asciitilde" format="2">
  <advance height="2479" width="1420"/>
  <unicode hex="007E"/>
  <outline>
    <contour>
      <point x="119" y="375" type="curve"/>
      <point x="410" y="375" type="line"/>
      <point x="425" y="492"/>
      <point x="480" y="538"/>
      <point x="541" y="538" type="curve" smooth="yes"/>
      <point x="591" y="538"/>
      <point x="605" y="515"/>
      <point x="652" y="468" type="curve" smooth="yes"/>
      <point x="737" y="383"/>
      <point x="809" y="346"/>
      <point x="905" y="346" type="curve" smooth="yes"/>
      <point x="1126" y="346"/>
      <point x="1280" y="538"/>
      <point x="1318" y="835" type="curve"/>
      <point x="1027" y="835" type="line"/>
      <point x="1009" y="719"/>
      <point x="954" y="672"/>
      <point x="893" y="672" type="curve" smooth="yes"/>
      <point x="844" y="672"/>
      <point x="820" y="701"/>
      <point x="780" y="742" type="curve" smooth="yes"/>
      <point x="687" y="835"/>
      <point x="617" y="864"/>
      <point x="529" y="864" type="curve" smooth="yes"/>
      <point x="300" y="864"/>
      <point x="154" y="675"/>
    </contour>
  </outline>
</glyph>
<glyph name="sterling" format="2">
  <advance height="2479" width="1431"/>
  <unicode hex="00A3"/>
  <outline>
    <contour>
      <point x="1204" y="0" type="line"/>
      <point x="1260" y="326" type="line"/>
      <point x="113" y="326" type="line"/>
      <point x="58" y="0" type="line"/>
    </contour>
    <contour>
      <point x="1033" y="602" type="line"/>
      <point x="1085" y="905" type="line"/>
      <point x="207" y="905" type="line"/>
      <point x="154" y="602" type="line"/>
    </contour>
    <contour>
      <point x="794" y="1088" type="line"/>
      <point x="804" y="1158"/>
      <point x="833" y="1196"/>
      <point x="893" y="1196" type="curve" smooth="yes"/>
      <point x="961" y="1196"/>
      <point x="1008" y="1175"/>
      <point x="998" y="1071" type="curve"/>
      <point x="1379" y="1088" type="line"/>
      <point x="1407" y="1359"/>
      <point x="1264" y="1510"/>
      <point x="943" y="1510" type="curve" smooth="yes"/>
      <point x="641" y="1510"/>
      <point x="423" y="1350"/>
      <point x="390" y="1088" type="curve" smooth="yes"/>
      <point x="308" y="448" type="line" smooth="yes"/>
      <point x="298" y="378"/>
      <point x="284" y="349"/>
      <point x="233" y="326" type="curve"/>
      <point x="422" y="204" type="line"/>
      <point x="615" y="271"/>
      <point x="697" y="337"/>
      <point x="716" y="477" type="curve" smooth="yes"/>
    </contour>
  </outline>
</glyph>
<glyph name="currency" format="2">
  <advance height="2479" width="1623"/>
  <unicode hex="00A4"/>
  <outline>
    <contour>
      <point x="719" y="-20" type="curve" smooth="yes"/>
      <point x="1057" y="-20"/>
      <point x="1386" y="253"/>
      <point x="1446" y="608" type="curve" smooth="yes"/>
      <point x="1503" y="963"/>
      <point x="1264" y="1233"/>
      <point x="925" y="1233" type="curve" smooth="yes"/>
      <point x="580" y="1233"/>
      <point x="255" y="963"/>
      <point x="198" y="608" type="curve"/>
      <point x="138" y="253"/>
      <point x="374" y="-20"/>
    </contour>
    <contour>
      <point x="753" y="189" type="curve" smooth="yes"/>
      <point x="513" y="189"/>
      <point x="359" y="369"/>
      <point x="401" y="608" type="curve"/>
      <point x="441" y="849"/>
      <point x="653" y="1027"/>
      <point x="893" y="1027" type="curve" smooth="yes"/>
      <point x="1124" y="1027"/>
      <point x="1284" y="849"/>
      <point x="1245" y="608" type="curve" smooth="yes"/>
      <point x="1203" y="369"/>
      <point x="985" y="189"/>
    </contour>
    <contour>
      <point x="1329" y="908" type="line"/>
      <point x="1577" y="1114" type="line"/>
      <point x="1446" y="1271" type="line"/>
      <point x="1201" y="1065" type="line"/>
    </contour>
    <contour>
      <point x="1228" y="-32" type="line"/>
      <point x="1411" y="125" type="line"/>
      <point x="1233" y="329" type="line"/>
      <point x="1053" y="175" type="line"/>
    </contour>
    <contour>
      <point x="204" y="-32" type="line"/>
      <point x="451" y="175" type="line"/>
      <point x="320" y="329" type="line"/>
      <point x="76" y="125" type="line"/>
    </contour>
    <contour>
      <point x="416" y="908" type="line"/>
      <point x="599" y="1065" type="line"/>
      <point x="422" y="1271" type="line"/>
      <point x="241" y="1114" type="line"/>
    </contour>
  </outline>
</glyph>
<glyph name="yen" format="2">
  <advance height="2479" width="1204"/>
  <unicode hex="00A5"/>
  <outline>
    <contour>
      <point x="588" y="1489" type="line"/>
      <point x="183" y="1489" type="line"/>
      <point x="431" y="561" type="line"/>
      <point x="730" y="791" type="line"/>
    </contour>
    <contour>
      <point x="559" y="803" type="line"/>
      <point x="771" y="561" type="line"/>
      <point x="1329" y="1489" type="line"/>
      <point x="925" y="1489" type="line"/>
    </contour>
    <contour>
      <point x="832" y="785" type="line"/>
      <point x="433" y="785" type="line"/>
      <point x="303" y="0" type="line"/>
      <point x="701" y="0" type="line"/>
    </contour>
    <contour>
      <point x="1105" y="785" type="line"/>
      <point x="122" y="785" type="line"/>
      <point x="87" y="573" type="line"/>
      <point x="1071" y="573" type="line"/>
    </contour>
    <contour>
      <point x="1059" y="497" type="line"/>
      <point x="76" y="497" type="line"/>
      <point x="38" y="285" type="line"/>
      <point x="1021" y="285" type="line"/>
    </contour>
  </outline>
</glyph>
<glyph name="section" format="2">
  <advance height="2479" width="1271"/>
  <unicode hex="00A7"/>
  <outline>
    <contour>
      <point x="1175" y="1108" type="line"/>
      <point x="1212" y="1338"/>
      <point x="1052" y="1510"/>
      <point x="777" y="1510" type="curve"/>
      <point x="505" y="1510"/>
      <point x="290" y="1341"/>
      <point x="253" y="1114" type="curve"/>
      <point x="232" y="989"/>
      <point x="270" y="896"/>
      <point x="340" y="817" type="curve"/>
      <point x="340" y="817" type="line"/>
      <point x="293" y="806"/>
      <point x="180" y="788"/>
      <point x="140" y="655" type="curve" smooth="yes"/>
      <point x="72" y="419"/>
      <point x="249" y="335"/>
      <point x="329" y="305" type="curve" smooth="yes"/>
      <point x="588" y="204" type="line" smooth="yes"/>
      <point x="628" y="186"/>
      <point x="697" y="148"/>
      <point x="689" y="96" type="curve" smooth="yes"/>
      <point x="680" y="49"/>
      <point x="613" y="35"/>
      <point x="561" y="32" type="curve" smooth="yes"/>
      <point x="459" y="23"/>
      <point x="412" y="58"/>
      <point x="422" y="116" type="curve"/>
      <point x="79" y="116" type="line"/>
      <point x="37" y="-134"/>
      <point x="206" y="-300"/>
      <point x="500" y="-300" type="curve" smooth="yes"/>
      <point x="779" y="-300"/>
      <point x="997" y="-143"/>
      <point x="1039" y="96" type="curve" smooth="yes"/>
      <point x="1058" y="218"/>
      <point x="1023" y="311"/>
      <point x="945" y="390" type="curve"/>
      <point x="954" y="393" type="line"/>
      <point x="988" y="401"/>
      <point x="1108" y="425"/>
      <point x="1149" y="556" type="curve" smooth="yes"/>
      <point x="1218" y="788"/>
      <point x="1038" y="873"/>
      <point x="966" y="902" type="curve" smooth="yes"/>
      <point x="704" y="1007" type="line"/>
      <point x="657" y="1018"/>
      <point x="587" y="1056"/>
      <point x="599" y="1114" type="curve" smooth="yes"/>
      <point x="607" y="1181"/>
      <point x="680" y="1181"/>
      <point x="721" y="1181" type="curve" smooth="yes"/>
      <point x="799" y="1181"/>
      <point x="840" y="1149"/>
      <point x="832" y="1108" type="curve"/>
    </contour>
    <contour>
      <point x="826" y="529" type="curve" smooth="yes"/>
      <point x="811" y="506"/>
      <point x="793" y="500"/>
      <point x="759" y="512" type="curve" smooth="yes"/>
      <point x="550" y="588" type="line" smooth="yes"/>
      <point x="465" y="617"/>
      <point x="444" y="657"/>
      <point x="460" y="681" type="curve"/>
      <point x="473" y="701"/>
      <point x="494" y="710"/>
      <point x="535" y="695" type="curve" smooth="yes"/>
      <point x="739" y="623" type="line" smooth="yes"/>
      <point x="825" y="591"/>
      <point x="843" y="556"/>
    </contour>
  </outline>
</glyph>
<glyph name="dieresis" format="2">
  <advance height="2479" width="1018"/>
  <unicode hex="00A8"/>
  <anchor x="631" y="1303" name="_top"/>
  <anchor x="695" y="1676" name="top"/>
  <outline>
    <contour>
      <point x="416" y="1248" type="curve" smooth="yes"/>
      <point x="500" y="1248"/>
      <point x="579" y="1312"/>
      <point x="591" y="1393" type="curve" smooth="yes"/>
      <point x="608" y="1498"/>
      <point x="535" y="1585"/>
      <point x="428" y="1585" type="curve" smooth="yes"/>
      <point x="340" y="1585"/>
      <point x="262" y="1521"/>
      <point x="247" y="1440" type="curve" smooth="yes"/>
      <point x="230" y="1335"/>
      <point x="305" y="1248"/>
    </contour>
    <contour>
      <point x="879" y="1248" type="curve" smooth="yes"/>
      <point x="963" y="1248"/>
      <point x="1041" y="1312"/>
      <point x="1053" y="1393" type="curve" smooth="yes"/>
      <point x="1071" y="1498"/>
      <point x="998" y="1585"/>
      <point x="890" y="1585" type="curve" smooth="yes"/>
      <point x="803" y="1585"/>
      <point x="724" y="1521"/>
      <point x="710" y="1440" type="curve" smooth="yes"/>
      <point x="692" y="1335"/>
      <point x="768" y="1248"/>
    </contour>
  </outline>
</glyph>
<glyph name="copyright" format="2">
  <advance height="2479" width="1873"/>
  <unicode hex="00A9"/>
  <outline>
    <contour>
      <point x="576" y="745" type="curve" smooth="yes"/>
      <point x="540" y="527"/>
      <point x="688" y="349"/>
      <point x="906" y="349" type="curve" smooth="yes"/>
      <point x="1100" y="349"/>
      <point x="1286" y="490"/>
      <point x="1335" y="675" type="curve"/>
      <point x="1092" y="675" type="line"/>
      <point x="1071" y="618"/>
      <point x="1006" y="582"/>
      <point x="935" y="582" type="curve" smooth="yes"/>
      <point x="839" y="582"/>
      <point x="793" y="653"/>
      <point x="809" y="746" type="curve" smooth="yes"/>
      <point x="825" y="845"/>
      <point x="905" y="908"/>
      <point x="999" y="908" type="curve" smooth="yes"/>
      <point x="1071" y="908"/>
      <point x="1113" y="872"/>
      <point x="1116" y="815" type="curve"/>
      <point x="1359" y="815" type="line"/>
      <point x="1370" y="999"/>
      <point x="1231" y="1140"/>
      <point x="1037" y="1140" type="curve" smooth="yes"/>
      <point x="819" y="1140"/>
      <point x="612" y="963"/>
    </contour>
    <component base="whiteCircle"/>
  </outline>
</glyph>
<glyph name="registered" format="2">
  <advance height="2479" width="1350"/>
  <unicode hex="00AE"/>
  <outline>
    <contour>
      <point x="480" y="666" type="line"/>
      <point x="634" y="666" type="line"/>
      <point x="704" y="1089" type="line"/>
      <point x="777" y="1089" type="line" smooth="yes"/>
      <point x="823" y="1089"/>
      <point x="845" y="1066"/>
      <point x="838" y="1021" type="curve" smooth="yes"/>
      <point x="831" y="979"/>
      <point x="801" y="956"/>
      <point x="755" y="956" type="curve" smooth="yes"/>
      <point x="611" y="956" type="line"/>
      <point x="593" y="845" type="line"/>
      <point x="762" y="845" type="line" smooth="yes"/>
      <point x="890" y="845"/>
      <point x="977" y="909"/>
      <point x="996" y="1021" type="curve" smooth="yes"/>
      <point x="1015" y="1132"/>
      <point x="951" y="1203"/>
      <point x="825" y="1203" type="curve" smooth="yes"/>
      <point x="569" y="1203" type="line"/>
    </contour>
    <contour>
      <point x="876" y="911" type="line"/>
      <point x="719" y="911" type="line"/>
      <point x="781" y="666" type="line"/>
      <point x="950" y="666" type="line"/>
    </contour>
    <contour>
      <point x="736" y="346" type="curve" smooth="yes"/>
      <point x="1059" y="346"/>
      <point x="1318" y="607"/>
      <point x="1318" y="928" type="curve" smooth="yes"/>
      <point x="1318" y="1249"/>
      <point x="1057" y="1510"/>
      <point x="736" y="1510" type="curve" smooth="yes"/>
      <point x="415" y="1510"/>
      <point x="154" y="1249"/>
      <point x="154" y="928" type="curve" smooth="yes"/>
      <point x="154" y="607"/>
      <point x="415" y="346"/>
    </contour>
    <contour>
      <point x="736" y="509" type="curve" smooth="yes"/>
      <point x="505" y="509"/>
      <point x="317" y="697"/>
      <point x="317" y="928" type="curve" smooth="yes"/>
      <point x="317" y="1159"/>
      <point x="505" y="1347"/>
      <point x="736" y="1347" type="curve" smooth="yes"/>
      <point x="967" y="1347"/>
      <point x="1155" y="1159"/>
      <point x="1155" y="928" type="curve" smooth="yes"/>
      <point x="1155" y="697"/>
      <point x="969" y="509"/>
    </contour>
  </outline>
</glyph>
<glyph name="macron" format="2">
  <advance height="2479" width="1318"/>
  <unicode hex="00AF"/>
  <anchor x="783" y="1303" name="_top"/>
  <outline>
    <contour>
      <point x="1175" y="1489" type="line"/>
      <point x="445" y="1489" type="line"/>
      <point x="416" y="1306" type="line"/>
      <point x="1146" y="1306" type="line"/>
    </contour>
  </outline>
</glyph>
<glyph name="degree" format="2">
  <advance height="2479" width="948"/>
  <unicode hex="00B0"/>
  <outline>
    <contour>
      <point x="567" y="753" type="curve" smooth="yes"/>
      <point x="773" y="753"/>
      <point x="940" y="920"/>
      <point x="940" y="1126" type="curve" smooth="yes"/>
      <point x="940" y="1332"/>
      <point x="773" y="1498"/>
      <point x="567" y="1498" type="curve" smooth="yes"/>
      <point x="361" y="1498"/>
      <point x="195" y="1332"/>
      <point x="195" y="1126" type="curve" smooth="yes"/>
      <point x="195" y="920"/>
      <point x="361" y="753"/>
    </contour>
    <contour>
      <point x="567" y="1001" type="curve" smooth="yes"/>
      <point x="498" y="1001"/>
      <point x="442" y="1057"/>
      <point x="442" y="1126" type="curve" smooth="yes"/>
      <point x="442" y="1195"/>
      <point x="498" y="1251"/>
      <point x="567" y="1251" type="curve" smooth="yes"/>
      <point x="636" y="1251"/>
      <point x="692" y="1195"/>
      <point x="692" y="1126" type="curve" smooth="yes"/>
      <point x="692" y="1057"/>
      <point x="636" y="1001"/>
    </contour>
  </outline>
</glyph>
<glyph name="plusminus" format="2">
  <advance height="2479" width="1420"/>
  <unicode hex="00B1"/>
  <outline>
    <contour>
      <point x="84" y="47" type="line"/>
      <point x="1167" y="47" type="line"/>
      <point x="1216" y="349" type="line"/>
      <point x="134" y="349" type="line"/>
    </contour>
    <contour>
      <point x="186" y="663" type="line"/>
      <point x="1268" y="663" type="line"/>
      <point x="1318" y="954" type="line"/>
      <point x="236" y="954" type="line"/>
    </contour>
    <contour>
      <point x="527" y="442" type="line"/>
      <point x="852" y="442" type="line"/>
      <point x="975" y="1175" type="line"/>
      <point x="649" y="1175" type="line"/>
    </contour>
  </outline>
</glyph>
<glyph name="twosuperior" format="2">
  <advance height="2479" width="870"/>
  <unicode hex="00B2"/>
  <anchor x="751" y="1239" name="cross"/>
  <outline>
    <contour>
      <point x="111" y="745" type="line"/>
      <point x="847" y="745" type="line"/>
      <point x="881" y="963" type="line"/>
      <point x="527" y="963" type="line"/>
      <point x="529" y="972" type="line"/>
      <point x="631" y="1021" type="line" smooth="yes"/>
      <point x="852" y="1129"/>
      <point x="925" y="1231"/>
      <point x="943" y="1350" type="curve" smooth="yes"/>
      <point x="966" y="1513"/>
      <point x="852" y="1649"/>
      <point x="614" y="1649" type="curve" smooth="yes"/>
      <point x="393" y="1649"/>
      <point x="215" y="1533"/>
      <point x="186" y="1335" type="curve"/>
      <point x="442" y="1335" type="line"/>
      <point x="457" y="1411"/>
      <point x="518" y="1440"/>
      <point x="588" y="1440" type="curve" smooth="yes"/>
      <point x="660" y="1440"/>
      <point x="710" y="1411"/>
      <point x="701" y="1353" type="curve" smooth="yes"/>
      <point x="689" y="1289"/>
      <point x="625" y="1257"/>
      <point x="553" y="1207" type="curve" smooth="yes"/>
      <point x="140" y="937" type="line"/>
    </contour>
  </outline>
</glyph>
<glyph name="paragraph" format="2">
  <advance height="2479" width="1263"/>
  <unicode hex="00B6"/>
  <outline>
    <contour>
      <point x="1044" y="1199" type="line"/>
      <point x="1094" y="1489" type="line"/>
      <point x="762" y="1489" type="line" smooth="yes"/>
      <point x="428" y="1489"/>
      <point x="215" y="1289"/>
      <point x="169" y="1021" type="curve" smooth="yes"/>
      <point x="125" y="751"/>
      <point x="273" y="553"/>
      <point x="608" y="553" type="curve" smooth="yes"/>
      <point x="695" y="553" type="line"/>
      <point x="800" y="1199" type="line"/>
    </contour>
    <contour>
      <point x="783" y="0" type="line"/>
      <point x="1073" y="0" type="line"/>
      <point x="1321" y="1489" type="line"/>
      <point x="1030" y="1489" type="line"/>
    </contour>
  </outline>
</glyph>
<glyph name="ordmasculine" format="2">
  <advance height="2479" width="1041"/>
  <unicode hex="00BA"/>
  <outline>
    <contour>
      <point x="239" y="1044" type="line"/>
      <point x="204" y="838"/>
      <point x="317" y="689"/>
      <point x="544" y="689" type="curve" smooth="yes"/>
      <point x="768" y="689"/>
      <point x="931" y="838"/>
      <point x="966" y="1044" type="curve"/>
      <point x="977" y="1120" type="line"/>
      <point x="1012" y="1329"/>
      <point x="896" y="1478"/>
      <point x="672" y="1478" type="curve" smooth="yes"/>
      <point x="451" y="1478"/>
      <point x="285" y="1329"/>
      <point x="250" y="1120" type="curve"/>
    </contour>
    <contour>
      <point x="433" y="1120" type="line"/>
      <point x="454" y="1236"/>
      <point x="529" y="1329"/>
      <point x="649" y="1329" type="curve" smooth="yes"/>
      <point x="771" y="1329"/>
      <point x="815" y="1236"/>
      <point x="794" y="1120" type="curve"/>
      <point x="783" y="1044" type="line"/>
      <point x="762" y="925"/>
      <point x="689" y="838"/>
      <point x="570" y="838" type="curve" smooth="yes"/>
      <point x="448" y="838"/>
      <point x="401" y="925"/>
      <point x="422" y="1044" type="curve"/>
    </contour>
  </outline>
</glyph>
<glyph name="AE" format="2">
  <advance height="2479" width="2164"/>
  <unicode hex="00C6"/>
  <anchor x="1539" y="1676" name="top"/>
  <outline>
    <contour>
      <point x="-47" y="0" type="line"/>
      <point x="399" y="0" type="line"/>
      <point x="972" y="1079" type="line"/>
      <point x="1073" y="1079" type="line"/>
      <point x="893" y="0" type="line"/>
      <point x="1964" y="0" type="line"/>
      <point x="2019" y="326" type="line"/>
      <point x="1353" y="326" type="line"/>
      <point x="1393" y="582" type="line"/>
      <point x="2007" y="582" type="line"/>
      <point x="2063" y="908" type="line"/>
      <point x="1449" y="908" type="line"/>
      <point x="1489" y="1164" type="line"/>
      <point x="2159" y="1164" type="line"/>
      <point x="2214" y="1489" type="line"/>
      <point x="783" y="1489" type="line"/>
    </contour>
    <contour>
      <point x="358" y="285" type="line"/>
      <point x="1178" y="285" type="line"/>
      <point x="1231" y="588" type="line"/>
      <point x="410" y="588" type="line"/>
    </contour>
  </outline>
</glyph>
<glyph name="Thorn" format="2">
  <advance height="2479" width="1428"/>
  <unicode hex="00DE"/>
  <outline>
    <contour>
      <point x="253" y="1489" type="line"/>
      <point x="6" y="0" type="line"/>
      <point x="410" y="0" type="line"/>
      <point x="657" y="1489" type="line"/>
    </contour>
    <contour>
      <point x="399" y="1239" type="line"/>
      <point x="349" y="940" type="line"/>
      <point x="739" y="940" type="line" smooth="yes"/>
      <point x="899" y="940"/>
      <point x="934" y="844"/>
      <point x="922" y="762" type="curve" smooth="yes"/>
      <point x="908" y="684"/>
      <point x="841" y="591"/>
      <point x="681" y="591" type="curve" smooth="yes"/>
      <point x="291" y="591" type="line"/>
      <point x="241" y="294" type="line"/>
      <point x="631" y="294" type="line" smooth="yes"/>
      <point x="1018" y="294"/>
      <point x="1263" y="486"/>
      <point x="1309" y="765" type="curve" smooth="yes"/>
      <point x="1356" y="1044"/>
      <point x="1175" y="1239"/>
      <point x="788" y="1239" type="curve" smooth="yes"/>
    </contour>
  </outline>
</glyph>
<glyph name="divide" format="2">
  <advance height="2479" width="1420"/>
  <unicode hex="00F7"/>
  <outline>
    <contour>
      <point x="1280" y="756" type="line"/>
      <point x="204" y="756" type="line"/>
      <point x="154" y="454" type="line"/>
      <point x="1231" y="454" type="line"/>
    </contour>
    <contour>
      <point x="634" y="-23" type="curve" smooth="yes"/>
      <point x="736" y="-23"/>
      <point x="829" y="58"/>
      <point x="847" y="160" type="curve" smooth="yes"/>
      <point x="868" y="285"/>
      <point x="785" y="387"/>
      <point x="660" y="387" type="curve" smooth="yes"/>
      <point x="559" y="387"/>
      <point x="463" y="308"/>
      <point x="445" y="207" type="curve" smooth="yes"/>
      <point x="424" y="81"/>
      <point x="509" y="-23"/>
    </contour>
    <contour>
      <point x="777" y="823" type="curve" smooth="yes"/>
      <point x="879" y="823"/>
      <point x="972" y="905"/>
      <point x="986" y="1007" type="curve" smooth="yes"/>
      <point x="1004" y="1132"/>
      <point x="925" y="1233"/>
      <point x="800" y="1233" type="curve" smooth="yes"/>
      <point x="698" y="1233"/>
      <point x="602" y="1155"/>
      <point x="585" y="1053" type="curve" smooth="yes"/>
      <point x="564" y="928"/>
      <point x="652" y="823"/>
    </contour>
  </outline>
</glyph>
<glyph name="dcroat" format="2">
  <advance height="2479" width="1321"/>
  <unicode hex="0111"/>
  <anchor x="569" y="0" name="bottom"/>
  <anchor x="1143" y="1280" name="cross"/>
  <anchor x="1495" y="1489" name="raccent"/>
  <anchor x="710" y="1489" name="top"/>
  <outline>
    <contour>
      <point x="649" y="1181" type="line"/>
      <point x="1432" y="1181" type="line"/>
      <point x="1470" y="1396" type="line"/>
      <point x="687" y="1396" type="line"/>
    </contour>
    <component base="d"/>
  </outline>
</glyph>
<glyph name="idotless" format="2">
  <advance height="2479" width="605"/>
  <unicode hex="0131"/>
  <anchor x="212" y="0" name="bottom"/>
  <anchor x="311" y="611" name="cross"/>
  <anchor x="410" y="0" name="ogonek"/>
  <anchor x="425" y="1303" name="top"/>
  <outline>
    <contour>
      <point x="9" y="0" type="line"/>
      <point x="410" y="0" type="line"/>
      <point x="596" y="1117" type="line"/>
      <point x="195" y="1117" type="line"/>
    </contour>
  </outline>
</glyph>
<glyph name="kgreenlandic" format="2">
  <advance height="2479" width="1245"/>
  <unicode hex="0138"/>
  <outline>
    <contour>
      <point x="416" y="265" type="line"/>
      <point x="672" y="532" type="line"/>
      <point x="785" y="532" type="line"/>
      <point x="1335" y="1117" type="line"/>
      <point x="884" y="1117" type="line"/>
      <point x="550" y="742" type="line"/>
      <point x="497" y="742" type="line"/>
    </contour>
    <contour>
      <point x="12" y="0" type="line"/>
      <point x="413" y="0" type="line"/>
      <point x="598" y="1117" type="line"/>
      <point x="196" y="1117" type="line"/>
    </contour>
    <contour>
      <point x="701" y="0" type="line"/>
      <point x="1161" y="0" type="line"/>
      <point x="829" y="727" type="line"/>
      <point x="518" y="442" type="line"/>
    </contour>
  </outline>
</glyph>
<glyph name="lslash" format="2">
  <advance height="2479" width="605"/>
  <unicode hex="0142"/>
  <anchor x="215" y="0" name="bottom"/>
  <anchor x="340" y="768" name="cross"/>
  <anchor x="777" y="1489" name="raccent"/>
  <anchor x="492" y="1676" name="top"/>
  <outline>
    <contour>
      <point x="701" y="995" type="line"/>
      <point x="17" y="806" type="line"/>
      <point x="-15" y="605" type="line"/>
      <point x="666" y="794" type="line"/>
    </contour>
    <component base="l"/>
  </outline>
</glyph>
<glyph name="eng" format="2">
  <advance height="2479" width="1332"/>
  <unicode hex="014B"/>
  <anchor x="573" y="0" name="bottom"/>
  <anchor x="788" y="1303" name="top"/>
  <outline>
    <contour>
      <point x="740" y="23" type="line"/>
      <point x="735" y="-7" type="line" smooth="yes"/>
      <point x="723" y="-63"/>
      <point x="682" y="-96"/>
      <point x="604" y="-96" type="curve" smooth="yes"/>
      <point x="560" y="-96"/>
      <point x="525" y="-90"/>
      <point x="490" y="-81" type="curve"/>
      <point x="403" y="-404" type="line"/>
      <point x="467" y="-416"/>
      <point x="528" y="-419"/>
      <point x="595" y="-419" type="curve" smooth="yes"/>
      <point x="883" y="-419"/>
      <point x="1081" y="-320"/>
      <point x="1136" y="-6" type="curve" smooth="yes"/>
      <point x="1142" y="28" type="line"/>
    </contour>
    <component base="n"/>
  </outline>
</glyph>
<glyph name="OE" format="2">
  <advance height="2479" width="2175"/>
  <unicode hex="0152"/>
  <anchor x="1445" y="0" name="bottom"/>
  <anchor x="1448" y="0" name="cedilla"/>
  <anchor x="1974" y="0" name="ogonek"/>
  <anchor x="1110" y="1489" name="tonos"/>
  <anchor x="1724" y="1676" name="top"/>
  <outline>
    <contour>
      <point x="689" y="0" type="curve"/>
      <point x="1055" y="0" type="line"/>
      <point x="1111" y="326" type="line"/>
      <point x="744" y="326" type="line"/>
      <point x="582" y="326"/>
      <point x="477" y="413"/>
      <point x="532" y="742" type="curve"/>
      <point x="585" y="1068"/>
      <point x="719" y="1164"/>
      <point x="881" y="1164" type="curve"/>
      <point x="1247" y="1164" type="line"/>
      <point x="1303" y="1489" type="line"/>
      <point x="936" y="1489" type="line"/>
      <point x="550" y="1489"/>
      <point x="204" y="1251"/>
      <point x="121" y="742" type="curve"/>
      <point x="38" y="236"/>
      <point x="303" y="0"/>
    </contour>
    <component base="E" xOffset="901"/>
  </outline>
</glyph>
<glyph name="tbar" format="2">
  <advance height="2479" width="830"/>
  <unicode hex="0167"/>
  <anchor x="363" y="0" name="bottom"/>
  <anchor x="478" y="0" name="cedilla"/>
  <anchor x="874" y="1562" name="raccent"/>
  <anchor x="539" y="1542" name="top"/>
  <outline>
    <contour>
      <point x="27" y="527" type="line"/>
      <point x="763" y="527" type="line"/>
      <point x="789" y="684" type="line"/>
      <point x="53" y="684" type="line"/>
    </contour>
    <component base="t" xOffset="1"/>
  </outline>
</glyph>
<glyph name="Btopbar" format="2">
  <advance height="2479" width="1345"/>
  <unicode hex="0182"/>
  <outline>
    <contour>
      <point x="3" y="0" type="line"/>
      <point x="559" y="0" type="line" smooth="yes"/>
      <point x="935" y="0"/>
      <point x="1218" y="204"/>
      <point x="1268" y="500" type="curve" smooth="yes"/>
      <point x="1316" y="797"/>
      <point x="1098" y="989"/>
      <point x="724" y="989" type="curve" smooth="yes"/>
      <point x="573" y="989" type="line"/>
      <point x="599" y="1164" type="line"/>
      <point x="1242" y="1164" type="line"/>
      <point x="1297" y="1489" type="line"/>
      <point x="250" y="1489" type="line"/>
    </contour>
    <contour>
      <point x="460" y="317" type="line"/>
      <point x="521" y="681" type="line"/>
      <point x="672" y="681" type="line" smooth="yes"/>
      <point x="817" y="681"/>
      <point x="884" y="605"/>
      <point x="867" y="503" type="curve" smooth="yes"/>
      <point x="849" y="396"/>
      <point x="757" y="317"/>
      <point x="611" y="317" type="curve" smooth="yes"/>
    </contour>
  </outline>
</glyph>
<glyph name="btopbar" format="2">
  <advance height="2479" width="1321"/>
  <unicode hex="0183"/>
  <anchor x="538" y="0" name="bottom"/>
  <anchor x="413" y="1280" name="cross"/>
  <anchor x="954" y="1303" name="top"/>
  <outline>
    <contour>
      <point x="1242" y="1489" type="line" name="hr00"/>
      <point x="454" y="1489" type="line"/>
      <point x="407" y="1225" type="line"/>
      <point x="1199" y="1225" type="line"/>
    </contour>
    <component base="b"/>
  </outline>
</glyph>
<glyph name="chook" format="2">
  <advance height="2479" width="1361"/>
  <unicode hex="0188"/>
  <anchor x="550" y="0" name="cedilla"/>
  <anchor x="765" y="1303" name="top"/>
  <outline>
    <contour>
      <point x="1199" y="652" type="line"/>
      <point x="1231" y="835" type="line" smooth="yes"/>
      <point x="1245" y="928"/>
      <point x="1280" y="969"/>
      <point x="1361" y="969" type="curve" smooth="yes"/>
      <point x="1396" y="969"/>
      <point x="1420" y="963"/>
      <point x="1452" y="960" type="curve"/>
      <point x="1492" y="1201" type="line"/>
      <point x="1440" y="1216"/>
      <point x="1393" y="1225"/>
      <point x="1347" y="1225" type="curve" smooth="yes"/>
      <point x="1108" y="1225"/>
      <point x="908" y="1085"/>
      <point x="867" y="838" type="curve" smooth="yes"/>
      <point x="835" y="652" type="line"/>
    </contour>
    <component base="c"/>
  </outline>
</glyph>
<glyph name="Dhook" format="2">
  <advance height="2479" width="1997"/>
  <unicode hex="018A"/>
  <anchor x="1078" y="0" name="bottom"/>
  <anchor x="831" y="788" name="cross"/>
  <anchor x="1276" y="1676" name="top"/>
  <outline>
    <contour>
      <point x="106" y="870" type="line"/>
      <point x="461" y="870" type="line"/>
      <point x="479" y="977" type="line" smooth="yes"/>
      <point x="493" y="1065"/>
      <point x="539" y="1146"/>
      <point x="662" y="1146" type="curve" smooth="yes"/>
      <point x="927" y="1146" type="line" name="hr00"/>
      <point x="985" y="1489" type="line"/>
      <point x="720" y="1489" type="line" smooth="yes"/>
      <point x="408" y="1489"/>
      <point x="181" y="1329"/>
      <point x="136" y="1047" type="curve" smooth="yes"/>
    </contour>
    <component base="D" xOffset="496"/>
  </outline>
</glyph>
<glyph name="dtopbar" format="2">
  <advance height="2479" width="1321"/>
  <unicode hex="018C"/>
  <anchor x="596" y="0" name="bottom"/>
  <anchor x="1146" y="1280" name="cross"/>
  <anchor x="612" y="1303" name="top"/>
  <outline>
    <contour>
      <point x="387" y="1489" type="line" name="hr00"/>
      <point x="343" y="1225" type="line"/>
      <point x="1132" y="1225" type="line"/>
      <point x="1175" y="1489" type="line"/>
    </contour>
    <contour>
      <point x="1132" y="0" type="line"/>
      <point x="1379" y="1489" type="line"/>
      <point x="977" y="1489" type="line"/>
      <point x="883" y="922" type="line"/>
      <point x="877" y="922" type="line"/>
      <point x="853" y="1036"/>
      <point x="764" y="1132"/>
      <point x="598" y="1132" type="curve" smooth="yes"/>
      <point x="377" y="1132"/>
      <point x="134" y="963"/>
      <point x="67" y="559" type="curve"/>
      <point x="3" y="172"/>
      <point x="173" y="-15"/>
      <point x="412" y="-15" type="curve" smooth="yes"/>
      <point x="569" y="-15"/>
      <point x="690" y="70"/>
      <point x="755" y="183" type="curve"/>
      <point x="764" y="183" type="line"/>
      <point x="733" y="0" type="line"/>
    </contour>
    <contour>
      <point x="832" y="559" type="curve"/>
      <point x="805" y="396"/>
      <point x="721" y="294"/>
      <point x="611" y="294" type="curve" smooth="yes"/>
      <point x="500" y="294"/>
      <point x="452" y="393"/>
      <point x="480" y="559" type="curve" smooth="yes"/>
      <point x="508" y="724"/>
      <point x="588" y="823"/>
      <point x="698" y="823" type="curve" smooth="yes"/>
      <point x="809" y="823"/>
      <point x="860" y="724"/>
    </contour>
  </outline>
</glyph>
<glyph name="deltaturned" format="2">
  <advance height="2479" width="1246"/>
  <unicode hex="018D"/>
  <outline>
    <contour>
      <point x="456" y="-448" type="curve" smooth="yes"/>
      <point x="722" y="-448"/>
      <point x="909" y="-336"/>
      <point x="937" y="-159" type="curve" smooth="yes"/>
      <point x="957" y="-36"/>
      <point x="914" y="55"/>
      <point x="800" y="132" type="curve"/>
      <point x="803" y="143" type="line"/>
      <point x="998" y="191"/>
      <point x="1152" y="364"/>
      <point x="1189" y="585" type="curve" smooth="yes"/>
      <point x="1245" y="923"/>
      <point x="1029" y="1132"/>
      <point x="700" y="1132" type="curve" smooth="yes"/>
      <point x="362" y="1132"/>
      <point x="120" y="913"/>
      <point x="67" y="592" type="curve" smooth="yes"/>
      <point x="10" y="248"/>
      <point x="203" y="67"/>
      <point x="447" y="-9" type="curve" smooth="yes"/>
      <point x="541" y="-48"/>
      <point x="551" y="-68"/>
      <point x="549" y="-86" type="curve" smooth="yes"/>
      <point x="540" y="-137"/>
      <point x="487" y="-172"/>
      <point x="393" y="-172" type="curve" smooth="yes"/>
      <point x="344" y="-172"/>
      <point x="261" y="-166"/>
      <point x="205" y="-141" type="curve"/>
      <point x="184" y="-404" type="line"/>
      <point x="276" y="-432"/>
      <point x="357" y="-448"/>
    </contour>
    <contour>
      <point x="550" y="259" type="curve"/>
      <point x="444" y="281"/>
      <point x="446" y="403"/>
      <point x="474" y="576" type="curve" smooth="yes"/>
      <point x="488" y="655"/>
      <point x="532" y="838"/>
      <point x="688" y="838" type="curve" smooth="yes"/>
      <point x="821" y="838"/>
      <point x="796" y="689"/>
      <point x="778" y="589" type="curve" smooth="yes"/>
      <point x="748" y="401"/>
      <point x="690" y="262"/>
    </contour>
  </outline>
</glyph>
<glyph name="florin" format="2">
  <advance height="2479" width="1073"/>
  <unicode hex="0192"/>
  <outline>
    <contour>
      <point x="1015" y="1082" type="line"/>
      <point x="788" y="1082" type="line"/>
      <point x="800" y="1161" type="line" smooth="yes"/>
      <point x="813" y="1228"/>
      <point x="871" y="1263"/>
      <point x="948" y="1263" type="curve" smooth="yes"/>
      <point x="1005" y="1263"/>
      <point x="1031" y="1260"/>
      <point x="1062" y="1254" type="curve"/>
      <point x="1129" y="1539" type="line"/>
      <point x="1072" y="1548"/>
      <point x="1025" y="1556"/>
      <point x="957" y="1556" type="curve" smooth="yes"/>
      <point x="659" y="1556"/>
      <point x="464" y="1420"/>
      <point x="419" y="1161" type="curve" smooth="yes"/>
      <point x="407" y="1082" type="line"/>
      <point x="247" y="1082" type="line"/>
      <point x="204" y="815" type="line"/>
      <point x="364" y="815" type="line"/>
      <point x="230" y="6" type="line" smooth="yes"/>
      <point x="217" y="-70"/>
      <point x="202" y="-119"/>
      <point x="102" y="-119" type="curve" smooth="yes"/>
      <point x="71" y="-119"/>
      <point x="36" y="-113"/>
      <point x="12" y="-108" type="curve"/>
      <point x="-52" y="-404" type="line"/>
      <point x="13" y="-416"/>
      <point x="63" y="-419"/>
      <point x="119" y="-419" type="curve" smooth="yes"/>
      <point x="383" y="-419"/>
      <point x="565" y="-271"/>
      <point x="611" y="6" type="curve" smooth="yes"/>
      <point x="745" y="815" type="line"/>
      <point x="972" y="815" type="line"/>
    </contour>
  </outline>
</glyph>
<glyph name="Khook" format="2">
  <advance height="2479" width="1571"/>
  <unicode hex="0198"/>
  <outline>
    <contour>
      <point x="3" y="0" type="line"/>
      <point x="407" y="0" type="line"/>
      <point x="460" y="320" type="line"/>
      <point x="669" y="503" type="line"/>
      <point x="972" y="0" type="line"/>
      <point x="1455" y="0" type="line"/>
      <point x="977" y="791" type="line"/>
      <point x="1332" y="1097" type="line" smooth="yes"/>
      <point x="1402" y="1156"/>
      <point x="1452" y="1196"/>
      <point x="1539" y="1152" type="curve"/>
      <point x="1705" y="1434" type="line"/>
      <point x="1492" y="1562"/>
      <point x="1281" y="1520"/>
      <point x="1073" y="1341" type="curve" smooth="yes"/>
      <point x="579" y="913" type="line"/>
      <point x="559" y="913" type="line"/>
      <point x="655" y="1489" type="line"/>
      <point x="250" y="1489" type="line"/>
    </contour>
  </outline>
</glyph>
<glyph name="lambdastroke" format="2">
  <advance height="2479" width="1274"/>
  <unicode hex="019B"/>
  <outline>
    <contour>
      <point x="275" y="892" type="line"/>
      <point x="1031" y="1110" type="line"/>
      <point x="1068" y="1322" type="line"/>
      <point x="310" y="1110" type="line"/>
    </contour>
    <component base="lambda"/>
  </outline>
</glyph>
<glyph name="Nhookleft" format="2">
  <advance height="2479" width="1533"/>
  <unicode hex="019D"/>
  <anchor x="701" y="0" name="bottom"/>
  <anchor x="1413" y="0" name="right"/>
  <anchor x="980" y="1676" name="top"/>
  <outline>
    <contour>
      <point x="55" y="0" type="line"/>
      <point x="49" y="-35" type="line" smooth="yes"/>
      <point x="39" y="-103"/>
      <point x="-42" y="-116"/>
      <point x="-114" y="-116" type="curve"/>
      <point x="-132" y="-116"/>
      <point x="-164" y="-119"/>
      <point x="-181" y="-116" type="curve"/>
      <point x="-231" y="-413" type="line"/>
      <point x="-193" y="-419"/>
      <point x="-100" y="-419"/>
      <point x="-59" y="-419" type="curve"/>
      <point x="150" y="-419"/>
      <point x="394" y="-388"/>
      <point x="453" y="-35" type="curve" smooth="yes"/>
      <point x="459" y="0" type="line"/>
    </contour>
    <component base="N" xOffset="52"/>
  </outline>
</glyph>
<glyph name="Phook" format="2">
  <advance height="2479" width="1837"/>
  <unicode hex="01A4"/>
  <anchor x="723" y="1489" name="tonos"/>
  <anchor x="1337" y="1676" name="top"/>
  <outline>
    <contour>
      <point x="461" y="870" type="line"/>
      <point x="479" y="977" type="line" smooth="yes"/>
      <point x="493" y="1065"/>
      <point x="543" y="1167"/>
      <point x="668" y="1167" type="curve" smooth="yes"/>
      <point x="933" y="1167" type="line" name="hr00"/>
      <point x="985" y="1489" type="line"/>
      <point x="720" y="1489" type="line" smooth="yes"/>
      <point x="406" y="1489"/>
      <point x="181" y="1329"/>
      <point x="136" y="1047" type="curve" smooth="yes"/>
      <point x="106" y="870" type="line"/>
    </contour>
    <component base="P" xOffset="493"/>
  </outline>
</glyph>
<glyph name="Yr" format="2">
  <advance height="2479" width="1594"/>
  <unicode hex="01A6"/>
  <outline>
    <contour>
      <point x="239" y="294" type="line"/>
      <point x="628" y="294" type="line" smooth="yes"/>
      <point x="1015" y="294"/>
      <point x="1260" y="486"/>
      <point x="1306" y="765" type="curve" smooth="yes"/>
      <point x="1353" y="1044"/>
      <point x="1172" y="1239"/>
      <point x="785" y="1239" type="curve" smooth="yes"/>
      <point x="396" y="1239" type="line"/>
      <point x="346" y="940" type="line"/>
      <point x="736" y="940" type="line" smooth="yes"/>
      <point x="896" y="940"/>
      <point x="931" y="844"/>
      <point x="919" y="762" type="curve" smooth="yes"/>
      <point x="905" y="684"/>
      <point x="838" y="591"/>
      <point x="678" y="591" type="curve" smooth="yes"/>
      <point x="288" y="591" type="line"/>
    </contour>
    <contour>
      <point x="969" y="-419" type="line"/>
      <point x="1408" y="-419" type="line"/>
      <point x="1084" y="442" type="line"/>
      <point x="653" y="442" type="line"/>
    </contour>
    <contour>
      <point x="3" y="0" type="line"/>
      <point x="407" y="0" type="line"/>
      <point x="655" y="1489" type="line"/>
      <point x="250" y="1489" type="line"/>
    </contour>
  </outline>
</glyph>
<glyph name="tonetwo" format="2">
  <advance height="2479" width="1207"/>
  <unicode hex="01A8"/>
  <outline>
    <contour>
      <point x="516" y="-20" type="curve" smooth="yes"/>
      <point x="847" y="-20"/>
      <point x="1058" y="132"/>
      <point x="1118" y="361" type="curve"/>
      <point x="721" y="361" type="line"/>
      <point x="699" y="289"/>
      <point x="617" y="250"/>
      <point x="516" y="250" type="curve" smooth="yes"/>
      <point x="453" y="250"/>
      <point x="412" y="263"/>
      <point x="420" y="308" type="curve" smooth="yes"/>
      <point x="427" y="353"/>
      <point x="473" y="385"/>
      <point x="572" y="401" type="curve" smooth="yes"/>
      <point x="776" y="436" type="line" smooth="yes"/>
      <point x="1009" y="477"/>
      <point x="1131" y="579"/>
      <point x="1156" y="742" type="curve" smooth="yes"/>
      <point x="1199" y="988"/>
      <point x="1015" y="1132"/>
      <point x="686" y="1132" type="curve" smooth="yes"/>
      <point x="372" y="1132"/>
      <point x="165" y="990"/>
      <point x="116" y="753" type="curve"/>
      <point x="482" y="753" type="line"/>
      <point x="499" y="822"/>
      <point x="584" y="864"/>
      <point x="673" y="864" type="curve" smooth="yes"/>
      <point x="732" y="864"/>
      <point x="777" y="851"/>
      <point x="770" y="803" type="curve" smooth="yes"/>
      <point x="763" y="761"/>
      <point x="723" y="730"/>
      <point x="635" y="716" type="curve" smooth="yes"/>
      <point x="401" y="675" type="line" smooth="yes"/>
      <point x="167" y="633"/>
      <point x="52" y="548"/>
      <point x="25" y="396" type="curve" smooth="yes"/>
      <point x="-15" y="143"/>
      <point x="196" y="-20"/>
    </contour>
  </outline>
</glyph>
<glyph name="eshreversedloop" format="2">
  <advance height="2479" width="1489"/>
  <unicode hex="01AA"/>
  <outline>
    <contour>
      <point x="768" y="896" type="line"/>
      <point x="621" y="7" type="line" smooth="yes"/>
      <point x="573" y="-284"/>
      <point x="725" y="-444"/>
      <point x="1002" y="-444" type="curve" smooth="yes"/>
      <point x="1068" y="-444"/>
      <point x="1121" y="-441"/>
      <point x="1180" y="-429" type="curve"/>
      <point x="1226" y="-135" type="line"/>
      <point x="1182" y="-141"/>
      <point x="1153" y="-144"/>
      <point x="1119" y="-144" type="curve" smooth="yes"/>
      <point x="1028" y="-144"/>
      <point x="980" y="-89"/>
      <point x="996" y="7" type="curve" smooth="yes"/>
      <point x="1178" y="1100" type="line"/>
    </contour>
    <contour>
      <point x="239" y="1100" type="curve" smooth="yes"/>
      <point x="198" y="846"/>
      <point x="375" y="643"/>
      <point x="631" y="643" type="curve" smooth="yes"/>
      <point x="889" y="643"/>
      <point x="1137" y="849"/>
      <point x="1178" y="1100" type="curve" smooth="yes"/>
      <point x="1219" y="1347"/>
      <point x="1041" y="1556"/>
      <point x="783" y="1556" type="curve" smooth="yes"/>
      <point x="523" y="1556"/>
      <point x="279" y="1347"/>
    </contour>
    <contour>
      <point x="687" y="954" type="curve" smooth="yes"/>
      <point x="599" y="954"/>
      <point x="543" y="1004"/>
      <point x="561" y="1103" type="curve" smooth="yes"/>
      <point x="578" y="1195"/>
      <point x="645" y="1245"/>
      <point x="733" y="1245" type="curve" smooth="yes"/>
      <point x="808" y="1245"/>
      <point x="866" y="1199"/>
      <point x="852" y="1103" type="curve" smooth="yes"/>
      <point x="838" y="1003"/>
      <point x="764" y="954"/>
    </contour>
  </outline>
</glyph>
<glyph name="tpalatalhook" format="2">
  <advance height="2479" width="839"/>
  <unicode hex="01AB"/>
  <anchor x="362" y="0" name="bottom"/>
  <anchor x="477" y="0" name="cedilla"/>
  <anchor x="873" y="1562" name="raccent"/>
  <anchor x="538" y="1542" name="top"/>
  <outline>
    <contour>
      <point x="503" y="268" type="line"/>
      <point x="454" y="-35" type="line" smooth="yes"/>
      <point x="436" y="-143"/>
      <point x="319" y="-160"/>
      <point x="250" y="-160" type="curve" smooth="yes"/>
      <point x="212" y="-160"/>
      <point x="185" y="-157"/>
      <point x="157" y="-154" type="curve"/>
      <point x="119" y="-399" type="line"/>
      <point x="171" y="-410"/>
      <point x="212" y="-416"/>
      <point x="268" y="-416" type="curve" smooth="yes"/>
      <point x="503" y="-416"/>
      <point x="661" y="-279"/>
      <point x="701" y="-35" type="curve" smooth="yes"/>
      <point x="759" y="320" type="line"/>
    </contour>
    <component base="t"/>
  </outline>
</glyph>
<glyph name="uhorn" format="2">
  <advance height="2479" width="1568"/>
  <unicode hex="01B0"/>
  <anchor x="631" y="0" name="bottom"/>
  <anchor x="1145" y="0" name="ogonek"/>
  <anchor x="799" y="1303" name="top"/>
  <outline>
    <contour>
      <point x="1501" y="1187" type="line"/>
      <point x="1473" y="1012"/>
      <point x="1424" y="922"/>
      <point x="1204" y="922" type="curve"/>
      <point x="1178" y="771" type="line"/>
      <point x="1517" y="771"/>
      <point x="1654" y="913"/>
      <point x="1699" y="1187" type="curve"/>
    </contour>
    <component base="u" xOffset="9"/>
  </outline>
</glyph>
<glyph name="Yhook" format="2">
  <advance height="2479" width="1731"/>
  <unicode hex="01B3"/>
  <outline>
    <contour>
      <point x="890" y="849" type="line"/>
      <point x="925" y="849" type="line"/>
      <point x="931" y="884" type="line"/>
      <point x="896" y="884" type="line"/>
    </contour>
    <contour>
      <point x="207" y="1489" type="line"/>
      <point x="657" y="550" type="line"/>
      <point x="564" y="0" type="line"/>
      <point x="966" y="0" type="line"/>
      <point x="1059" y="550" type="line"/>
      <point x="1484" y="1068" type="line" smooth="yes"/>
      <point x="1568" y="1171"/>
      <point x="1616" y="1204"/>
      <point x="1728" y="1172" type="curve"/>
      <point x="1859" y="1469" type="line"/>
      <point x="1660" y="1542"/>
      <point x="1409" y="1521"/>
      <point x="1216" y="1268" type="curve" smooth="yes"/>
      <point x="911" y="870" type="line"/>
      <point x="640" y="1489" type="line"/>
    </contour>
  </outline>
</glyph>
<glyph name="yhook" format="2">
  <advance height="2479" width="1313"/>
  <unicode hex="01B4"/>
  <outline>
    <contour>
      <point x="185" y="-419" type="curve" smooth="yes"/>
      <point x="465" y="-419"/>
      <point x="639" y="-279"/>
      <point x="727" y="-93" type="curve" smooth="yes"/>
      <point x="1242" y="991" type="line" smooth="yes"/>
      <point x="1257" y="1022"/>
      <point x="1276" y="1040"/>
      <point x="1297" y="1049" type="curve" smooth="yes"/>
      <point x="1313" y="1056"/>
      <point x="1337" y="1057"/>
      <point x="1369" y="1050" type="curve"/>
      <point x="1482" y="1366" type="line"/>
      <point x="1428" y="1380"/>
      <point x="1360" y="1388"/>
      <point x="1289" y="1388" type="curve" smooth="yes"/>
      <point x="1107" y="1388"/>
      <point x="966" y="1274"/>
      <point x="879" y="1068" type="curve" smooth="yes"/>
      <point x="572" y="343" type="line"/>
      <point x="560" y="343" type="line"/>
      <point x="509" y="1117" type="line"/>
      <point x="105" y="1117" type="line"/>
      <point x="304" y="-49" type="line"/>
      <point x="291" y="-70" type="line" smooth="yes"/>
      <point x="252" y="-131"/>
      <point x="177" y="-129"/>
      <point x="84" y="-95" type="curve"/>
      <point x="-51" y="-380" type="line"/>
      <point x="7" y="-404"/>
      <point x="92" y="-419"/>
    </contour>
  </outline>
</glyph>
<glyph name="Ezhreversed" format="2">
  <advance height="2479" width="1410"/>
  <unicode hex="01B8"/>
  <anchor x="889" y="1676" name="top"/>
  <outline>
    <contour>
      <point x="1286" y="137" type="curve"/>
      <point x="879" y="137" type="line"/>
      <point x="849" y="-9"/>
      <point x="735" y="-108"/>
      <point x="602" y="-108" type="curve" smooth="yes"/>
      <point x="447" y="-108"/>
      <point x="383" y="26"/>
      <point x="415" y="214" type="curve" smooth="yes"/>
      <point x="449" y="425"/>
      <point x="582" y="553"/>
      <point x="735" y="553" type="curve" smooth="yes"/>
      <point x="929" y="553" type="line"/>
      <point x="976" y="832" type="line"/>
      <point x="668" y="1146" type="line"/>
      <point x="669" y="1158" type="line"/>
      <point x="1373" y="1158" type="line"/>
      <point x="1428" y="1489" type="line"/>
      <point x="239" y="1489" type="line"/>
      <point x="191" y="1199" type="line"/>
      <point x="582" y="806" type="line"/>
      <point x="579" y="791" type="line"/>
      <point x="274" y="759"/>
      <point x="42" y="534"/>
      <point x="-9" y="221" type="curve" smooth="yes"/>
      <point x="-73" y="-164"/>
      <point x="159" y="-442"/>
      <point x="541" y="-442" type="curve" smooth="yes"/>
      <point x="912" y="-442"/>
      <point x="1224" y="-199"/>
    </contour>
  </outline>
</glyph>
<glyph name="ezhreversed" format="2">
  <advance height="2479" width="1323"/>
  <unicode hex="01B9"/>
  <anchor x="821" y="1303" name="top"/>
  <outline>
    <contour>
      <point x="539" y="-442" type="curve" smooth="yes"/>
      <point x="847" y="-441"/>
      <point x="1109" y="-271"/>
      <point x="1148" y="-47" type="curve"/>
      <point x="766" y="-47" type="line"/>
      <point x="756" y="-99"/>
      <point x="659" y="-139"/>
      <point x="556" y="-140" type="curve" smooth="yes"/>
      <point x="436" y="-139"/>
      <point x="367" y="-74"/>
      <point x="383" y="29" type="curve" smooth="yes"/>
      <point x="406" y="159"/>
      <point x="521" y="244"/>
      <point x="706" y="244" type="curve" smooth="yes"/>
      <point x="885" y="244" type="line"/>
      <point x="926" y="512" type="line"/>
      <point x="671" y="783" type="line"/>
      <point x="673" y="791" type="line"/>
      <point x="1228" y="791" type="line"/>
      <point x="1282" y="1117" type="line"/>
      <point x="247" y="1117" type="line"/>
      <point x="201" y="823" type="line"/>
      <point x="536" y="474" type="line"/>
      <point x="535" y="464" type="line"/>
      <point x="212" y="423"/>
      <point x="33" y="279"/>
      <point x="-1" y="71" type="curve" smooth="yes"/>
      <point x="-51" y="-226"/>
      <point x="182" y="-441"/>
    </contour>
  </outline>
</glyph>
<glyph name="ezhtail" format="2">
  <advance height="2479" width="1228"/>
  <unicode hex="01BA"/>
  <outline>
    <contour>
      <point x="265" y="1117" type="line" name="hr00"/>
      <point x="215" y="817" type="line"/>
      <point x="567" y="817" type="line"/>
      <point x="352" y="663" type="line"/>
      <point x="317" y="454" type="line"/>
      <point x="538" y="454" type="line"/>
      <point x="1155" y="906" type="line"/>
      <point x="1190" y="1117" type="line"/>
    </contour>
    <contour>
      <point x="365" y="-116" type="curve" smooth="yes"/>
      <point x="372" y="-73"/>
      <point x="427" y="-42"/>
      <point x="569" y="-10" type="curve" smooth="yes"/>
      <point x="801" y="42"/>
      <point x="1024" y="140"/>
      <point x="1059" y="349" type="curve" smooth="yes"/>
      <point x="1090" y="535"/>
      <point x="947" y="698"/>
      <point x="646" y="698" type="curve" smooth="yes"/>
      <point x="468" y="698" type="line"/>
      <point x="428" y="454" type="line"/>
      <point x="605" y="454" type="line" smooth="yes"/>
      <point x="671" y="454"/>
      <point x="717" y="423"/>
      <point x="707" y="368" type="curve" smooth="yes"/>
      <point x="694" y="297"/>
      <point x="610" y="272"/>
      <point x="489" y="252" type="curve" smooth="yes"/>
      <point x="183" y="200"/>
      <point x="38" y="93"/>
      <point x="7" y="-93" type="curve" smooth="yes"/>
      <point x="-27" y="-300"/>
      <point x="148" y="-442"/>
      <point x="457" y="-442" type="curve" smooth="yes"/>
      <point x="785" y="-442"/>
      <point x="995" y="-244"/>
      <point x="1024" y="-73" type="curve"/>
      <point x="675" y="-73" type="line"/>
      <point x="655" y="-166"/>
      <point x="569" y="-192"/>
      <point x="487" y="-192" type="curve" smooth="yes"/>
      <point x="415" y="-192"/>
      <point x="357" y="-172"/>
    </contour>
  </outline>
</glyph>
<glyph name="clickdental" format="2">
  <advance height="2479" width="660"/>
  <unicode hex="01C0"/>
  <outline>
    <contour>
      <point x="573" y="1446" type="line"/>
      <point x="378" y="1446" type="line"/>
      <point x="140" y="0" type="line"/>
      <point x="335" y="0" type="line"/>
    </contour>
  </outline>
</glyph>
<glyph name="Gstroke" format="2">
  <advance height="2479" width="1583"/>
  <unicode hex="01E4"/>
  <anchor x="712" y="6" name="bottom"/>
  <anchor x="991" y="1676" name="top"/>
  <outline>
    <contour>
      <point x="1527" y="500" type="line"/>
      <point x="820" y="500" type="line"/>
      <point x="806" y="410" type="line"/>
      <point x="1513" y="410" type="line"/>
    </contour>
    <component base="G"/>
  </outline>
</glyph>
<glyph name="Hwair" format="2">
  <advance height="2479" width="2311"/>
  <unicode hex="01F6"/>
  <outline>
    <contour>
      <point x="1527" y="-20" type="curve" smooth="yes"/>
      <point x="1894" y="-20"/>
      <point x="2150" y="186"/>
      <point x="2205" y="521" type="curve" smooth="yes"/>
      <point x="2295" y="1068" type="line"/>
      <point x="1891" y="1068" type="line"/>
      <point x="1801" y="521" type="line" smooth="yes"/>
      <point x="1777" y="390"/>
      <point x="1696" y="311"/>
      <point x="1583" y="311" type="curve" smooth="yes"/>
      <point x="1469" y="311"/>
      <point x="1411" y="390"/>
      <point x="1434" y="521" type="curve" smooth="yes"/>
      <point x="1594" y="1489" type="line"/>
      <point x="1190" y="1489" type="line"/>
      <point x="1094" y="908" type="line"/>
      <point x="559" y="908" type="line"/>
      <point x="655" y="1489" type="line"/>
      <point x="250" y="1489" type="line"/>
      <point x="3" y="0" type="line"/>
      <point x="407" y="0" type="line"/>
      <point x="503" y="582" type="line"/>
      <point x="1039" y="582" type="line"/>
      <point x="1030" y="521" type="line" smooth="yes"/>
      <point x="975" y="186"/>
      <point x="1164" y="-20"/>
    </contour>
  </outline>
</glyph>
<glyph name="Wynn" format="2">
  <advance height="2479" width="1383"/>
  <unicode hex="01F7"/>
  <outline>
    <contour>
      <point x="203" y="-214" type="line"/>
      <point x="852" y="-21"/>
      <point x="1261" y="374"/>
      <point x="1346" y="883" type="curve" smooth="yes"/>
      <point x="1412" y="1275"/>
      <point x="1254" y="1510"/>
      <point x="929" y="1510" type="curve" smooth="yes"/>
      <point x="760" y="1510"/>
      <point x="606" y="1450"/>
      <point x="494" y="1328" type="curve"/>
      <point x="433" y="893" type="line"/>
      <point x="527" y="1070"/>
      <point x="664" y="1184"/>
      <point x="798" y="1184" type="curve" smooth="yes"/>
      <point x="919" y="1184"/>
      <point x="964" y="1083"/>
      <point x="932" y="890" type="curve" smooth="yes"/>
      <point x="871" y="533"/>
      <point x="612" y="250"/>
      <point x="238" y="121" type="curve"/>
    </contour>
    <contour>
      <point x="-66" y="-419" type="line"/>
      <point x="338" y="-419" type="line"/>
      <point x="654" y="1489" type="line"/>
      <point x="249" y="1489" type="line"/>
    </contour>
  </outline>
</glyph>
<glyph name="yogh" format="2">
  <advance height="2479" width="1302"/>
  <unicode hex="021D"/>
  <outline>
    <contour>
      <point x="275" y="140" type="line"/>
      <point x="842" y="300"/>
      <point x="1180" y="532"/>
      <point x="1221" y="777" type="curve" smooth="yes"/>
      <point x="1258" y="1001"/>
      <point x="1065" y="1132"/>
      <point x="724" y="1132" type="curve" smooth="yes"/>
      <point x="367" y="1132"/>
      <point x="140" y="986"/>
      <point x="100" y="733" type="curve"/>
      <point x="482" y="733" type="line"/>
      <point x="493" y="812"/>
      <point x="577" y="858"/>
      <point x="689" y="858" type="curve" smooth="yes"/>
      <point x="772" y="858"/>
      <point x="826" y="833"/>
      <point x="817" y="777" type="curve" smooth="yes"/>
      <point x="796" y="655"/>
      <point x="602" y="525"/>
      <point x="302" y="425" type="curve"/>
    </contour>
    <contour>
      <point x="487" y="-441" type="curve" smooth="yes"/>
      <point x="824" y="-441"/>
      <point x="1102" y="-252"/>
      <point x="1146" y="18" type="curve" smooth="yes"/>
      <point x="1185" y="253"/>
      <point x="1044" y="420"/>
      <point x="734" y="461" type="curve"/>
      <point x="522" y="244" type="line"/>
      <point x="711" y="244"/>
      <point x="782" y="185"/>
      <point x="764" y="81" type="curve" smooth="yes"/>
      <point x="743" y="-48"/>
      <point x="628" y="-139"/>
      <point x="488" y="-139" type="curve" smooth="yes"/>
      <point x="405" y="-139"/>
      <point x="341" y="-99"/>
      <point x="349" y="-47" type="curve"/>
      <point x="-33" y="-47" type="line"/>
      <point x="-68" y="-271"/>
      <point x="159" y="-441"/>
    </contour>
  </outline>
</glyph>
<glyph name="Nlongrightleg" format="2">
  <advance height="2479" width="1323"/>
  <unicode hex="0220"/>
  <outline>
    <contour>
      <point x="661" y="-419" type="line"/>
      <point x="1065" y="-419" type="line"/>
      <point x="1312" y="1072" type="line" smooth="yes"/>
      <point x="1352" y="1315"/>
      <point x="1217" y="1504"/>
      <point x="970" y="1504" type="curve" smooth="yes"/>
      <point x="816" y="1504"/>
      <point x="681" y="1425"/>
      <point x="609" y="1284" type="curve"/>
      <point x="594" y="1284" type="line"/>
      <point x="633" y="1489" type="line"/>
      <point x="249" y="1489" type="line"/>
      <point x="3" y="0" type="line"/>
      <point x="407" y="0" type="line"/>
      <point x="571" y="988" type="line" smooth="yes"/>
      <point x="589" y="1098"/>
      <point x="676" y="1178"/>
      <point x="785" y="1178" type="curve" smooth="yes"/>
      <point x="876" y="1178"/>
      <point x="916" y="1124"/>
      <point x="898" y="1014" type="curve" smooth="yes"/>
    </contour>
  </outline>
</glyph>
<glyph name="dcurl" format="2">
  <advance height="2479" width="1466"/>
  <unicode hex="0221"/>
  <anchor x="575" y="0" name="bottom"/>
  <anchor x="1149" y="1280" name="cross"/>
  <anchor x="1501" y="1489" name="raccent"/>
  <anchor x="716" y="1489" name="top"/>
  <outline>
    <contour>
      <point x="774" y="253" type="line"/>
      <point x="730" y="-12" type="line"/>
      <point x="689" y="-256"/>
      <point x="777" y="-419"/>
      <point x="1137" y="-419" type="curve" smooth="yes"/>
      <point x="1420" y="-419"/>
      <point x="1571" y="-323"/>
      <point x="1597" y="-163" type="curve" smooth="yes"/>
      <point x="1625" y="9"/>
      <point x="1495" y="131"/>
      <point x="1204" y="131" type="curve" smooth="yes"/>
      <point x="1039" y="131"/>
      <point x="913" y="93"/>
      <point x="777" y="29" type="curve"/>
      <point x="419" y="-198" type="line"/>
      <point x="532" y="-431" type="line"/>
      <point x="884" y="-212" type="line" smooth="yes"/>
      <point x="1017" y="-130"/>
      <point x="1117" y="-81"/>
      <point x="1172" y="-79" type="curve" smooth="yes"/>
      <point x="1254" y="-74"/>
      <point x="1280" y="-111"/>
      <point x="1274" y="-151" type="curve" smooth="yes"/>
      <point x="1269" y="-186"/>
      <point x="1228" y="-209"/>
      <point x="1184" y="-209" type="curve" smooth="yes"/>
      <point x="1137" y="-209"/>
      <point x="1105" y="-186"/>
      <point x="1114" y="-122" type="curve"/>
      <point x="1175" y="253" type="line"/>
    </contour>
    <component base="d" xOffset="6"/>
  </outline>
</glyph>
<glyph name="Zhook" format="2">
  <advance height="2479" width="1423"/>
  <unicode hex="0224"/>
  <outline>
    <contour>
      <point x="204" y="1164" type="line"/>
      <point x="916" y="1164" type="line"/>
      <point x="47" y="224" type="line"/>
      <point x="9" y="0" type="line"/>
      <point x="771" y="0" type="line" smooth="yes"/>
      <point x="909" y="0"/>
      <point x="918" y="-87"/>
      <point x="899" y="-189" type="curve" smooth="yes"/>
      <point x="884" y="-279" type="line"/>
      <point x="1207" y="-279" type="line"/>
      <point x="1236" y="-116" type="line" smooth="yes"/>
      <point x="1281" y="163"/>
      <point x="1142" y="326"/>
      <point x="826" y="326" type="curve" smooth="yes"/>
      <point x="567" y="326" type="line"/>
      <point x="1437" y="1265" type="line"/>
      <point x="1475" y="1489" type="line"/>
      <point x="259" y="1489" type="line"/>
    </contour>
  </outline>
</glyph>
<glyph name="lcurl" format="2">
  <advance height="2479" width="972"/>
  <unicode hex="0234"/>
  <outline>
    <contour>
      <point x="32" y="308" type="line"/>
      <point x="-12" y="47" type="line"/>
      <point x="-71" y="-303"/>
      <point x="205" y="-419"/>
      <point x="384" y="-419" type="curve" smooth="yes"/>
      <point x="601" y="-419"/>
      <point x="764" y="-244"/>
      <point x="791" y="-93" type="curve" smooth="yes"/>
      <point x="813" y="55"/>
      <point x="714" y="201"/>
      <point x="521" y="201" type="curve" smooth="yes"/>
      <point x="319" y="201"/>
      <point x="7" y="44"/>
      <point x="-224" y="-84" type="curve" smooth="yes"/>
      <point x="-355" y="-157" type="line"/>
      <point x="-209" y="-372" type="line"/>
      <point x="17" y="-227" type="line" smooth="yes"/>
      <point x="205" y="-108"/>
      <point x="319" y="-52"/>
      <point x="442" y="-52" type="curve" smooth="yes"/>
      <point x="479" y="-52"/>
      <point x="493" y="-93"/>
      <point x="492" y="-105" type="curve" smooth="yes"/>
      <point x="487" y="-134"/>
      <point x="458" y="-166"/>
      <point x="433" y="-166" type="curve" smooth="yes"/>
      <point x="368" y="-166"/>
      <point x="359" y="-125"/>
      <point x="372" y="-55" type="curve"/>
      <point x="433" y="308" type="line"/>
    </contour>
    <contour>
      <point x="628" y="1489" type="line"/>
      <point x="227" y="1489" type="line"/>
      <point x="-20" y="0" type="line"/>
      <point x="381" y="0" type="line"/>
    </contour>
  </outline>
</glyph>
<glyph name="tcurl" format="2">
  <advance height="2479" width="1145"/>
  <unicode hex="0236"/>
  <outline>
    <contour>
      <point x="417" y="1385" type="line"/>
      <point x="251" y="384" type="line" smooth="yes"/>
      <point x="193" y="35"/>
      <point x="443" y="-23"/>
      <point x="624" y="-23" type="curve" smooth="yes"/>
      <point x="935" y="-23"/>
      <point x="1042" y="172"/>
      <point x="1063" y="303" type="curve" smooth="yes"/>
      <point x="1092" y="471"/>
      <point x="981" y="596"/>
      <point x="792" y="596" type="curve" smooth="yes"/>
      <point x="606" y="596"/>
      <point x="272" y="474"/>
      <point x="-25" y="212" type="curve"/>
      <point x="94" y="3" type="line"/>
      <point x="353" y="236"/>
      <point x="609" y="343"/>
      <point x="717" y="343" type="curve" smooth="yes"/>
      <point x="749" y="343"/>
      <point x="772" y="323"/>
      <point x="766" y="291" type="curve" smooth="yes"/>
      <point x="760" y="256"/>
      <point x="734" y="230"/>
      <point x="699" y="230" type="curve" smooth="yes"/>
      <point x="658" y="230"/>
      <point x="632" y="262"/>
      <point x="641" y="305" type="curve" smooth="yes"/>
      <point x="818" y="1385" type="line"/>
    </contour>
    <contour>
      <point x="967" y="1117" type="line"/>
      <point x="231" y="1117" type="line"/>
      <point x="181" y="826" type="line"/>
      <point x="917" y="826" type="line"/>
    </contour>
  </outline>
</glyph>
<glyph name="Astroke" format="2">
  <advance height="2479" width="1629"/>
  <unicode hex="023A"/>
  <unicode hex="2C65"/>
  <anchor x="721" y="0" name="bottom"/>
  <anchor x="1489" y="0" name="ogonek"/>
  <anchor x="614" y="1489" name="tonos"/>
  <anchor x="1001" y="1676" name="top"/>
  <outline>
    <contour>
      <point x="1513" y="1679" type="line"/>
      <point x="1306" y="1679" type="line"/>
      <point x="431" y="-189" type="line"/>
      <point x="637" y="-189" type="line"/>
    </contour>
    <component base="A"/>
  </outline>
</glyph>
<glyph name="Cstroke" format="2">
  <advance height="2479" width="1620"/>
  <unicode hex="023B"/>
  <anchor x="706" y="6" name="cedilla"/>
  <anchor x="994" y="1676" name="top"/>
  <outline>
    <contour>
      <point x="279" y="-189" type="line"/>
      <point x="486" y="-189" type="line"/>
      <point x="1361" y="1679" type="line"/>
      <point x="1155" y="1679" type="line"/>
    </contour>
    <component base="C"/>
  </outline>
</glyph>
<glyph name="sswashtail" format="2">
  <advance height="2479" width="1210"/>
  <unicode hex="023F"/>
  <anchor x="512" y="0" name="bottom"/>
  <anchor x="521" y="0" name="cedilla"/>
  <anchor x="730" y="1303" name="top"/>
  <outline>
    <contour>
      <point x="326" y="311" type="curve"/>
      <point x="64" y="169" type="line"/>
      <point x="180" y="-108" type="line" smooth="yes"/>
      <point x="238" y="-246"/>
      <point x="323" y="-419"/>
      <point x="538" y="-419" type="curve" smooth="yes"/>
      <point x="698" y="-419"/>
      <point x="820" y="-335"/>
      <point x="913" y="-268" type="curve"/>
      <point x="835" y="-76" type="line"/>
      <point x="775" y="-119"/>
      <point x="701" y="-163"/>
      <point x="599" y="-163" type="curve" smooth="yes"/>
      <point x="502" y="-163"/>
      <point x="463" y="-116"/>
    </contour>
    <component base="s"/>
  </outline>
</glyph>
<glyph name="glottalstopsmall" format="2">
  <advance height="2479" width="1161"/>
  <unicode hex="0242"/>
  <outline>
    <contour>
      <point x="383" y="241" type="line"/>
      <point x="620" y="241" type="line" smooth="yes"/>
      <point x="897" y="241"/>
      <point x="1072" y="396"/>
      <point x="1116" y="657" type="curve" smooth="yes"/>
      <point x="1166" y="961"/>
      <point x="993" y="1132"/>
      <point x="665" y="1132" type="curve" smooth="yes"/>
      <point x="332" y="1132"/>
      <point x="129" y="957"/>
      <point x="79" y="653" type="curve" name="hr00"/>
      <point x="479" y="653" type="line"/>
      <point x="497" y="770"/>
      <point x="564" y="838"/>
      <point x="648" y="838" type="curve" smooth="yes"/>
      <point x="710" y="838"/>
      <point x="735" y="799"/>
      <point x="722" y="719" type="curve" smooth="yes"/>
      <point x="700" y="596"/>
      <point x="613" y="518"/>
      <point x="501" y="518" type="curve" smooth="yes"/>
      <point x="430" y="518" type="line"/>
    </contour>
    <contour>
      <point x="284" y="0" type="line"/>
      <point x="689" y="0" type="line"/>
      <point x="775" y="518" type="line"/>
      <point x="370" y="518" type="line"/>
    </contour>
  </outline>
</glyph>
<glyph name="Estroke" format="2">
  <advance height="2479" width="1274"/>
  <unicode hex="0246"/>
  <anchor x="544" y="0" name="bottom"/>
  <anchor x="547" y="0" name="cedilla"/>
  <anchor x="1073" y="0" name="ogonek"/>
  <anchor x="209" y="1489" name="tonos"/>
  <anchor x="823" y="1676" name="top"/>
  <outline>
    <contour>
      <point x="198" y="-189" type="line"/>
      <point x="364" y="-189" type="line"/>
      <point x="1213" y="1679" type="line"/>
      <point x="1047" y="1679" type="line"/>
    </contour>
    <component base="E"/>
  </outline>
</glyph>
<glyph name="estroke" format="2">
  <advance height="2479" width="1245"/>
  <unicode hex="0247"/>
  <anchor x="529" y="0" name="bottom"/>
  <anchor x="535" y="0" name="cedilla"/>
  <anchor x="873" y="49" name="ogonek"/>
  <anchor x="745" y="1303" name="top"/>
  <outline>
    <contour>
      <point x="1178" y="1489" type="line"/>
      <point x="972" y="1489" type="line"/>
      <point x="73" y="-419" type="line"/>
      <point x="276" y="-419" type="line"/>
    </contour>
    <component base="e"/>
  </outline>
</glyph>
<glyph name="qhooktail" format="2">
  <advance height="2479" width="1460"/>
  <unicode hex="024B"/>
  <outline>
    <contour>
      <point x="1096" y="-419" type="curve" smooth="yes"/>
      <point x="1186" y="-419"/>
      <point x="1259" y="-410"/>
      <point x="1300" y="-407" type="curve"/>
      <point x="1349" y="-111" type="line"/>
      <point x="1317" y="-113"/>
      <point x="1288" y="-116"/>
      <point x="1259" y="-116" type="curve" smooth="yes"/>
      <point x="1189" y="-116"/>
      <point x="1108" y="-102"/>
      <point x="1119" y="-35" type="curve" smooth="yes"/>
      <point x="1134" y="47" type="line"/>
      <point x="732" y="47" type="line"/>
      <point x="718" y="-35" type="line" smooth="yes"/>
      <point x="665" y="-364"/>
      <point x="852" y="-419"/>
    </contour>
    <contour>
      <point x="404" y="-15" type="curve" smooth="yes"/>
      <point x="561" y="-15"/>
      <point x="683" y="70"/>
      <point x="750" y="183" type="curve"/>
      <point x="916" y="183" type="line"/>
      <point x="1038" y="922" type="line"/>
      <point x="872" y="922" type="line"/>
      <point x="846" y="1036"/>
      <point x="759" y="1132"/>
      <point x="593" y="1132" type="curve" smooth="yes"/>
      <point x="372" y="1132"/>
      <point x="127" y="963"/>
      <point x="60" y="559" type="curve" smooth="yes"/>
      <point x="-4" y="172"/>
      <point x="165" y="-15"/>
    </contour>
    <contour>
      <point x="1134" y="47" type="line"/>
      <point x="1311" y="1117" type="line"/>
      <point x="913" y="1117" type="line"/>
      <point x="869" y="861" type="line"/>
      <point x="907" y="559" type="line"/>
      <point x="764" y="250" type="line"/>
      <point x="732" y="47" type="line"/>
    </contour>
    <contour>
      <point x="604" y="294" type="curve" smooth="yes"/>
      <point x="494" y="294"/>
      <point x="447" y="393"/>
      <point x="473" y="559" type="curve" smooth="yes"/>
      <point x="500" y="724"/>
      <point x="581" y="823"/>
      <point x="692" y="823" type="curve" smooth="yes"/>
      <point x="802" y="823"/>
      <point x="852" y="724"/>
      <point x="825" y="559" type="curve" smooth="yes"/>
      <point x="799" y="396"/>
      <point x="715" y="294"/>
    </contour>
  </outline>
</glyph>
<glyph name="Ystroke" format="2">
  <advance height="2479" width="1565"/>
  <unicode hex="024E"/>
  <anchor x="689" y="0" name="bottom"/>
  <anchor x="783" y="556" name="cross"/>
  <anchor x="890" y="0" name="ogonek"/>
  <anchor x="84" y="1489" name="tonos"/>
  <anchor x="969" y="1676" name="top"/>
  <outline>
    <contour>
      <point x="1641" y="1175" type="line"/>
      <point x="128" y="1175" type="line"/>
      <point x="96" y="986" type="line"/>
      <point x="1609" y="986" type="line"/>
    </contour>
    <component base="Y"/>
  </outline>
</glyph>
<glyph name="ystroke" format="2">
  <advance height="2479" width="1261"/>
  <unicode hex="024F"/>
  <anchor x="938" y="0" name="bottom"/>
  <anchor x="699" y="-419" name="ogonek"/>
  <anchor x="760" y="1303" name="top"/>
  <outline>
    <contour>
      <point x="1276" y="724" type="line" name="hr00"/>
      <point x="40" y="724" type="line"/>
      <point x="14" y="553" type="line"/>
      <point x="1250" y="553" type="line"/>
    </contour>
    <component base="y" xOffset="20"/>
  </outline>
</glyph>
<glyph name="alphaturned-latin" format="2">
  <advance height="2479" width="1320"/>
  <unicode hex="0252"/>
  <anchor x="567" y="0" name="bottom"/>
  <anchor x="3" y="0" name="ogonek"/>
  <anchor x="761" y="1303" name="rhalfring"/>
  <anchor x="769" y="1303" name="top"/>
  <outline>
    <contour>
      <point x="740" y="-15" type="curve" smooth="yes"/>
      <point x="969" y="-15"/>
      <point x="1188" y="159"/>
      <point x="1249" y="532" type="curve"/>
      <point x="1319" y="950"/>
      <point x="1123" y="1132"/>
      <point x="892" y="1132" type="curve" smooth="yes"/>
      <point x="736" y="1132"/>
      <point x="625" y="1036"/>
      <point x="563" y="922" type="curve"/>
      <point x="557" y="922" type="line"/>
      <point x="591" y="1117" type="line"/>
      <point x="189" y="1117" type="line"/>
      <point x="3" y="0" type="line"/>
      <point x="401" y="0" type="line"/>
      <point x="431" y="172" type="line"/>
      <point x="436" y="172" type="line"/>
      <point x="465" y="59"/>
      <point x="573" y="-15"/>
    </contour>
    <contour>
      <point x="602" y="294" type="curve" smooth="yes"/>
      <point x="502" y="294"/>
      <point x="460" y="383"/>
      <point x="484" y="532" type="curve"/>
      <point x="514" y="711"/>
      <point x="609" y="823"/>
      <point x="730" y="823" type="curve" smooth="yes"/>
      <point x="831" y="823"/>
      <point x="871" y="737"/>
      <point x="845" y="585" type="curve" smooth="yes"/>
      <point x="815" y="406"/>
      <point x="723" y="294"/>
    </contour>
  </outline>
</glyph>
<glyph name="oopen" format="2">
  <advance height="2479" width="1240"/>
  <unicode hex="0254"/>
  <outline>
    <contour>
      <point x="524" y="-20" type="curve" smooth="yes"/>
      <point x="877" y="-20"/>
      <point x="1119" y="199"/>
      <point x="1174" y="529" type="curve" smooth="yes"/>
      <point x="1233" y="886"/>
      <point x="1047" y="1132"/>
      <point x="673" y="1132" type="curve" smooth="yes"/>
      <point x="355" y="1132"/>
      <point x="129" y="943"/>
      <point x="79" y="652" type="curve"/>
      <point x="448" y="652" type="line"/>
      <point x="478" y="769"/>
      <point x="560" y="832"/>
      <point x="659" y="832" type="curve" smooth="yes"/>
      <point x="754" y="832"/>
      <point x="801" y="755"/>
      <point x="772" y="585" type="curve" smooth="yes"/>
      <point x="740" y="388"/>
      <point x="644" y="285"/>
      <point x="528" y="285" type="curve" smooth="yes"/>
      <point x="450" y="285"/>
      <point x="404" y="348"/>
      <point x="415" y="465" type="curve"/>
      <point x="48" y="465" type="line"/>
      <point x="4" y="169"/>
      <point x="183" y="-20"/>
    </contour>
  </outline>
</glyph>
<glyph name="dtail" format="2">
  <advance height="2479" width="1327"/>
  <unicode hex="0256"/>
  <anchor x="569" y="0" name="bottom"/>
  <anchor x="1143" y="1280" name="cross"/>
  <anchor x="1495" y="1489" name="raccent"/>
  <anchor x="710" y="1489" name="top"/>
  <outline>
    <contour>
      <point x="1097" y="-419" type="curve" smooth="yes"/>
      <point x="1187" y="-419"/>
      <point x="1260" y="-410"/>
      <point x="1300" y="-407" type="curve"/>
      <point x="1350" y="-113" type="line"/>
      <point x="1318" y="-116"/>
      <point x="1289" y="-119"/>
      <point x="1260" y="-119" type="curve" smooth="yes"/>
      <point x="1190" y="-119"/>
      <point x="1109" y="-105"/>
      <point x="1120" y="-38" type="curve" smooth="yes"/>
      <point x="1167" y="256" type="line"/>
      <point x="771" y="256" type="line"/>
      <point x="721" y="-35" type="line" smooth="yes"/>
      <point x="665" y="-364"/>
      <point x="852" y="-419"/>
    </contour>
    <component base="d"/>
  </outline>
</glyph>
<glyph name="dhook" format="2">
  <advance height="2479" width="1399"/>
  <unicode hex="0257"/>
  <outline>
    <contour>
      <point x="416" y="-15" type="curve" smooth="yes"/>
      <point x="572" y="-15"/>
      <point x="693" y="70"/>
      <point x="756" y="183" type="curve"/>
      <point x="922" y="183" type="line"/>
      <point x="1044" y="922" type="line"/>
      <point x="879" y="922" type="line"/>
      <point x="855" y="1036"/>
      <point x="765" y="1132"/>
      <point x="599" y="1132" type="curve" smooth="yes"/>
      <point x="378" y="1132"/>
      <point x="136" y="963"/>
      <point x="70" y="559" type="curve" smooth="yes"/>
      <point x="5" y="172"/>
      <point x="176" y="-15"/>
    </contour>
    <contour>
      <point x="913" y="1111" type="curve"/>
      <point x="876" y="867" type="line"/>
      <point x="969" y="529" type="line"/>
      <point x="785" y="285" type="line"/>
      <point x="736" y="0" type="line"/>
      <point x="1135" y="0" type="line"/>
      <point x="1315" y="1111" type="line" smooth="yes"/>
      <point x="1334" y="1224"/>
      <point x="1464" y="1207"/>
      <point x="1516" y="1207" type="curve" smooth="yes"/>
      <point x="1543" y="1207"/>
      <point x="1566" y="1204"/>
      <point x="1600" y="1199" type="curve"/>
      <point x="1649" y="1492" type="line"/>
      <point x="1612" y="1498"/>
      <point x="1537" y="1510"/>
      <point x="1455" y="1510" type="curve" smooth="yes"/>
      <point x="1269" y="1510"/>
      <point x="972" y="1479"/>
    </contour>
    <contour>
      <point x="614" y="294" type="curve" smooth="yes"/>
      <point x="503" y="294"/>
      <point x="454" y="393"/>
      <point x="483" y="559" type="curve" smooth="yes"/>
      <point x="511" y="724"/>
      <point x="591" y="823"/>
      <point x="701" y="823" type="curve" smooth="yes"/>
      <point x="812" y="823"/>
      <point x="863" y="724"/>
      <point x="835" y="559" type="curve" smooth="yes"/>
      <point x="807" y="396"/>
      <point x="724" y="294"/>
    </contour>
  </outline>
</glyph>
<glyph name="schwahook" format="2">
  <advance height="2479" width="1736"/>
  <unicode hex="025A"/>
  <outline>
    <contour>
      <point x="543" y="-15" type="curve" smooth="yes"/>
      <point x="880" y="-15"/>
      <point x="1127" y="202"/>
      <point x="1182" y="535" type="curve" smooth="yes"/>
      <point x="1244" y="910"/>
      <point x="1053" y="1137"/>
      <point x="684" y="1137" type="curve" smooth="yes"/>
      <point x="385" y="1137"/>
      <point x="172" y="1002"/>
      <point x="95" y="769" type="curve"/>
      <point x="463" y="745" type="line"/>
      <point x="497" y="807"/>
      <point x="578" y="855"/>
      <point x="670" y="855" type="curve" smooth="yes"/>
      <point x="744" y="855"/>
      <point x="788" y="810"/>
      <point x="799" y="726" type="curve"/>
      <point x="65" y="576" type="line"/>
      <point x="63" y="564" type="line" smooth="yes"/>
      <point x="5" y="213"/>
      <point x="197" y="-15"/>
    </contour>
    <contour>
      <point x="540" y="268" type="curve" smooth="yes"/>
      <point x="456" y="268"/>
      <point x="400" y="316"/>
      <point x="407" y="404" type="curve"/>
      <point x="774" y="494" type="line"/>
      <point x="772" y="490"/>
      <point x="771" y="486"/>
      <point x="770" y="482" type="curve" smooth="yes"/>
      <point x="727" y="346"/>
      <point x="644" y="268"/>
    </contour>
    <contour>
      <point x="1484" y="256" type="curve" smooth="yes"/>
      <point x="1545" y="256"/>
      <point x="1610" y="273"/>
      <point x="1666" y="303" type="curve"/>
      <point x="1636" y="544" type="line"/>
      <point x="1618" y="540"/>
      <point x="1598" y="541"/>
      <point x="1569" y="541" type="curve" smooth="yes"/>
      <point x="1464" y="541"/>
      <point x="1488" y="653"/>
      <point x="1490" y="883" type="curve"/>
      <point x="1025" y="788" type="line"/>
      <point x="983" y="527" type="line"/>
      <point x="1221" y="576" type="line"/>
      <point x="1247" y="387"/>
      <point x="1266" y="256"/>
    </contour>
  </outline>
</glyph>
<glyph name="eopenreversed" format="2">
  <advance height="2479" width="1220"/>
  <unicode hex="025C"/>
  <anchor x="712" y="1303" name="top"/>
  <outline>
    <contour>
      <point x="681" y="588" type="curve"/>
      <point x="408" y="588" type="line"/>
      <point x="385" y="445" type="line"/>
      <point x="559" y="445" type="line" smooth="yes"/>
      <point x="636" y="445"/>
      <point x="735" y="431"/>
      <point x="724" y="349" type="curve" smooth="yes"/>
      <point x="714" y="305"/>
      <point x="656" y="253"/>
      <point x="545" y="253" type="curve" smooth="yes"/>
      <point x="423" y="253"/>
      <point x="375" y="279"/>
      <point x="383" y="320" type="curve"/>
      <point x="11" y="320" type="line"/>
      <point x="-29" y="84"/>
      <point x="215" y="-20"/>
      <point x="468" y="-20" type="curve" smooth="yes"/>
      <point x="783" y="-20"/>
      <point x="1053" y="102"/>
      <point x="1089" y="305" type="curve" smooth="yes"/>
      <point x="1117" y="489"/>
      <point x="962" y="588"/>
    </contour>
    <contour>
      <point x="401" y="547" type="line"/>
      <point x="674" y="547" type="line"/>
      <point x="926" y="547"/>
      <point x="1129" y="666"/>
      <point x="1156" y="815" type="curve"/>
      <point x="1188" y="1021"/>
      <point x="973" y="1132"/>
      <point x="658" y="1132" type="curve" smooth="yes"/>
      <point x="388" y="1132"/>
      <point x="138" y="1007"/>
      <point x="104" y="791" type="curve"/>
      <point x="482" y="791" type="line"/>
      <point x="490" y="847"/>
      <point x="556" y="858"/>
      <point x="639" y="858" type="curve" smooth="yes"/>
      <point x="742" y="858"/>
      <point x="775" y="812"/>
      <point x="770" y="774" type="curve"/>
      <point x="761" y="724"/>
      <point x="691" y="692"/>
      <point x="600" y="692" type="curve" smooth="yes"/>
      <point x="425" y="692" type="line"/>
    </contour>
  </outline>
</glyph>
<glyph name="gamma-latin" format="2">
  <advance height="2479" width="1446"/>
  <unicode hex="0263"/>
  <outline>
    <contour>
      <point x="560" y="-442" type="curve" smooth="yes"/>
      <point x="821" y="-442"/>
      <point x="1000" y="-348"/>
      <point x="1031" y="-144" type="curve" smooth="yes"/>
      <point x="1044" y="-62"/>
      <point x="1032" y="47"/>
      <point x="983" y="169" type="curve" smooth="yes"/>
      <point x="605" y="1117" type="line"/>
      <point x="204" y="1117" type="line"/>
      <point x="604" y="172" type="line" smooth="yes"/>
      <point x="642" y="80"/>
      <point x="665" y="-42"/>
      <point x="649" y="-131" type="curve" smooth="yes"/>
      <point x="639" y="-183"/>
      <point x="625" y="-195"/>
      <point x="601" y="-195" type="curve" smooth="yes"/>
      <point x="564" y="-195"/>
      <point x="561" y="-175"/>
      <point x="569" y="-131" type="curve" smooth="yes"/>
      <point x="581" y="-55"/>
      <point x="640" y="52"/>
      <point x="732" y="175" type="curve" smooth="yes"/>
      <point x="1431" y="1117" type="line"/>
      <point x="1033" y="1117" type="line"/>
      <point x="313" y="154" type="line" smooth="yes"/>
      <point x="231" y="46"/>
      <point x="188" y="-60"/>
      <point x="176" y="-141" type="curve" smooth="yes"/>
      <point x="144" y="-348"/>
      <point x="295" y="-442"/>
    </contour>
  </outline>
</glyph>
<glyph name="ramshorn" format="2">
  <advance height="2479" width="1356"/>
  <unicode hex="0264"/>
  <outline>
    <contour>
      <point x="582" y="-20" type="curve"/>
      <point x="624" y="230" type="line"/>
      <point x="593" y="230"/>
      <point x="591" y="250"/>
      <point x="595" y="262" type="curve" smooth="yes"/>
      <point x="612" y="305"/>
      <point x="685" y="409"/>
      <point x="876" y="623" type="curve" smooth="yes"/>
      <point x="991" y="751"/>
      <point x="1048" y="815"/>
      <point x="1107" y="815" type="curve" smooth="yes"/>
      <point x="1141" y="815"/>
      <point x="1178" y="788"/>
      <point x="1204" y="762" type="curve"/>
      <point x="1408" y="977" type="line"/>
      <point x="1348" y="1059"/>
      <point x="1269" y="1132"/>
      <point x="1120" y="1132" type="curve" smooth="yes"/>
      <point x="932" y="1132"/>
      <point x="787" y="1019"/>
      <point x="500" y="641" type="curve" smooth="yes"/>
      <point x="372" y="472"/>
      <point x="289" y="358"/>
      <point x="269" y="240" type="curve" smooth="yes"/>
      <point x="239" y="61"/>
      <point x="375" y="-20"/>
    </contour>
    <contour>
      <point x="582" y="-20" type="line"/>
      <point x="785" y="-20"/>
      <point x="948" y="57"/>
      <point x="979" y="240" type="curve" smooth="yes"/>
      <point x="999" y="359"/>
      <point x="956" y="475"/>
      <point x="892" y="621" type="curve" smooth="yes"/>
      <point x="718" y="1018"/>
      <point x="613" y="1132"/>
      <point x="428" y="1132" type="curve" smooth="yes"/>
      <point x="279" y="1132"/>
      <point x="172" y="1059"/>
      <point x="90" y="977" type="curve"/>
      <point x="218" y="762" type="line"/>
      <point x="249" y="788"/>
      <point x="297" y="815"/>
      <point x="330" y="815" type="curve" smooth="yes"/>
      <point x="379" y="815"/>
      <point x="427" y="761"/>
      <point x="543" y="551" type="curve" smooth="yes"/>
      <point x="618" y="414"/>
      <point x="668" y="308"/>
      <point x="662" y="262" type="curve" smooth="yes"/>
      <point x="660" y="249"/>
      <point x="649" y="230"/>
      <point x="624" y="230" type="curve"/>
    </contour>
  </outline>
</glyph>
<glyph name="hhook" format="2">
  <advance height="2479" width="1324"/>
  <unicode hex="0266"/>
  <anchor x="573" y="0" name="bottom"/>
  <anchor x="788" y="1303" name="top"/>
  <outline>
    <contour>
      <point x="579" y="1117" type="line"/>
      <point x="582" y="1135" type="line" smooth="yes"/>
      <point x="593" y="1201"/>
      <point x="687" y="1207"/>
      <point x="756" y="1207" type="curve" smooth="yes"/>
      <point x="789" y="1207"/>
      <point x="815" y="1204"/>
      <point x="847" y="1201" type="curve"/>
      <point x="893" y="1498" type="line"/>
      <point x="850" y="1501"/>
      <point x="795" y="1510"/>
      <point x="698" y="1510" type="curve" smooth="yes"/>
      <point x="489" y="1510"/>
      <point x="260" y="1487"/>
      <point x="201" y="1135" type="curve" smooth="yes"/>
      <point x="198" y="1117" type="line"/>
    </contour>
    <component base="n"/>
  </outline>
</glyph>
<glyph name="lhookretroflex" format="2">
  <advance height="2479" width="748"/>
  <unicode hex="026D"/>
  <anchor x="218" y="0" name="bottom"/>
  <anchor x="343" y="768" name="cross"/>
  <anchor x="780" y="1489" name="raccent"/>
  <anchor x="495" y="1676" name="top"/>
  <outline>
    <contour>
      <point x="413" y="0" type="line"/>
      <point x="12" y="0" type="line"/>
      <point x="6" y="-35" type="line" smooth="yes"/>
      <point x="-47" y="-364"/>
      <point x="143" y="-419"/>
      <point x="387" y="-419" type="curve" smooth="yes"/>
      <point x="486" y="-419"/>
      <point x="541" y="-410"/>
      <point x="588" y="-407" type="curve"/>
      <point x="637" y="-111" type="line"/>
      <point x="605" y="-113"/>
      <point x="576" y="-116"/>
      <point x="547" y="-116" type="curve" smooth="yes"/>
      <point x="477" y="-116"/>
      <point x="396" y="-102"/>
      <point x="407" y="-35" type="curve" smooth="yes"/>
    </contour>
    <component base="l" xOffset="3"/>
  </outline>
</glyph>
<glyph name="mlonglegturned" format="2">
  <advance height="2479" width="1926"/>
  <unicode hex="0270"/>
  <anchor x="876" y="0" name="bottom"/>
  <anchor x="1094" y="1303" name="top"/>
  <outline>
    <contour>
      <point x="1277" y="-419" type="line"/>
      <point x="1658" y="-419" type="line"/>
      <point x="1728" y="0" type="line"/>
      <point x="1347" y="0" type="line"/>
    </contour>
    <component base="mturned"/>
  </outline>
</glyph>
<glyph name="nhookretroflex" format="2">
  <advance height="2479" width="1414"/>
  <unicode hex="0273"/>
  <anchor x="573" y="0" name="bottom"/>
  <anchor x="788" y="1303" name="top"/>
  <outline>
    <contour>
      <point x="1137" y="0" type="line"/>
      <point x="736" y="0" type="line"/>
      <point x="730" y="-35" type="line" smooth="yes"/>
      <point x="676" y="-363"/>
      <point x="865" y="-419"/>
      <point x="1108" y="-419" type="curve" smooth="yes"/>
      <point x="1208" y="-419"/>
      <point x="1263" y="-410"/>
      <point x="1312" y="-407" type="curve"/>
      <point x="1361" y="-111" type="line"/>
      <point x="1295" y="-116"/>
      <point x="1301" y="-116"/>
      <point x="1271" y="-116" type="curve" smooth="yes"/>
      <point x="1199" y="-116"/>
      <point x="1121" y="-101"/>
      <point x="1132" y="-35" type="curve" smooth="yes"/>
    </contour>
    <component base="n"/>
  </outline>
</glyph>
<glyph name="OEsmall" format="2">
  <advance height="2479" width="1760"/>
  <unicode hex="0276"/>
  <outline>
    <contour>
      <point x="701" y="0" type="line"/>
      <point x="1603" y="0" type="line"/>
      <point x="1651" y="294" type="line"/>
      <point x="1150" y="294" type="line"/>
      <point x="1171" y="412" type="line"/>
      <point x="1632" y="412" type="line"/>
      <point x="1680" y="705" type="line"/>
      <point x="1219" y="705" type="line"/>
      <point x="1239" y="823" type="line"/>
      <point x="1741" y="823" type="line"/>
      <point x="1789" y="1117" type="line"/>
      <point x="886" y="1117" type="line"/>
    </contour>
    <contour>
      <point x="548" y="0" type="curve"/>
      <point x="813" y="0" type="line"/>
      <point x="861" y="294" type="line"/>
      <point x="576" y="294" type="line"/>
      <point x="450" y="294"/>
      <point x="392" y="385"/>
      <point x="416" y="531" type="curve"/>
      <point x="444" y="705"/>
      <point x="558" y="823"/>
      <point x="685" y="823" type="curve"/>
      <point x="950" y="823" type="line"/>
      <point x="998" y="1117" type="line"/>
      <point x="712" y="1117" type="line"/>
      <point x="368" y="1117"/>
      <point x="118" y="908"/>
      <point x="65" y="583" type="curve"/>
      <point x="6" y="234"/>
      <point x="203" y="0"/>
    </contour>
  </outline>
</glyph>
<glyph name="rlonglegturned" format="2">
  <advance height="2479" width="895"/>
  <unicode hex="027A"/>
  <outline>
    <contour>
      <point x="65" y="-15" type="curve"/>
      <point x="175" y="-15"/>
      <point x="269" y="43"/>
      <point x="335" y="199" type="curve"/>
      <point x="351" y="212" type="line"/>
      <point x="312" y="0" type="line"/>
      <point x="702" y="0" type="line"/>
      <point x="952" y="1510" type="line"/>
      <point x="551" y="1510" type="line"/>
      <point x="391" y="548" type="line" smooth="yes"/>
      <point x="370" y="420"/>
      <point x="255" y="323"/>
      <point x="127" y="323" type="curve" smooth="yes"/>
      <point x="95" y="323"/>
      <point x="29" y="325"/>
      <point x="-8" y="339" type="curve"/>
      <point x="-43" y="6" type="line"/>
      <point x="-14" y="-5"/>
      <point x="20" y="-15"/>
    </contour>
  </outline>
</glyph>
<glyph name="rlongleg" format="2">
  <advance height="2479" width="893"/>
  <unicode hex="027C"/>
  <anchor x="218" y="0" name="bottom"/>
  <anchor x="306" y="535" name="cross"/>
  <anchor x="614" y="1303" name="top"/>
  <outline>
    <contour>
      <point x="-58" y="-419" type="line"/>
      <point x="346" y="-419" type="line"/>
      <point x="416" y="0" type="line"/>
      <point x="14" y="0" type="line"/>
    </contour>
    <component base="r" xOffset="6"/>
  </outline>
</glyph>
<glyph name="Rsmall" format="2">
  <advance height="2479" width="1202"/>
  <unicode hex="0280"/>
  <outline>
    <contour>
      <point x="-3" y="0" type="line"/>
      <point x="369" y="0" type="line"/>
      <point x="505" y="817" type="line"/>
      <point x="668" y="817" type="line"/>
      <point x="768" y="817"/>
      <point x="796" y="772"/>
      <point x="788" y="739" type="curve"/>
      <point x="781" y="676"/>
      <point x="711" y="611"/>
      <point x="604" y="611" type="curve"/>
      <point x="329" y="611" type="line"/>
      <point x="288" y="369" type="line"/>
      <point x="585" y="369" type="line"/>
      <point x="912" y="369"/>
      <point x="1131" y="505"/>
      <point x="1161" y="701" type="curve"/>
      <point x="1203" y="941"/>
      <point x="1018" y="1117"/>
      <point x="695" y="1117" type="curve"/>
      <point x="183" y="1117" type="line"/>
    </contour>
    <contour>
      <point x="691" y="0" type="line"/>
      <point x="1053" y="0" type="line"/>
      <point x="847" y="599" type="line"/>
      <point x="484" y="599" type="line"/>
    </contour>
  </outline>
</glyph>
<glyph name="shook" format="2">
  <advance height="2479" width="1204"/>
  <unicode hex="0282"/>
  <anchor x="512" y="0" name="bottom"/>
  <anchor x="521" y="0" name="cedilla"/>
  <anchor x="730" y="1303" name="top"/>
  <outline>
    <contour>
      <point x="23" y="361" type="line"/>
      <point x="-49" y="-79" type="line" smooth="yes"/>
      <point x="-88" y="-312"/>
      <point x="32" y="-454"/>
      <point x="268" y="-454" type="curve" smooth="yes"/>
      <point x="326" y="-454"/>
      <point x="367" y="-451"/>
      <point x="422" y="-439" type="curve"/>
      <point x="463" y="-198" type="line"/>
      <point x="428" y="-204"/>
      <point x="401" y="-204"/>
      <point x="367" y="-204" type="curve" smooth="yes"/>
      <point x="271" y="-204"/>
      <point x="228" y="-151"/>
      <point x="244" y="-52" type="curve" smooth="yes"/>
      <point x="314" y="361" type="line"/>
    </contour>
    <component base="s"/>
  </outline>
</glyph>
<glyph name="eshsquatreversed" format="2">
  <advance height="2479" width="1033"/>
  <unicode hex="0285"/>
  <outline>
    <contour>
      <point x="614" y="0" type="line" name="hr00"/>
      <point x="735" y="736" type="line" smooth="yes"/>
      <point x="776" y="989"/>
      <point x="629" y="1132"/>
      <point x="356" y="1132" type="curve" smooth="yes"/>
      <point x="297" y="1132"/>
      <point x="236" y="1123"/>
      <point x="182" y="1111" type="curve"/>
      <point x="129" y="823" type="line"/>
      <point x="155" y="832"/>
      <point x="175" y="835"/>
      <point x="217" y="835" type="curve" smooth="yes"/>
      <point x="315" y="835"/>
      <point x="367" y="800"/>
      <point x="356" y="736" type="curve" smooth="yes"/>
      <point x="236" y="0" type="line"/>
    </contour>
    <contour>
      <point x="351" y="695" type="line"/>
      <point x="228" y="-47" type="line" smooth="yes"/>
      <point x="185" y="-306"/>
      <point x="332" y="-442"/>
      <point x="601" y="-442" type="curve" smooth="yes"/>
      <point x="673" y="-442"/>
      <point x="731" y="-431"/>
      <point x="781" y="-419" type="curve"/>
      <point x="833" y="-137" type="line"/>
      <point x="804" y="-143"/>
      <point x="783" y="-145"/>
      <point x="740" y="-145" type="curve" smooth="yes"/>
      <point x="644" y="-145"/>
      <point x="596" y="-113"/>
      <point x="607" y="-47" type="curve" smooth="yes"/>
      <point x="729" y="695" type="line"/>
    </contour>
  </outline>
</glyph>
<glyph name="ubar" format="2">
  <advance height="2479" width="1455"/>
  <unicode hex="0289"/>
  <anchor x="683" y="0" name="bottom"/>
  <anchor x="1197" y="0" name="ogonek"/>
  <anchor x="851" y="1303" name="top"/>
  <outline>
    <contour>
      <point x="1484" y="745" type="line"/>
      <point x="32" y="745" type="line"/>
      <point x="-6" y="535" type="line"/>
      <point x="1449" y="535" type="line"/>
    </contour>
    <component base="u" xOffset="61"/>
  </outline>
</glyph>
<glyph name="Ysmall" format="2">
  <advance height="2479" width="1274"/>
  <unicode hex="028F"/>
  <outline>
    <contour>
      <point x="339" y="0" type="line"/>
      <point x="740" y="0" type="line"/>
      <point x="803" y="352" type="line"/>
      <point x="1340" y="1117" type="line"/>
      <point x="873" y="1117" type="line"/>
      <point x="675" y="810" type="line"/>
      <point x="669" y="810" type="line"/>
      <point x="572" y="1117" type="line"/>
      <point x="118" y="1117" type="line"/>
      <point x="400" y="352" type="line"/>
    </contour>
  </outline>
</glyph>
<glyph name="zretroflexhook" format="2">
  <advance height="2479" width="1370"/>
  <unicode hex="0290"/>
  <anchor x="518" y="0" name="bottom"/>
  <anchor x="605" y="559" name="cross"/>
  <anchor x="730" y="1303" name="top"/>
  <outline>
    <contour>
      <point x="759" y="0" type="line"/>
      <point x="751" y="-55" type="line" smooth="yes"/>
      <point x="712" y="-297"/>
      <point x="820" y="-436"/>
      <point x="1059" y="-436" type="curve" smooth="yes"/>
      <point x="1111" y="-436"/>
      <point x="1151" y="-433"/>
      <point x="1207" y="-422" type="curve"/>
      <point x="1248" y="-177" type="line"/>
      <point x="1212" y="-180"/>
      <point x="1192" y="-183"/>
      <point x="1155" y="-183" type="curve" smooth="yes"/>
      <point x="1081" y="-183"/>
      <point x="982" y="-159"/>
      <point x="998" y="-55" type="curve" smooth="yes"/>
      <point x="1007" y="0" type="line"/>
    </contour>
    <component base="z"/>
  </outline>
</glyph>
<glyph name="zcurl" format="2">
  <advance height="2479" width="1585"/>
  <unicode hex="0291"/>
  <outline>
    <contour>
      <point x="473" y="0" type="line"/>
      <point x="1057" y="0" type="line" smooth="yes"/>
      <point x="1322" y="0"/>
      <point x="1485" y="180"/>
      <point x="1517" y="358" type="curve" smooth="yes"/>
      <point x="1546" y="538"/>
      <point x="1424" y="655"/>
      <point x="1264" y="655" type="curve" smooth="yes"/>
      <point x="1057" y="655"/>
      <point x="863" y="463"/>
      <point x="476" y="12" type="curve" smooth="yes"/>
      <point x="327" y="-160" type="line"/>
      <point x="537" y="-297" type="line"/>
      <point x="822" y="17" type="line" smooth="yes"/>
      <point x="1081" y="303"/>
      <point x="1127" y="367"/>
      <point x="1177" y="367" type="curve" smooth="yes"/>
      <point x="1200" y="367"/>
      <point x="1215" y="352"/>
      <point x="1215" y="343" type="curve" smooth="yes"/>
      <point x="1209" y="311"/>
      <point x="1194" y="303"/>
      <point x="1133" y="303" type="curve" smooth="yes"/>
      <point x="522" y="303" type="line"/>
    </contour>
    <contour>
      <point x="927" y="303" type="line"/>
      <point x="563" y="303" type="line"/>
      <point x="1136" y="908" type="line"/>
      <point x="1171" y="1117" type="line"/>
      <point x="240" y="1117" type="line"/>
      <point x="191" y="815" type="line"/>
      <point x="630" y="815" type="line"/>
      <point x="57" y="207" type="line"/>
      <point x="22" y="0" type="line"/>
      <point x="877" y="0" type="line"/>
    </contour>
  </outline>
</glyph>
<glyph name="ezhcurl" format="2">
  <advance height="2479" width="1450"/>
  <unicode hex="0293"/>
  <outline>
    <contour>
      <point x="248" y="1117" type="line"/>
      <point x="196" y="803" type="line"/>
      <point x="807" y="803" type="line"/>
      <point x="807" y="791" type="line"/>
      <point x="446" y="512" type="line"/>
      <point x="403" y="244" type="line"/>
      <point x="609" y="244" type="line" smooth="yes"/>
      <point x="742" y="244"/>
      <point x="809" y="175"/>
      <point x="794" y="84" type="curve" smooth="yes"/>
      <point x="774" y="-37"/>
      <point x="691" y="-143"/>
      <point x="523" y="-143" type="curve" smooth="yes"/>
      <point x="389" y="-143"/>
      <point x="311" y="-121"/>
      <point x="317" y="-87" type="curve" smooth="yes"/>
      <point x="322" y="-57"/>
      <point x="358" y="-38"/>
      <point x="413" y="-38" type="curve" smooth="yes"/>
      <point x="505" y="-38"/>
      <point x="605" y="-75"/>
      <point x="678" y="-134" type="curve" smooth="yes"/>
      <point x="1056" y="-442" type="line"/>
      <point x="1236" y="-253" type="line"/>
      <point x="843" y="64" type="line" smooth="yes"/>
      <point x="744" y="145"/>
      <point x="606" y="192"/>
      <point x="436" y="192" type="curve" smooth="yes"/>
      <point x="182" y="192"/>
      <point x="-5" y="81"/>
      <point x="-35" y="-105" type="curve" smooth="yes"/>
      <point x="-76" y="-352"/>
      <point x="214" y="-442"/>
      <point x="430" y="-442" type="curve" smooth="yes"/>
      <point x="850" y="-442"/>
      <point x="1081" y="-250"/>
      <point x="1126" y="15" type="curve" smooth="yes"/>
      <point x="1165" y="251"/>
      <point x="1064" y="431"/>
      <point x="819" y="463" type="curve"/>
      <point x="822" y="474" type="line"/>
      <point x="1299" y="852" type="line"/>
      <point x="1339" y="1117" type="line"/>
    </contour>
  </outline>
</glyph>
<glyph name="glottalstopreversed" format="2">
  <advance height="2479" width="1237"/>
  <unicode hex="0295"/>
  <anchor x="535" y="228" name="cross"/>
  <outline>
    <contour>
      <point x="612" y="332" type="curve"/>
      <point x="647" y="631" type="line"/>
      <point x="542" y="631"/>
      <point x="500" y="736"/>
      <point x="528" y="902" type="curve" smooth="yes"/>
      <point x="560" y="1094"/>
      <point x="661" y="1225"/>
      <point x="784" y="1225" type="curve" smooth="yes"/>
      <point x="855" y="1225"/>
      <point x="898" y="1161"/>
      <point x="888" y="1044" type="curve"/>
      <point x="1256" y="1044" type="line"/>
      <point x="1302" y="1335"/>
      <point x="1118" y="1524"/>
      <point x="788" y="1524" type="curve" smooth="yes"/>
      <point x="440" y="1524"/>
      <point x="184" y="1300"/>
      <point x="126" y="953" type="curve" smooth="yes"/>
      <point x="64" y="580"/>
      <point x="264" y="332"/>
    </contour>
    <contour>
      <point x="296" y="0" type="line"/>
      <point x="698" y="0" type="line"/>
      <point x="803" y="631" type="line"/>
      <point x="401" y="631" type="line"/>
    </contour>
  </outline>
</glyph>
<glyph name="glottalstopinverted" format="2">
  <advance height="2479" width="1237"/>
  <unicode hex="0296"/>
  <anchor x="766" y="1273" name="cross"/>
  <outline>
    <contour>
      <point x="512" y="-23" type="curve" smooth="yes"/>
      <point x="860" y="-23"/>
      <point x="1117" y="201"/>
      <point x="1174" y="548" type="curve" smooth="yes"/>
      <point x="1236" y="921"/>
      <point x="1037" y="1169"/>
      <point x="688" y="1169" type="curve"/>
      <point x="654" y="870" type="line"/>
      <point x="759" y="870"/>
      <point x="800" y="765"/>
      <point x="773" y="599" type="curve" smooth="yes"/>
      <point x="741" y="407"/>
      <point x="640" y="276"/>
      <point x="517" y="276" type="curve" smooth="yes"/>
      <point x="446" y="276"/>
      <point x="403" y="340"/>
      <point x="412" y="457" type="curve"/>
      <point x="44" y="457" type="line"/>
      <point x="-2" y="166"/>
      <point x="182" y="-23"/>
    </contour>
    <contour>
      <point x="498" y="870" type="line"/>
      <point x="899" y="870" type="line"/>
      <point x="1006" y="1510" type="line"/>
      <point x="604" y="1510" type="line"/>
    </contour>
  </outline>
</glyph>
<glyph name="cstretched" format="2">
  <advance height="2479" width="1239"/>
  <unicode hex="0297"/>
  <outline>
    <contour>
      <point x="509" y="-442" type="curve" smooth="yes"/>
      <point x="805" y="-442"/>
      <point x="1039" y="-250"/>
      <point x="1090" y="42" type="curve"/>
      <point x="721" y="42" type="line"/>
      <point x="695" y="-73"/>
      <point x="608" y="-148"/>
      <point x="527" y="-148" type="curve" smooth="yes"/>
      <point x="407" y="-148"/>
      <point x="381" y="20"/>
      <point x="429" y="307" type="curve" smooth="yes"/>
      <point x="485" y="646"/>
      <point x="591" y="837"/>
      <point x="714" y="838" type="curve" smooth="yes"/>
      <point x="791" y="837"/>
      <point x="834" y="763"/>
      <point x="824" y="652" type="curve"/>
      <point x="1191" y="652" type="line"/>
      <point x="1237" y="941"/>
      <point x="1047" y="1132"/>
      <point x="744" y="1132" type="curve" smooth="yes"/>
      <point x="360" y="1132"/>
      <point x="105" y="827"/>
      <point x="29" y="368" type="curve" smooth="yes"/>
      <point x="-50" y="-111"/>
      <point x="120" y="-442"/>
    </contour>
  </outline>
</glyph>
<glyph name="Lsmall" format="2">
  <advance height="2479" width="1024"/>
  <unicode hex="029F"/>
  <outline>
    <contour>
      <point x="9" y="0" type="line"/>
      <point x="864" y="0" type="line"/>
      <point x="915" y="300" type="line"/>
      <point x="463" y="300" type="line"/>
      <point x="598" y="1117" type="line"/>
      <point x="195" y="1117" type="line"/>
    </contour>
  </outline>
</glyph>
<glyph name="dezh" format="2">
  <advance height="2479" width="2473"/>
  <unicode hex="02A4"/>
  <anchor x="569" y="0" name="bottom"/>
  <anchor x="1143" y="1280" name="cross"/>
  <anchor x="1495" y="1489" name="raccent"/>
  <anchor x="710" y="1489" name="top"/>
  <outline>
    <contour>
      <point x="1635" y="-442" type="curve" smooth="yes"/>
      <point x="1978" y="-441"/>
      <point x="2261" y="-247"/>
      <point x="2306" y="32" type="curve" smooth="yes"/>
      <point x="2342" y="253"/>
      <point x="2212" y="422"/>
      <point x="1900" y="463" type="curve"/>
      <point x="1901" y="476" type="line"/>
      <point x="2365" y="823" type="line"/>
      <point x="2412" y="1117" type="line"/>
      <point x="1306.25" y="1117.0" type="line"/>
      <point x="1251.25" y="791.0" type="line"/>
      <point x="1877" y="791" type="line"/>
      <point x="1872" y="783" type="line"/>
      <point x="1525" y="512" type="line"/>
      <point x="1484" y="244" type="line"/>
      <point x="1683" y="244" type="line" smooth="yes"/>
      <point x="1869" y="244"/>
      <point x="1939" y="185"/>
      <point x="1920" y="71" type="curve" smooth="yes"/>
      <point x="1900" y="-52"/>
      <point x="1789" y="-139"/>
      <point x="1656" y="-140" type="curve" smooth="yes"/>
      <point x="1565" y="-139"/>
      <point x="1499" y="-99"/>
      <point x="1507" y="-47" type="curve"/>
      <point x="1125" y="-47" type="line"/>
      <point x="1089" y="-271"/>
      <point x="1314" y="-441"/>
    </contour>
    <component base="d"/>
  </outline>
</glyph>
<glyph name="tccurl" format="2">
  <advance height="2479" width="1907"/>
  <unicode hex="02A8"/>
  <outline>
    <contour>
      <point x="861" y="1117" type="line"/>
      <point x="125" y="1117" type="line"/>
      <point x="76" y="826" type="line"/>
      <point x="812" y="826" type="line"/>
    </contour>
    <contour>
      <point x="311" y="1385" type="line"/>
      <point x="137" y="326" type="line"/>
      <point x="96" y="108"/>
      <point x="192" y="-12"/>
      <point x="460" y="-12" type="curve" smooth="yes"/>
      <point x="733" y="-12"/>
      <point x="916" y="116"/>
      <point x="1065" y="221" type="curve" smooth="yes"/>
      <point x="1167" y="291"/>
      <point x="1306" y="352"/>
      <point x="1388" y="352" type="curve" smooth="yes"/>
      <point x="1425" y="352"/>
      <point x="1440" y="337"/>
      <point x="1437" y="320" type="curve" smooth="yes"/>
      <point x="1434" y="297"/>
      <point x="1414" y="285"/>
      <point x="1344" y="285" type="curve" smooth="yes"/>
      <point x="1204" y="285"/>
      <point x="1105" y="340"/>
      <point x="1140" y="559" type="curve" smooth="yes"/>
      <point x="1169" y="742"/>
      <point x="1257" y="832"/>
      <point x="1361" y="832" type="curve" smooth="yes"/>
      <point x="1452" y="832"/>
      <point x="1498" y="768"/>
      <point x="1489" y="652" type="curve"/>
      <point x="1862" y="652" type="line"/>
      <point x="1908" y="943"/>
      <point x="1734" y="1132"/>
      <point x="1405" y="1132" type="curve" smooth="yes"/>
      <point x="1041" y="1132"/>
      <point x="785" y="899"/>
      <point x="730" y="556" type="curve" smooth="yes"/>
      <point x="672" y="212"/>
      <point x="849" y="-20"/>
      <point x="1219" y="-20" type="curve" smooth="yes"/>
      <point x="1559" y="-20"/>
      <point x="1780" y="177"/>
      <point x="1815" y="375" type="curve" smooth="yes"/>
      <point x="1841" y="538"/>
      <point x="1728" y="634"/>
      <point x="1510" y="634" type="curve" smooth="yes"/>
      <point x="1324" y="634"/>
      <point x="1105" y="564"/>
      <point x="852" y="381" type="curve" smooth="yes"/>
      <point x="736" y="300"/>
      <point x="669" y="265"/>
      <point x="602" y="265" type="curve" smooth="yes"/>
      <point x="550" y="265"/>
      <point x="532" y="288"/>
      <point x="538" y="335" type="curve" smooth="yes"/>
      <point x="713" y="1385" type="line"/>
    </contour>
  </outline>
</glyph>
<glyph name="hturnedfishhook" format="2">
  <advance height="2479" width="1495"/>
  <unicode hex="02AE"/>
  <outline>
    <contour>
      <point x="69" y="823" type="line"/>
      <point x="101" y="826"/>
      <point x="130" y="829"/>
      <point x="159" y="829" type="curve" smooth="yes"/>
      <point x="229" y="829"/>
      <point x="308" y="815"/>
      <point x="299" y="748" type="curve" smooth="yes"/>
      <point x="241" y="404" type="line" smooth="yes"/>
      <point x="200" y="160"/>
      <point x="325" y="-15"/>
      <point x="561" y="-15" type="curve" smooth="yes"/>
      <point x="727" y="-15"/>
      <point x="863" y="70"/>
      <point x="936" y="212" type="curve"/>
      <point x="948" y="212" type="line"/>
      <point x="843" y="-419" type="line"/>
      <point x="1230" y="-419" type="line"/>
      <point x="1486" y="1117" type="line"/>
      <point x="1084" y="1117" type="line"/>
      <point x="980" y="489" type="line" smooth="yes"/>
      <point x="962" y="378"/>
      <point x="887" y="311"/>
      <point x="788" y="311" type="curve" smooth="yes"/>
      <point x="686" y="311"/>
      <point x="639" y="378"/>
      <point x="657" y="489" type="curve" smooth="yes"/>
      <point x="700" y="748" type="line" smooth="yes"/>
      <point x="753" y="1076"/>
      <point x="561" y="1132"/>
      <point x="316" y="1132" type="curve" smooth="yes"/>
      <point x="220" y="1132"/>
      <point x="165" y="1123"/>
      <point x="119" y="1120" type="curve"/>
    </contour>
  </outline>
</glyph>
<glyph name="rmod" format="2">
  <advance height="2479" width="614"/>
  <unicode hex="02B3"/>
  <outline>
    <contour>
      <point x="99" y="745" type="line"/>
      <point x="364" y="745" type="line"/>
      <point x="428" y="1140" type="line" smooth="yes"/>
      <point x="442" y="1222"/>
      <point x="509" y="1268"/>
      <point x="570" y="1268" type="curve" smooth="yes"/>
      <point x="602" y="1268"/>
      <point x="623" y="1260"/>
      <point x="640" y="1251" type="curve"/>
      <point x="753" y="1466" type="line"/>
      <point x="724" y="1492"/>
      <point x="687" y="1501"/>
      <point x="652" y="1501" type="curve" smooth="yes"/>
      <point x="570" y="1501"/>
      <point x="506" y="1452"/>
      <point x="465" y="1359" type="curve"/>
      <point x="457" y="1359" type="line"/>
      <point x="477" y="1489" type="line"/>
      <point x="224" y="1489" type="line"/>
    </contour>
  </outline>
</glyph>
<glyph name="Rsmallinvertedmod" format="2">
  <advance height="2479" width="1033"/>
  <unicode hex="02B6"/>
  <outline>
    <contour>
      <point x="762" y="1068" type="line"/>
      <point x="1059" y="1460" type="line"/>
      <point x="780" y="1460" type="line"/>
      <point x="486" y="1068" type="line"/>
    </contour>
    <contour>
      <point x="512" y="655" type="line"/>
      <point x="747" y="655"/>
      <point x="919" y="774"/>
      <point x="948" y="937" type="curve" smooth="yes"/>
      <point x="971" y="1091"/>
      <point x="846" y="1239"/>
      <point x="608" y="1239" type="curve" smooth="yes"/>
      <point x="387" y="1239" type="line"/>
      <point x="352" y="1030" type="line"/>
      <point x="605" y="1030" type="line" smooth="yes"/>
      <point x="677" y="1030"/>
      <point x="712" y="995"/>
      <point x="704" y="948" type="curve" smooth="yes"/>
      <point x="695" y="896"/>
      <point x="651" y="867"/>
      <point x="585" y="867" type="curve" smooth="yes"/>
      <point x="422" y="867" type="line"/>
      <point x="518" y="1460" type="line"/>
      <point x="271" y="1460" type="line"/>
      <point x="137" y="655" type="line"/>
    </contour>
  </outline>
</glyph>
<glyph name="wmod" format="2">
  <advance height="2479" width="1184"/>
  <unicode hex="02B7"/>
  <outline>
    <contour>
      <point x="241" y="745" type="line"/>
      <point x="515" y="745" type="line"/>
      <point x="681" y="1140" type="line"/>
      <point x="695" y="1140" type="line"/>
      <point x="730" y="745" type="line"/>
      <point x="1004" y="745" type="line"/>
      <point x="1327" y="1489" type="line"/>
      <point x="1059" y="1489" type="line"/>
      <point x="908" y="1068" type="line"/>
      <point x="899" y="1068" type="line"/>
      <point x="879" y="1489" type="line"/>
      <point x="617" y="1489" type="line"/>
      <point x="457" y="1065" type="line"/>
      <point x="448" y="1065" type="line"/>
      <point x="433" y="1489" type="line"/>
      <point x="166" y="1489" type="line"/>
    </contour>
  </outline>
</glyph>
<glyph name="ymod" format="2">
  <advance height="2479" width="829"/>
  <unicode hex="02B8"/>
  <outline>
    <contour>
      <point x="198" y="457" type="curve" smooth="yes"/>
      <point x="372" y="457"/>
      <point x="489" y="553"/>
      <point x="556" y="681" type="curve" smooth="yes"/>
      <point x="977" y="1489" type="line"/>
      <point x="695" y="1489" type="line"/>
      <point x="489" y="1004" type="line"/>
      <point x="480" y="1004" type="line"/>
      <point x="439" y="1489" type="line"/>
      <point x="163" y="1489" type="line"/>
      <point x="303" y="727" type="line"/>
      <point x="300" y="719" type="line"/>
      <point x="262" y="663"/>
      <point x="230" y="672"/>
      <point x="163" y="687" type="curve"/>
      <point x="70" y="480" type="line"/>
      <point x="84" y="471"/>
      <point x="134" y="457"/>
    </contour>
  </outline>
</glyph>
<glyph name="ringhalfleft" format="2">
  <advance height="2479" width="332"/>
  <unicode hex="02BF"/>
  <outline>
    <contour>
      <point x="377" y="1108" type="curve"/>
      <point x="399" y="1245" type="line"/>
      <point x="361" y="1245"/>
      <point x="336" y="1270"/>
      <point x="342" y="1303" type="curve" smooth="yes"/>
      <point x="348" y="1340"/>
      <point x="380" y="1366"/>
      <point x="419" y="1366" type="curve"/>
      <point x="442" y="1507" type="line"/>
      <point x="329" y="1507"/>
      <point x="221" y="1423"/>
      <point x="202" y="1303" type="curve" smooth="yes"/>
      <point x="183" y="1187"/>
      <point x="263" y="1108"/>
    </contour>
  </outline>
</glyph>
<glyph name="glottalstopreversedmod" format="2">
  <advance height="2479" width="1050"/>
  <unicode hex="02C1"/>
  <outline>
    <contour>
      <point x="1030" y="1527" type="line"/>
      <point x="1061" y="1716"/>
      <point x="936" y="1809"/>
      <point x="742" y="1809" type="curve" smooth="yes"/>
      <point x="476" y="1809"/>
      <point x="363" y="1655"/>
      <point x="326" y="1428" type="curve" smooth="yes"/>
      <point x="285" y="1172" type="line" smooth="yes"/>
      <point x="249" y="963"/>
      <point x="345" y="832"/>
      <point x="582" y="832" type="curve" smooth="yes"/>
      <point x="695" y="832" type="line"/>
      <point x="727" y="1036" type="line"/>
      <point x="663" y="1036" type="line" smooth="yes"/>
      <point x="584" y="1036"/>
      <point x="526" y="1065"/>
      <point x="541" y="1158" type="curve" smooth="yes"/>
      <point x="585" y="1417" type="line" smooth="yes"/>
      <point x="601" y="1533"/>
      <point x="619" y="1609"/>
      <point x="704" y="1609" type="curve" smooth="yes"/>
      <point x="764" y="1609"/>
      <point x="785" y="1571"/>
      <point x="774" y="1527" type="curve"/>
    </contour>
    <contour>
      <point x="480" y="1036" type="line"/>
      <point x="416" y="655" type="line"/>
      <point x="681" y="655" type="line"/>
      <point x="745" y="1036" type="line"/>
    </contour>
  </outline>
</glyph>
<glyph name="arrowheaddownmod" format="2">
  <advance height="2479" width="1033"/>
  <unicode hex="02C5"/>
  <outline>
    <contour>
      <point x="457" y="567" type="line"/>
      <point x="643" y="567" type="line"/>
      <point x="1050" y="1361" type="line"/>
      <point x="806" y="1361" type="line"/>
      <point x="582" y="928" type="line"/>
    </contour>
    <contour>
      <point x="393" y="567" type="line"/>
      <point x="576" y="567" type="line"/>
      <point x="573" y="928" type="line"/>
      <point x="500" y="1361" type="line"/>
      <point x="250" y="1361" type="line"/>
    </contour>
  </outline>
</glyph>
<glyph name="caron" format="2">
  <advance height="2479" width="1292"/>
  <unicode hex="02C7"/>
  <anchor x="769" y="1303" name="_top"/>
  <outline>
    <contour>
      <point x="673" y="1591" type="line"/>
      <point x="342" y="1591" type="line"/>
      <point x="340" y="1583" type="line"/>
      <point x="621" y="1251" type="line"/>
      <point x="900" y="1251" type="line"/>
      <point x="1289" y="1583" type="line"/>
      <point x="1290" y="1591" type="line"/>
      <point x="959" y="1591" type="line"/>
      <point x="790" y="1431" type="line"/>
    </contour>
  </outline>
</glyph>
<glyph name="verticallinemod" format="2">
  <advance height="2479" width="445"/>
  <unicode hex="02C8"/>
  <outline>
    <contour>
      <point x="506" y="1591" type="line"/>
      <point x="285" y="1591" type="line"/>
      <point x="209" y="1132" type="line"/>
      <point x="431" y="1132" type="line"/>
    </contour>
  </outline>
</glyph>
<glyph name="verticallinelowmod" format="2">
  <advance height="2479" width="445"/>
  <unicode hex="02CC"/>
  <outline>
    <contour>
      <point x="221" y="-134" type="line"/>
      <point x="0" y="-134" type="line"/>
      <point x="-73" y="-573" type="line"/>
      <point x="148" y="-573" type="line"/>
    </contour>
  </outline>
</glyph>
<glyph name="colontriangularhalfmod" format="2">
  <advance height="2479" width="646"/>
  <unicode hex="02D1"/>
  <outline>
    <contour>
      <point x="207" y="1082" type="line"/>
      <point x="343" y="777" type="line"/>
      <point x="369" y="777" type="line"/>
      <point x="611" y="1082" type="line"/>
    </contour>
  </outline>
</glyph>
<glyph name="uptackmod" format="2">
  <advance height="2479" width="844"/>
  <unicode hex="02D4"/>
  <outline>
    <contour>
      <point x="236" y="140" type="line"/>
      <point x="465" y="140" type="line"/>
      <point x="544" y="620" type="line"/>
      <point x="314" y="620" type="line"/>
    </contour>
    <contour>
      <point x="73" y="140" type="line"/>
      <point x="628" y="140" type="line"/>
      <point x="663" y="352" type="line"/>
      <point x="108" y="352" type="line"/>
    </contour>
  </outline>
</glyph>
<glyph name="dotaccent" format="2">
  <advance height="2479" width="669"/>
  <unicode hex="02D9"/>
  <anchor x="458" y="1303" name="_top"/>
  <outline>
    <contour>
      <point x="447" y="1233" type="curve" smooth="yes"/>
      <point x="556" y="1233"/>
      <point x="657" y="1316"/>
      <point x="673" y="1417" type="curve" smooth="yes"/>
      <point x="689" y="1519"/>
      <point x="615" y="1600"/>
      <point x="506" y="1600" type="curve" smooth="yes"/>
      <point x="397" y="1600"/>
      <point x="295" y="1519"/>
      <point x="278" y="1417" type="curve" smooth="yes"/>
      <point x="260" y="1316"/>
      <point x="337" y="1233"/>
    </contour>
  </outline>
</glyph>
<glyph name="tilde" format="2">
  <advance height="2479" width="1024"/>
  <unicode hex="02DC"/>
  <anchor x="634" y="1303" name="_top"/>
  <anchor x="698" y="1676" name="top"/>
  <outline>
    <contour>
      <point x="431" y="1257" type="line"/>
      <point x="442" y="1329"/>
      <point x="477" y="1367"/>
      <point x="524" y="1367" type="curve" smooth="yes"/>
      <point x="599" y="1367"/>
      <point x="623" y="1248"/>
      <point x="774" y="1248" type="curve" smooth="yes"/>
      <point x="911" y="1251"/>
      <point x="1036" y="1356"/>
      <point x="1073" y="1562" type="curve"/>
      <point x="879" y="1562" type="line"/>
      <point x="867" y="1492"/>
      <point x="838" y="1449"/>
      <point x="783" y="1449" type="curve" smooth="yes"/>
      <point x="713" y="1449"/>
      <point x="681" y="1568"/>
      <point x="529" y="1568" type="curve" smooth="yes"/>
      <point x="393" y="1568"/>
      <point x="268" y="1466"/>
      <point x="233" y="1257" type="curve"/>
    </contour>
  </outline>
</glyph>
<glyph name="hungarumlaut" format="2">
  <advance height="2479" width="1073"/>
  <unicode hex="02DD"/>
  <anchor x="512" y="1292" name="_top"/>
  <anchor x="570" y="1649" name="mkmktop_acc"/>
  <outline>
    <contour>
      <point x="564" y="1239" type="line"/>
      <point x="829" y="1239" type="line"/>
      <point x="1158" y="1536" type="line"/>
      <point x="849" y="1536" type="line"/>
    </contour>
    <contour>
      <point x="143" y="1239" type="line"/>
      <point x="413" y="1239" type="line"/>
      <point x="716" y="1536" type="line"/>
      <point x="407" y="1536" type="line"/>
    </contour>
  </outline>
</glyph>
<glyph name="gammamod-latin" format="2">
  <advance height="2479" width="1027"/>
  <unicode hex="02E0"/>
  <outline>
    <contour>
      <point x="617" y="1053" type="line"/>
      <point x="457" y="655" type="line"/>
      <point x="646" y="655" type="line"/>
      <point x="1094" y="1460" type="line"/>
      <point x="788" y="1460" type="line"/>
    </contour>
    <contour>
      <point x="535" y="1460" type="line"/>
      <point x="227" y="1460" type="line"/>
      <point x="404" y="655" type="line"/>
      <point x="599" y="655" type="line"/>
      <point x="573" y="1053" type="line"/>
    </contour>
    <contour>
      <point x="457" y="224" type="curve" smooth="yes"/>
      <point x="592" y="224"/>
      <point x="729" y="279"/>
      <point x="753" y="431" type="curve" smooth="yes"/>
      <point x="761" y="463"/>
      <point x="749" y="518"/>
      <point x="716" y="602" type="curve" smooth="yes"/>
      <point x="663" y="756" type="line"/>
      <point x="431" y="756" type="line"/>
      <point x="486" y="605" type="line" smooth="yes"/>
      <point x="513" y="532"/>
      <point x="531" y="492"/>
      <point x="524" y="460" type="curve" smooth="yes"/>
      <point x="519" y="425"/>
      <point x="516" y="399"/>
      <point x="486" y="399" type="curve" smooth="yes"/>
      <point x="458" y="399"/>
      <point x="461" y="431"/>
      <point x="463" y="460" type="curve" smooth="yes"/>
      <point x="470" y="492"/>
      <point x="513" y="529"/>
      <point x="564" y="605" type="curve" smooth="yes"/>
      <point x="663" y="756" type="line"/>
      <point x="410" y="756" type="line"/>
      <point x="300" y="591" type="line" smooth="yes"/>
      <point x="255" y="521"/>
      <point x="223" y="465"/>
      <point x="215" y="431" type="curve" smooth="yes"/>
      <point x="191" y="279"/>
      <point x="324" y="224"/>
    </contour>
  </outline>
</glyph>
<glyph name="lmod" format="2">
  <advance height="2479" width="396"/>
  <unicode hex="02E1"/>
  <outline>
    <contour>
      <point x="527" y="1737" type="line"/>
      <point x="265" y="1737" type="line"/>
      <point x="99" y="745" type="line"/>
      <point x="364" y="745" type="line"/>
    </contour>
  </outline>
</glyph>
<glyph name="xmod" format="2">
  <advance height="2479" width="820"/>
  <unicode hex="02E3"/>
  <outline>
    <contour>
      <point x="451" y="1489" type="line"/>
      <point x="177" y="1489" type="line"/>
      <point x="326" y="1108" type="line"/>
      <point x="52" y="745" type="line"/>
      <point x="326" y="745" type="line"/>
      <point x="477" y="963" type="line"/>
      <point x="559" y="745" type="line"/>
      <point x="829" y="745" type="line"/>
      <point x="678" y="1108" type="line"/>
      <point x="957" y="1489" type="line"/>
      <point x="684" y="1489" type="line"/>
      <point x="527" y="1248" type="line"/>
    </contour>
  </outline>
</glyph>
<glyph name="tonebarextrahighmod" format="2">
  <advance height="2479" width="829"/>
  <unicode hex="02E5"/>
  <outline>
    <contour>
      <point x="908" y="1457" type="line"/>
      <point x="532" y="1457" type="line"/>
      <point x="291" y="0" type="line"/>
      <point x="666" y="0" type="line"/>
    </contour>
    <contour>
      <point x="876" y="1457" type="line"/>
      <point x="224" y="1457" type="line"/>
      <point x="175" y="1155" type="line"/>
      <point x="826" y="1155" type="line"/>
    </contour>
  </outline>
</glyph>
<glyph name="tonebarmidmod" format="2">
  <advance height="2479" width="829"/>
  <unicode hex="02E7"/>
  <outline>
    <contour>
      <point x="908" y="1457" type="line"/>
      <point x="532" y="1457" type="line"/>
      <point x="291" y="0" type="line"/>
      <point x="666" y="0" type="line"/>
    </contour>
    <contour>
      <point x="780" y="879" type="line"/>
      <point x="128" y="879" type="line"/>
      <point x="79" y="579" type="line"/>
      <point x="730" y="579" type="line"/>
    </contour>
  </outline>
</glyph>
<glyph name="tonebarlowmod" format="2">
  <advance height="2479" width="829"/>
  <unicode hex="02E8"/>
  <outline>
    <contour>
      <point x="908" y="1457" type="line"/>
      <point x="532" y="1457" type="line"/>
      <point x="291" y="0" type="line"/>
      <point x="666" y="0" type="line"/>
    </contour>
    <contour>
      <point x="721" y="515" type="line"/>
      <point x="70" y="515" type="line"/>
      <point x="17" y="215" type="line"/>
      <point x="669" y="215" type="line"/>
    </contour>
  </outline>
</glyph>
<glyph name="tonebarextralowmod" format="2">
  <advance height="2479" width="829"/>
  <unicode hex="02E9"/>
  <outline>
    <contour>
      <point x="908" y="1457" type="line"/>
      <point x="532" y="1457" type="line"/>
      <point x="291" y="0" type="line"/>
      <point x="666" y="0" type="line"/>
    </contour>
    <contour>
      <point x="684" y="303" type="line"/>
      <point x="32" y="303" type="line"/>
      <point x="-17" y="0" type="line"/>
      <point x="634" y="0" type="line"/>
    </contour>
  </outline>
</glyph>
<glyph name="yangdepartingtone" format="2">
  <advance height="2479" width="1094"/>
  <unicode hex="02EB"/>
  <outline>
    <contour>
      <point x="960" y="602" type="line"/>
      <point x="384" y="602" type="line"/>
      <point x="335" y="300" type="line"/>
      <point x="911" y="300" type="line"/>
    </contour>
    <contour>
      <point x="579" y="908" type="line"/>
      <point x="201" y="908" type="line"/>
      <point x="49" y="0" type="line"/>
      <point x="428" y="0" type="line"/>
    </contour>
  </outline>
</glyph>
<glyph name="voicingmod" format="2">
  <advance height="2479" width="1295"/>
  <unicode hex="02EC"/>
  <outline>
    <contour>
      <point x="384" y="-134" type="line"/>
      <point x="58" y="-134" type="line"/>
      <point x="55" y="-143" type="line"/>
      <point x="367" y="-433" type="line"/>
      <point x="608" y="-433" type="line"/>
      <point x="1007" y="-143" type="line"/>
      <point x="1009" y="-134" type="line"/>
      <point x="692" y="-134" type="line"/>
      <point x="515" y="-256" type="line"/>
    </contour>
  </outline>
</glyph>
<glyph name="unaspiratedmod" format="2">
  <advance height="2479" width="1041"/>
  <unicode hex="02ED"/>
  <outline>
    <contour>
      <point x="1041" y="1600" type="line"/>
      <point x="343" y="1600" type="line"/>
      <point x="311" y="1393" type="line"/>
      <point x="1009" y="1393" type="line"/>
    </contour>
    <contour>
      <point x="1001" y="1344" type="line"/>
      <point x="303" y="1344" type="line"/>
      <point x="268" y="1137" type="line"/>
      <point x="966" y="1137" type="line"/>
    </contour>
  </outline>
</glyph>
<glyph name="doubleapostrophemod" format="2">
  <advance height="2479" width="1041"/>
  <unicode hex="02EE"/>
  <outline>
    <contour>
      <point x="678" y="1559" type="line"/>
      <point x="384" y="1559" type="line"/>
      <point x="352" y="1364" type="line" smooth="yes"/>
      <point x="327" y="1222"/>
      <point x="284" y="1135"/>
      <point x="227" y="1047" type="curve"/>
      <point x="387" y="969" type="line"/>
      <point x="490" y="1053"/>
      <point x="618" y="1216"/>
      <point x="646" y="1364" type="curve" smooth="yes"/>
    </contour>
    <contour>
      <point x="1059" y="1559" type="line"/>
      <point x="768" y="1559" type="line"/>
      <point x="736" y="1364" type="line" smooth="yes"/>
      <point x="708" y="1216"/>
      <point x="662" y="1126"/>
      <point x="611" y="1047" type="curve"/>
      <point x="771" y="969" type="line"/>
      <point x="874" y="1053"/>
      <point x="999" y="1213"/>
      <point x="1027" y="1364" type="curve" smooth="yes"/>
    </contour>
  </outline>
</glyph>
<glyph name="lowdownarrowheadmod" format="2">
  <advance height="2479" width="841"/>
  <unicode hex="02EF"/>
  <outline>
    <contour>
      <point x="148" y="-556" type="line"/>
      <point x="279" y="-556" type="line"/>
      <point x="268" y="-335" type="line"/>
      <point x="209" y="-73" type="line"/>
      <point x="35" y="-73" type="line"/>
    </contour>
    <contour>
      <point x="198" y="-556" type="line"/>
      <point x="326" y="-556" type="line"/>
      <point x="596" y="-73" type="line"/>
      <point x="425" y="-73" type="line"/>
      <point x="276" y="-335" type="line"/>
    </contour>
  </outline>
</glyph>
<glyph name="lowuparrowheadmod" format="2">
  <advance height="2479" width="841"/>
  <unicode hex="02F0"/>
  <outline>
    <contour>
      <point x="276" y="-291" type="line"/>
      <point x="358" y="-73" type="line"/>
      <point x="227" y="-73" type="line"/>
      <point x="-44" y="-556" type="line"/>
      <point x="131" y="-556" type="line"/>
    </contour>
    <contour>
      <point x="346" y="-556" type="line"/>
      <point x="518" y="-556" type="line"/>
      <point x="404" y="-73" type="line"/>
      <point x="276" y="-73" type="line"/>
      <point x="285" y="-291" type="line"/>
    </contour>
  </outline>
</glyph>
<glyph name="lowrightarrowheadmod" format="2">
  <advance height="2479" width="841"/>
  <unicode hex="02F2"/>
  <outline>
    <contour>
      <point x="-52" y="-556" type="line"/>
      <point x="553" y="-390" type="line"/>
      <point x="573" y="-268" type="line"/>
      <point x="308" y="-311" type="line"/>
      <point x="-26" y="-396" type="line"/>
    </contour>
    <contour>
      <point x="561" y="-343" type="line"/>
      <point x="579" y="-227" type="line"/>
      <point x="29" y="-55" type="line"/>
      <point x="3" y="-215" type="line"/>
      <point x="308" y="-303" type="line"/>
    </contour>
  </outline>
</glyph>
<glyph name="lowringmod" format="2">
  <advance height="2479" width="922"/>
  <unicode hex="02F3"/>
  <anchor x="368" y="0" name="_bottom"/>
  <outline>
    <contour>
      <point x="127" y="-215" type="curve" smooth="yes"/>
      <point x="109" y="-314"/>
      <point x="185" y="-390"/>
      <point x="304" y="-390" type="curve" smooth="yes"/>
      <point x="417" y="-390"/>
      <point x="516" y="-317"/>
      <point x="534" y="-215" type="curve" smooth="yes"/>
      <point x="548" y="-122"/>
      <point x="476" y="-44"/>
      <point x="362" y="-44" type="curve" smooth="yes"/>
      <point x="243" y="-44"/>
      <point x="141" y="-122"/>
    </contour>
    <contour>
      <point x="260" y="-215" type="curve" smooth="yes"/>
      <point x="266" y="-180"/>
      <point x="298" y="-154"/>
      <point x="342" y="-154" type="curve" smooth="yes"/>
      <point x="380" y="-154"/>
      <point x="403" y="-180"/>
      <point x="397" y="-215" type="curve" smooth="yes"/>
      <point x="391" y="-256"/>
      <point x="359" y="-282"/>
      <point x="321" y="-282" type="curve" smooth="yes"/>
      <point x="278" y="-282"/>
      <point x="255" y="-256"/>
    </contour>
  </outline>
</glyph>
<glyph name="lowtildemod" format="2">
  <advance height="2479" width="1033"/>
  <unicode hex="02F7"/>
  <outline>
    <contour>
      <point x="611" y="-113" type="line"/>
      <point x="600" y="-175"/>
      <point x="559" y="-195"/>
      <point x="518" y="-195" type="curve" smooth="yes"/>
      <point x="420" y="-195"/>
      <point x="347" y="-113"/>
      <point x="239" y="-113" type="curve" smooth="yes"/>
      <point x="97" y="-113"/>
      <point x="-28" y="-256"/>
      <point x="-52" y="-396" type="curve"/>
      <point x="151" y="-404" type="line"/>
      <point x="161" y="-349"/>
      <point x="204" y="-329"/>
      <point x="244" y="-329" type="curve" smooth="yes"/>
      <point x="350" y="-329"/>
      <point x="396" y="-404"/>
      <point x="524" y="-404" type="curve" smooth="yes"/>
      <point x="667" y="-404"/>
      <point x="792" y="-268"/>
      <point x="815" y="-125" type="curve"/>
    </contour>
  </outline>
</glyph>
<glyph name="beginlowtonemod" format="2">
  <advance height="2479" width="916"/>
  <unicode hex="02FB"/>
  <outline>
    <contour>
      <point x="70" y="-448" type="line"/>
      <point x="297" y="-448" type="line"/>
      <point x="364" y="-32" type="line"/>
      <point x="137" y="-32" type="line"/>
    </contour>
    <contour>
      <point x="70" y="-448" type="line"/>
      <point x="515" y="-448" type="line"/>
      <point x="550" y="-239" type="line"/>
      <point x="105" y="-239" type="line"/>
    </contour>
  </outline>
</glyph>
<glyph name="shelfmod" format="2">
  <advance height="2479" width="1039"/>
  <unicode hex="02FD"/>
  <outline>
    <contour>
      <point x="561" y="-224" type="line"/>
      <point x="143" y="-224" type="line"/>
      <point x="108" y="-439" type="line"/>
      <point x="527" y="-439" type="line"/>
    </contour>
    <contour>
      <point x="262" y="-44" type="line"/>
      <point x="35" y="-44" type="line"/>
      <point x="-32" y="-439" type="line"/>
      <point x="195" y="-439" type="line"/>
    </contour>
    <contour>
      <point x="806" y="-44" type="line"/>
      <point x="579" y="-44" type="line"/>
      <point x="512" y="-439" type="line"/>
      <point x="739" y="-439" type="line"/>
    </contour>
  </outline>
</glyph>
<glyph name="openshelfmod" format="2">
  <advance height="2479" width="1047"/>
  <unicode hex="02FE"/>
  <outline>
    <contour>
      <point x="719" y="-233" type="line"/>
      <point x="207" y="-233" type="line"/>
      <point x="172" y="-448" type="line"/>
      <point x="684" y="-448" type="line"/>
    </contour>
    <contour>
      <point x="326" y="-32" type="line"/>
      <point x="99" y="-32" type="line"/>
      <point x="32" y="-448" type="line"/>
      <point x="259" y="-448" type="line"/>
    </contour>
  </outline>
</glyph>
<glyph name="hookabovecomb" format="2">
  <advance height="2479"/>
  <unicode hex="0309"/>
  <anchor x="-614" y="1309" name="_top"/>
  <outline>
    <contour>
      <point x="-477" y="1289" type="line"/>
      <point x="-468" y="1347" type="line"/>
      <point x="-385" y="1359"/>
      <point x="-301" y="1402"/>
      <point x="-288" y="1484" type="curve" smooth="yes"/>
      <point x="-266" y="1612"/>
      <point x="-415" y="1684"/>
      <point x="-713" y="1684" type="curve"/>
      <point x="-748" y="1524" type="line"/>
      <point x="-668" y="1524"/>
      <point x="-612" y="1516"/>
      <point x="-623" y="1463" type="curve" smooth="yes"/>
      <point x="-624" y="1431"/>
      <point x="-671" y="1405"/>
      <point x="-774" y="1402" type="curve"/>
      <point x="-765" y="1289" type="line"/>
    </contour>
  </outline>
</glyph>
<glyph name="caroncomb" format="2">
  <advance height="2479"/>
  <unicode hex="030C"/>
  <anchor x="-545" y="1199" name="_top"/>
  <outline>
    <contour>
      <point x="-647" y="1239" type="line"/>
      <point x="-432" y="1239" type="line"/>
      <point x="-26" y="1521" type="line"/>
      <point x="-25" y="1536" type="line"/>
      <point x="-321" y="1536" type="line"/>
      <point x="-511" y="1411" type="line"/>
      <point x="-659" y="1536" type="line"/>
      <point x="-947" y="1536" type="line"/>
      <point x="-950" y="1516" type="line"/>
    </contour>
  </outline>
</glyph>
<glyph name="dblgravecomb" format="2">
  <advance height="2479"/>
  <unicode hex="030F"/>
  <anchor x="-486" y="1303" name="_top"/>
  <outline>
    <contour>
      <point x="-810" y="1257" type="line"/>
      <point x="-545" y="1257" type="line"/>
      <point x="-630" y="1583" type="line"/>
      <point x="-973" y="1583" type="line"/>
    </contour>
    <contour>
      <point x="-416" y="1257" type="line"/>
      <point x="-159" y="1257" type="line"/>
      <point x="-177" y="1583" type="line"/>
      <point x="-502" y="1583" type="line"/>
    </contour>
  </outline>
</glyph>
<glyph name="breveinvertedcomb" format="2">
  <advance height="2479"/>
  <unicode hex="0311"/>
  <anchor x="-544" y="1146" name="_top"/>
  <outline>
    <contour>
      <point x="-945" y="1135" type="curve"/>
      <point x="-692" y="1135" type="line"/>
      <point x="-685" y="1196"/>
      <point x="-633" y="1254"/>
      <point x="-527" y="1254" type="curve" smooth="yes"/>
      <point x="-420" y="1254"/>
      <point x="-391" y="1196"/>
      <point x="-399" y="1135" type="curve"/>
      <point x="-145" y="1135" type="line"/>
      <point x="-115" y="1324"/>
      <point x="-252" y="1457"/>
      <point x="-495" y="1457" type="curve" smooth="yes"/>
      <point x="-740" y="1457"/>
      <point x="-915" y="1324"/>
    </contour>
  </outline>
</glyph>
<glyph name="commaturnedabovecomb" format="2">
  <advance height="2479"/>
  <unicode hex="0312"/>
  <anchor x="-591" y="1071" name="_marktop"/>
  <anchor x="-489" y="1684" name="mkmktop"/>
  <anchor x="-518" y="1315" name="parent_top"/>
  <outline>
    <contour>
      <point x="-751" y="1012" type="line"/>
      <point x="-457" y="1012" type="line"/>
      <point x="-422" y="1222" type="line" smooth="yes"/>
      <point x="-398" y="1361"/>
      <point x="-351" y="1460"/>
      <point x="-297" y="1536" type="curve"/>
      <point x="-460" y="1617" type="line"/>
      <point x="-567" y="1533"/>
      <point x="-692" y="1367"/>
      <point x="-716" y="1222" type="curve" smooth="yes"/>
    </contour>
  </outline>
</glyph>
<glyph name="lefttackbelowcomb" format="2">
  <advance height="2479"/>
  <unicode hex="0318"/>
  <outline>
    <contour>
      <point x="-809" y="-567" type="line"/>
      <point x="-585" y="-567" type="line"/>
      <point x="-503" y="-70" type="line"/>
      <point x="-727" y="-70" type="line"/>
    </contour>
    <contour>
      <point x="-1146" y="-422" type="line"/>
      <point x="-582" y="-422" type="line"/>
      <point x="-547" y="-212" type="line"/>
      <point x="-1111" y="-212" type="line"/>
    </contour>
  </outline>
</glyph>
<glyph name="horncomb" format="2">
  <advance height="2479"/>
  <unicode hex="031B"/>
  <outline>
    <contour>
      <point x="-6" y="1617" type="curve"/>
      <point x="-300" y="1617" type="line"/>
      <point x="-349" y="1306"/>
      <point x="-378" y="1251"/>
      <point x="-457" y="1097" type="curve"/>
      <point x="-297" y="1012" type="line"/>
      <point x="-90" y="1181"/>
      <point x="-61" y="1283"/>
    </contour>
  </outline>
</glyph>
<glyph name="commaaccentcomb" format="2">
  <advance height="2479"/>
  <unicode hex="0326"/>
  <anchor x="-723" y="0" name="_bottom"/>
  <outline>
    <contour>
      <point x="-623" y="-140" type="line"/>
      <point x="-867" y="-140" type="line"/>
      <point x="-881" y="-224" type="line" smooth="yes"/>
      <point x="-902" y="-346"/>
      <point x="-948" y="-410"/>
      <point x="-1002" y="-474" type="curve"/>
      <point x="-839" y="-550" type="line"/>
      <point x="-758" y="-471"/>
      <point x="-656" y="-337"/>
      <point x="-633" y="-201" type="curve" smooth="yes"/>
    </contour>
  </outline>
</glyph>
<glyph name="dblarchinvertedbelowcomb" format="2">
  <advance height="2479"/>
  <unicode hex="032B"/>
  <outline>
    <contour>
      <point x="-1231" y="-111" type="line"/>
      <point x="-1254" y="-253"/>
      <point x="-1172" y="-369"/>
      <point x="-1033" y="-369" type="curve" smooth="yes"/>
      <point x="-902" y="-369"/>
      <point x="-768" y="-253"/>
      <point x="-745" y="-111" type="curve"/>
      <point x="-873" y="-111" type="line"/>
      <point x="-884" y="-172"/>
      <point x="-943" y="-212"/>
      <point x="-1007" y="-212" type="curve" smooth="yes"/>
      <point x="-1076" y="-212"/>
      <point x="-1117" y="-172"/>
      <point x="-1105" y="-111" type="curve"/>
    </contour>
    <contour>
      <point x="-873" y="-111" type="line"/>
      <point x="-896" y="-253"/>
      <point x="-812" y="-369"/>
      <point x="-681" y="-369" type="curve" smooth="yes"/>
      <point x="-541" y="-369"/>
      <point x="-410" y="-253"/>
      <point x="-387" y="-111" type="curve"/>
      <point x="-518" y="-111" type="line"/>
      <point x="-529" y="-172"/>
      <point x="-582" y="-212"/>
      <point x="-655" y="-212" type="curve" smooth="yes"/>
      <point x="-716" y="-212"/>
      <point x="-756" y="-172"/>
      <point x="-745" y="-111" type="curve"/>
    </contour>
  </outline>
</glyph>
<glyph name="brevebelowcomb" format="2">
  <advance height="2479"/>
  <unicode hex="032E"/>
  <anchor x="-797" y="-3" name="_bottom"/>
  <outline>
    <contour>
      <point x="-657" y="-76" type="line"/>
      <point x="-668" y="-134"/>
      <point x="-723" y="-198"/>
      <point x="-826" y="-198" type="curve" smooth="yes"/>
      <point x="-935" y="-198"/>
      <point x="-967" y="-137"/>
      <point x="-954" y="-76" type="curve"/>
      <point x="-1204" y="-76" type="line"/>
      <point x="-1238" y="-271"/>
      <point x="-1098" y="-399"/>
      <point x="-861" y="-399" type="curve" smooth="yes"/>
      <point x="-612" y="-399"/>
      <point x="-441" y="-259"/>
      <point x="-407" y="-76" type="curve"/>
    </contour>
  </outline>
</glyph>
<glyph name="slashlongcomb" format="2">
  <advance height="2479"/>
  <unicode hex="0338"/>
  <outline>
    <contour>
      <point x="-175" y="1519" type="line"/>
      <point x="-335" y="1519" type="line"/>
      <point x="-1562" y="-96" type="line"/>
      <point x="-1402" y="-96" type="line"/>
    </contour>
  </outline>
</glyph>
<glyph name="squarebelowcomb" format="2">
  <advance height="2479"/>
  <unicode hex="033B"/>
  <outline>
    <contour>
      <point x="-1108" y="-541" type="line"/>
      <point x="-628" y="-541" type="line"/>
      <point x="-550" y="-81" type="line"/>
      <point x="-1030" y="-81" type="line"/>
    </contour>
    <contour>
      <point x="-881" y="-256" type="line"/>
      <point x="-759" y="-256" type="line"/>
      <point x="-780" y="-367" type="line"/>
      <point x="-902" y="-367" type="line"/>
    </contour>
  </outline>
</glyph>
<glyph name="xabovecomb" format="2">
  <advance height="2479"/>
  <unicode hex="033D"/>
  <outline>
    <contour>
      <point x="-719" y="1274" type="line"/>
      <point x="-303" y="1615" type="line"/>
      <point x="-399" y="1725" type="line"/>
      <point x="-815" y="1385" type="line"/>
    </contour>
    <contour>
      <point x="-474" y="1271" type="line"/>
      <point x="-340" y="1382" type="line"/>
      <point x="-640" y="1728" type="line"/>
      <point x="-777" y="1617" type="line"/>
    </contour>
  </outline>
</glyph>
<glyph name="gbridgeabovecomb" format="2">
  <advance height="2479"/>
  <unicode hex="0346"/>
  <outline>
    <contour>
      <point x="-983" y="1178" type="line"/>
      <point x="-756" y="1178" type="line"/>
      <point x="-687" y="1591" type="line"/>
      <point x="-913" y="1591" type="line"/>
    </contour>
    <contour>
      <point x="-783" y="1373" type="line"/>
      <point x="-364" y="1373" type="line"/>
      <point x="-326" y="1591" type="line"/>
      <point x="-745" y="1591" type="line"/>
    </contour>
    <contour>
      <point x="-439" y="1178" type="line"/>
      <point x="-215" y="1178" type="line"/>
      <point x="-145" y="1591" type="line"/>
      <point x="-369" y="1591" type="line"/>
    </contour>
  </outline>
</glyph>
<glyph name="nottildeabovecomb" format="2">
  <advance height="2479"/>
  <unicode hex="034A"/>
  <outline>
    <contour>
      <point x="-442" y="1257" type="curve" smooth="yes"/>
      <point x="-298" y="1257"/>
      <point x="-173" y="1399"/>
      <point x="-151" y="1539" type="curve"/>
      <point x="-358" y="1551" type="line"/>
      <point x="-365" y="1489"/>
      <point x="-409" y="1469"/>
      <point x="-448" y="1469" type="curve" smooth="yes"/>
      <point x="-545" y="1469"/>
      <point x="-621" y="1548"/>
      <point x="-730" y="1548" type="curve" smooth="yes"/>
      <point x="-871" y="1548"/>
      <point x="-996" y="1405"/>
      <point x="-1021" y="1265" type="curve"/>
      <point x="-815" y="1254" type="line"/>
      <point x="-804" y="1315"/>
      <point x="-767" y="1338"/>
      <point x="-724" y="1338" type="curve" smooth="yes"/>
      <point x="-618" y="1338"/>
      <point x="-569" y="1257"/>
    </contour>
    <contour>
      <point x="-605" y="1149" type="line"/>
      <point x="-381" y="1551" type="line"/>
      <point x="-506" y="1612" type="line"/>
      <point x="-736" y="1210" type="line"/>
    </contour>
  </outline>
</glyph>
<glyph name="homotheticabovecomb" format="2">
  <advance height="2479"/>
  <unicode hex="034B"/>
  <outline>
    <contour>
      <point x="-282" y="1830" type="line"/>
      <point x="-290" y="1772"/>
      <point x="-331" y="1751"/>
      <point x="-372" y="1751" type="curve" smooth="yes"/>
      <point x="-473" y="1751"/>
      <point x="-546" y="1830"/>
      <point x="-655" y="1830" type="curve" smooth="yes"/>
      <point x="-796" y="1830"/>
      <point x="-921" y="1687"/>
      <point x="-945" y="1548" type="curve"/>
      <point x="-739" y="1536" type="line"/>
      <point x="-729" y="1597"/>
      <point x="-692" y="1617"/>
      <point x="-652" y="1617" type="curve" smooth="yes"/>
      <point x="-543" y="1617"/>
      <point x="-497" y="1539"/>
      <point x="-369" y="1539" type="curve" smooth="yes"/>
      <point x="-223" y="1539"/>
      <point x="-98" y="1676"/>
      <point x="-76" y="1821" type="curve"/>
    </contour>
    <contour>
      <point x="-657" y="2022" type="curve" smooth="yes"/>
      <point x="-671" y="1926"/>
      <point x="-596" y="1856"/>
      <point x="-477" y="1856" type="curve" smooth="yes"/>
      <point x="-354" y="1856"/>
      <point x="-255" y="1926"/>
      <point x="-241" y="2022" type="curve" smooth="yes"/>
      <point x="-223" y="2115"/>
      <point x="-299" y="2185"/>
      <point x="-422" y="2185" type="curve" smooth="yes"/>
      <point x="-540" y="2185"/>
      <point x="-639" y="2115"/>
    </contour>
    <contour>
      <point x="-771" y="1338" type="curve" smooth="yes"/>
      <point x="-785" y="1245"/>
      <point x="-712" y="1172"/>
      <point x="-591" y="1172" type="curve" smooth="yes"/>
      <point x="-468" y="1172"/>
      <point x="-369" y="1245"/>
      <point x="-355" y="1338" type="curve" smooth="yes"/>
      <point x="-337" y="1434"/>
      <point x="-415" y="1504"/>
      <point x="-535" y="1504" type="curve" smooth="yes"/>
      <point x="-657" y="1504"/>
      <point x="-753" y="1431"/>
    </contour>
  </outline>
</glyph>
<glyph name="arrowleftrightbelowcomb" format="2">
  <advance height="2479"/>
  <unicode hex="034D"/>
  <outline>
    <contour>
      <point x="-451" y="-276" type="line"/>
      <point x="-1283" y="-276" type="line"/>
      <point x="-1306" y="-428" type="line"/>
      <point x="-474" y="-428" type="line"/>
    </contour>
    <contour>
      <point x="-1012" y="-553" type="line"/>
      <point x="-1251" y="-300" type="line"/>
      <point x="-1385" y="-352" type="line"/>
      <point x="-1199" y="-553" type="line"/>
    </contour>
    <contour>
      <point x="-1135" y="-154" type="line"/>
      <point x="-1385" y="-352" type="line"/>
      <point x="-1263" y="-401" type="line"/>
      <point x="-948" y="-154" type="line"/>
    </contour>
    <contour>
      <point x="-602" y="-553" type="line"/>
      <point x="-349" y="-352" type="line"/>
      <point x="-468" y="-300" type="line"/>
      <point x="-785" y="-553" type="line"/>
    </contour>
    <contour>
      <point x="-721" y="-154" type="line"/>
      <point x="-489" y="-401" type="line"/>
      <point x="-349" y="-352" type="line"/>
      <point x="-538" y="-154" type="line"/>
    </contour>
  </outline>
</glyph>
<glyph name="xbelowcomb" format="2">
  <advance height="2479"/>
  <unicode hex="0353"/>
  <outline>
    <contour>
      <point x="-1021" y="-524" type="line"/>
      <point x="-596" y="-175" type="line"/>
      <point x="-689" y="-61" type="line"/>
      <point x="-1114" y="-410" type="line"/>
    </contour>
    <contour>
      <point x="-771" y="-524" type="line"/>
      <point x="-634" y="-413" type="line"/>
      <point x="-940" y="-58" type="line"/>
      <point x="-1076" y="-175" type="line"/>
    </contour>
  </outline>
</glyph>
<glyph name="asteriskbelowcomb" format="2">
  <advance height="2479"/>
  <unicode hex="0359"/>
  <outline>
    <contour>
      <point x="-1050" y="-492" type="line"/>
      <point x="-969" y="-553" type="line"/>
      <point x="-849" y="-401" type="line"/>
      <point x="-780" y="-559" type="line"/>
      <point x="-678" y="-495" type="line"/>
      <point x="-768" y="-352" type="line"/>
      <point x="-588" y="-305" type="line"/>
      <point x="-605" y="-198" type="line"/>
      <point x="-777" y="-271" type="line"/>
      <point x="-730" y="-79" type="line"/>
      <point x="-847" y="-79" type="line"/>
      <point x="-861" y="-265" type="line"/>
      <point x="-1018" y="-192" type="line"/>
      <point x="-1071" y="-300" type="line"/>
      <point x="-905" y="-346" type="line"/>
    </contour>
  </outline>
</glyph>
<glyph name="zigzagabovecomb" format="2">
  <advance height="2479"/>
  <unicode hex="035B"/>
  <outline>
    <contour>
      <point x="-649" y="1661" type="line"/>
      <point x="-835" y="1332" type="line"/>
      <point x="-556" y="1332" type="line"/>
      <point x="-646" y="1181" type="line"/>
      <point x="-465" y="1181" type="line"/>
      <point x="-276" y="1510" type="line"/>
      <point x="-556" y="1510" type="line"/>
      <point x="-468" y="1661" type="line"/>
    </contour>
  </outline>
</glyph>
<glyph name="doublebrevecomb" format="2">
  <advance height="2479"/>
  <unicode hex="035D"/>
  <anchor x="15" y="1117" name="_marktop_dd"/>
  <outline>
    <contour>
      <point x="17" y="1135" type="curve" smooth="yes"/>
      <point x="581" y="1135"/>
      <point x="767" y="1350"/>
      <point x="876" y="1542" type="curve"/>
      <point x="623" y="1542" type="line"/>
      <point x="552" y="1481"/>
      <point x="456" y="1335"/>
      <point x="49" y="1335" type="curve" smooth="yes"/>
      <point x="-359" y="1335"/>
      <point x="-399" y="1481"/>
      <point x="-457" y="1542" type="curve"/>
      <point x="-710" y="1542" type="line"/>
      <point x="-667" y="1359"/>
      <point x="-562" y="1135"/>
    </contour>
  </outline>
</glyph>
<glyph name="doublemacroncomb" format="2">
  <advance height="2479"/>
  <unicode hex="035E"/>
  <anchor x="124" y="1303" name="_top"/>
  <outline>
    <contour>
      <point x="756" y="1489" type="line"/>
      <point x="-448" y="1489" type="line"/>
      <point x="-479" y="1309" type="line"/>
      <point x="726" y="1309" type="line"/>
    </contour>
  </outline>
</glyph>
<glyph name="tildedoublecomb" format="2">
  <advance height="2479"/>
  <unicode hex="0360"/>
  <outline>
    <contour>
      <point x="-916" y="1210" type="line"/>
      <point x="-873" y="1283"/>
      <point x="-780" y="1303"/>
      <point x="-681" y="1303" type="curve" smooth="yes"/>
      <point x="-370" y="1303"/>
      <point x="322" y="1239"/>
      <point x="765" y="1239" type="curve" smooth="yes"/>
      <point x="953" y="1239"/>
      <point x="1108" y="1306"/>
      <point x="1152" y="1475" type="curve"/>
      <point x="963" y="1533" type="line"/>
      <point x="933" y="1466"/>
      <point x="852" y="1443"/>
      <point x="733" y="1443" type="curve" smooth="yes"/>
      <point x="447" y="1443"/>
      <point x="-361" y="1501"/>
      <point x="-701" y="1501" type="curve" smooth="yes"/>
      <point x="-903" y="1501"/>
      <point x="-1028" y="1443"/>
      <point x="-1103" y="1271" type="curve"/>
    </contour>
  </outline>
</glyph>
<glyph name="breveinverteddoublecomb" format="2">
  <advance height="2479"/>
  <unicode hex="0361"/>
  <outline>
    <contour>
      <point x="800" y="1079" type="line"/>
      <point x="753" y="1268"/>
      <point x="642" y="1487"/>
      <point x="76" y="1487" type="curve" smooth="yes"/>
      <point x="-495" y="1487"/>
      <point x="-681" y="1268"/>
      <point x="-785" y="1079" type="curve"/>
      <point x="-532" y="1079" type="line"/>
      <point x="-455" y="1140"/>
      <point x="-367" y="1283"/>
      <point x="41" y="1283" type="curve" smooth="yes"/>
      <point x="444" y="1283"/>
      <point x="497" y="1140"/>
      <point x="547" y="1079" type="curve"/>
    </contour>
  </outline>
</glyph>
<glyph name="arrowdoublerightbelowcomb" format="2">
  <advance height="2479"/>
  <unicode hex="0362"/>
  <outline>
    <contour>
      <point x="649" y="-273" type="line"/>
      <point x="-1105" y="-273" type="line"/>
      <point x="-1132" y="-428" type="line"/>
      <point x="623" y="-428" type="line"/>
    </contour>
    <contour>
      <point x="448" y="-550" type="line"/>
      <point x="797" y="-352" type="line"/>
      <point x="623" y="-300" type="line"/>
      <point x="183" y="-550" type="line"/>
    </contour>
    <contour>
      <point x="247" y="-154" type="line"/>
      <point x="602" y="-399" type="line"/>
      <point x="797" y="-352" type="line"/>
      <point x="512" y="-154" type="line"/>
    </contour>
  </outline>
</glyph>
<glyph name="ocomb" format="2">
  <advance height="2479"/>
  <unicode hex="0366"/>
  <outline>
    <contour>
      <point x="-593" y="1187" type="curve" smooth="yes"/>
      <point x="-409" y="1187"/>
      <point x="-295" y="1312"/>
      <point x="-271" y="1466" type="curve" smooth="yes"/>
      <point x="-271" y="1478" type="line" smooth="yes"/>
      <point x="-243" y="1635"/>
      <point x="-316" y="1760"/>
      <point x="-500" y="1760" type="curve" smooth="yes"/>
      <point x="-682" y="1760"/>
      <point x="-799" y="1635"/>
      <point x="-826" y="1478" type="curve" smooth="yes"/>
      <point x="-826" y="1466" type="line" smooth="yes"/>
      <point x="-851" y="1309"/>
      <point x="-775" y="1187"/>
    </contour>
    <contour>
      <point x="-570" y="1329" type="curve" smooth="yes"/>
      <point x="-644" y="1329"/>
      <point x="-656" y="1393"/>
      <point x="-646" y="1466" type="curve" smooth="yes"/>
      <point x="-646" y="1478" type="line" smooth="yes"/>
      <point x="-633" y="1548"/>
      <point x="-598" y="1617"/>
      <point x="-524" y="1617" type="curve" smooth="yes"/>
      <point x="-447" y="1617"/>
      <point x="-438" y="1548"/>
      <point x="-451" y="1478" type="curve" smooth="yes"/>
      <point x="-451" y="1466" type="line" smooth="yes"/>
      <point x="-461" y="1396"/>
      <point x="-493" y="1329"/>
    </contour>
  </outline>
</glyph>
<glyph name="hcomb" format="2">
  <advance height="2479"/>
  <unicode hex="036A"/>
  <outline>
    <contour>
      <point x="-541" y="1990" type="line"/>
      <point x="-721" y="1990" type="line"/>
      <point x="-849" y="1201" type="line"/>
      <point x="-669" y="1201" type="line"/>
    </contour>
    <contour>
      <point x="-646" y="1492" type="line"/>
      <point x="-634" y="1556"/>
      <point x="-608" y="1615"/>
      <point x="-524" y="1615" type="curve" smooth="yes"/>
      <point x="-468" y="1615"/>
      <point x="-448" y="1591"/>
      <point x="-463" y="1510" type="curve" smooth="yes"/>
      <point x="-512" y="1201" type="line"/>
      <point x="-326" y="1201" type="line"/>
      <point x="-276" y="1510" type="line" smooth="yes"/>
      <point x="-247" y="1687"/>
      <point x="-317" y="1760"/>
      <point x="-428" y="1760" type="curve" smooth="yes"/>
      <point x="-547" y="1760"/>
      <point x="-657" y="1647"/>
      <point x="-684" y="1492" type="curve"/>
    </contour>
  </outline>
</glyph>
<glyph name="xcomb" format="2">
  <advance height="2479"/>
  <unicode hex="036F"/>
  <outline>
    <contour>
      <point x="-596" y="1763" type="line"/>
      <point x="-783" y="1763" type="line"/>
      <point x="-678" y="1489" type="line"/>
      <point x="-884" y="1201" type="line"/>
      <point x="-698" y="1201" type="line"/>
      <point x="-582" y="1361" type="line"/>
      <point x="-515" y="1201" type="line"/>
      <point x="-329" y="1201" type="line"/>
      <point x="-442" y="1489" type="line"/>
      <point x="-244" y="1763" type="line"/>
      <point x="-428" y="1763" type="line"/>
      <point x="-538" y="1617" type="line"/>
    </contour>
  </outline>
</glyph>
<glyph name="heta" format="2">
  <advance height="2479" width="1222"/>
  <unicode hex="0371"/>
  <outline>
    <contour>
      <point x="634" y="0" type="line" name="hr00"/>
      <point x="758" y="749" type="line" smooth="yes"/>
      <point x="817" y="1108"/>
      <point x="575" y="1130"/>
      <point x="371" y="1130" type="curve" smooth="yes"/>
      <point x="284" y="1130"/>
      <point x="223" y="1124"/>
      <point x="164" y="1116" type="curve"/>
      <point x="124" y="865" type="line"/>
      <point x="156" y="868"/>
      <point x="180" y="871"/>
      <point x="217" y="871" type="curve" smooth="yes"/>
      <point x="290" y="871"/>
      <point x="397" y="854"/>
      <point x="380" y="749" type="curve" smooth="yes"/>
      <point x="256" y="0" type="line"/>
    </contour>
    <contour>
      <point x="1169" y="678" type="line"/>
      <point x="605" y="678" type="line"/>
      <point x="556" y="378" type="line"/>
      <point x="1120" y="378" type="line"/>
    </contour>
  </outline>
</glyph>
<glyph name="archaicsampi" format="2">
  <advance height="2479" width="1478"/>
  <unicode hex="0373"/>
  <outline>
    <contour>
      <point x="1088" y="1489" type="line" name="hr00"/>
      <point x="704" y="1489" type="line"/>
      <point x="457" y="0" type="line"/>
      <point x="841" y="0" type="line"/>
    </contour>
    <contour>
      <point x="1539" y="1489" type="line"/>
      <point x="247" y="1489" type="line"/>
      <point x="198" y="1187" type="line"/>
      <point x="1489" y="1187" type="line"/>
    </contour>
    <contour>
      <point x="1539" y="1489" type="line"/>
      <point x="1236" y="1489" type="line"/>
      <point x="1137" y="893" type="line"/>
      <point x="1440" y="893" type="line"/>
    </contour>
    <contour>
      <point x="550" y="1489" type="line"/>
      <point x="247" y="1489" type="line"/>
      <point x="148" y="893" type="line"/>
      <point x="451" y="893" type="line"/>
    </contour>
  </outline>
</glyph>
